solid _28BYJ_48__COMPLETE1.g
  facet normal 0.000000 0.000000 1.000000
    outer loop
      vertex 0.877906 3.586466 20.500000
      vertex 0.487726 5.548037 20.500000
      vertex -0.487726 5.548037 20.500000
    endloop
  endfacet
  facet normal 0.000000 0.000000 1.000000
    outer loop
      vertex -0.877906 12.413534 20.500000
      vertex -2.500066 11.741613 20.500000
      vertex -3.741613 10.500066 20.500000
    endloop
  endfacet
  facet normal 0.000000 0.000000 1.000000
    outer loop
      vertex 0.877906 12.413534 20.500000
      vertex -0.877906 12.413534 20.500000
      vertex -3.741613 10.500066 20.500000
    endloop
  endfacet
  facet normal 0.000000 0.000000 1.000000
    outer loop
      vertex 2.500066 11.741613 20.500000
      vertex 0.877906 12.413534 20.500000
      vertex -3.741613 10.500066 20.500000
    endloop
  endfacet
  facet normal 0.000000 0.000000 1.000000
    outer loop
      vertex 3.741613 10.500066 20.500000
      vertex 2.500066 11.741613 20.500000
      vertex -3.741613 10.500066 20.500000
    endloop
  endfacet
  facet normal 0.000000 0.000000 1.000000
    outer loop
      vertex -3.741613 10.500066 20.500000
      vertex -4.413534 8.877906 20.500000
      vertex -4.413534 7.122094 20.500000
    endloop
  endfacet
  facet normal 0.000000 0.000000 1.000000
    outer loop
      vertex -3.741613 10.500066 20.500000
      vertex -4.413534 7.122094 20.500000
      vertex -3.741613 5.499934 20.500000
    endloop
  endfacet
  facet normal 0.000000 0.000000 1.000000
    outer loop
      vertex -3.741613 10.500066 20.500000
      vertex -3.741613 5.499934 20.500000
      vertex -2.500066 4.258387 20.500000
    endloop
  endfacet
  facet normal 0.000000 0.000000 1.000000
    outer loop
      vertex -3.741613 10.500066 20.500000
      vertex -2.500066 4.258387 20.500000
      vertex -0.877906 3.586466 20.500000
    endloop
  endfacet
  facet normal 0.000000 0.000000 1.000000
    outer loop
      vertex -0.877906 3.586466 20.500000
      vertex 0.877906 3.586466 20.500000
      vertex -0.487726 5.548037 20.500000
    endloop
  endfacet
  facet normal 0.000000 0.000000 1.000000
    outer loop
      vertex -0.877906 3.586466 20.500000
      vertex -0.487726 5.548037 20.500000
      vertex -1.388926 5.921326 20.500000
    endloop
  endfacet
  facet normal 0.000000 0.000000 1.000000
    outer loop
      vertex -0.877906 3.586466 20.500000
      vertex -1.388926 5.921326 20.500000
      vertex -2.078674 6.611074 20.500000
    endloop
  endfacet
  facet normal 0.000000 0.000000 1.000000
    outer loop
      vertex -3.741613 10.500066 20.500000
      vertex -0.877906 3.586466 20.500000
      vertex -2.078674 6.611074 20.500000
    endloop
  endfacet
  facet normal 0.000000 0.000000 1.000000
    outer loop
      vertex -3.741613 10.500066 20.500000
      vertex -2.078674 6.611074 20.500000
      vertex -2.451963 7.512274 20.500000
    endloop
  endfacet
  facet normal 0.000000 0.000000 1.000000
    outer loop
      vertex -3.741613 10.500066 20.500000
      vertex -2.451963 7.512274 20.500000
      vertex -2.451963 8.487726 20.500000
    endloop
  endfacet
  facet normal 0.000000 0.000000 1.000000
    outer loop
      vertex -3.741613 10.500066 20.500000
      vertex -2.451963 8.487726 20.500000
      vertex -2.078674 9.388926 20.500000
    endloop
  endfacet
  facet normal 0.000000 0.000000 1.000000
    outer loop
      vertex -3.741613 10.500066 20.500000
      vertex -2.078674 9.388926 20.500000
      vertex -1.388926 10.078674 20.500000
    endloop
  endfacet
  facet normal 0.000000 0.000000 1.000000
    outer loop
      vertex -3.741613 10.500066 20.500000
      vertex -1.388926 10.078674 20.500000
      vertex -0.487726 10.451963 20.500000
    endloop
  endfacet
  facet normal 0.000000 0.000000 1.000000
    outer loop
      vertex 3.741613 10.500066 20.500000
      vertex -3.741613 10.500066 20.500000
      vertex -0.487726 10.451963 20.500000
    endloop
  endfacet
  facet normal 0.000000 0.000000 1.000000
    outer loop
      vertex 3.741613 10.500066 20.500000
      vertex -0.487726 10.451963 20.500000
      vertex 0.487726 10.451963 20.500000
    endloop
  endfacet
  facet normal 0.000000 0.000000 1.000000
    outer loop
      vertex 4.413534 8.877906 20.500000
      vertex 3.741613 10.500066 20.500000
      vertex 0.487726 10.451963 20.500000
    endloop
  endfacet
  facet normal 0.000000 0.000000 1.000000
    outer loop
      vertex 4.413534 8.877906 20.500000
      vertex 0.487726 10.451963 20.500000
      vertex 1.388926 10.078674 20.500000
    endloop
  endfacet
  facet normal 0.000000 0.000000 1.000000
    outer loop
      vertex 4.413534 7.122094 20.500000
      vertex 4.413534 8.877906 20.500000
      vertex 1.388926 10.078674 20.500000
    endloop
  endfacet
  facet normal 0.000000 0.000000 1.000000
    outer loop
      vertex 4.413534 7.122094 20.500000
      vertex 1.388926 10.078674 20.500000
      vertex 2.078674 9.388926 20.500000
    endloop
  endfacet
  facet normal 0.000000 0.000000 1.000000
    outer loop
      vertex 3.741613 5.499934 20.500000
      vertex 4.413534 7.122094 20.500000
      vertex 2.078674 9.388926 20.500000
    endloop
  endfacet
  facet normal 0.000000 0.000000 1.000000
    outer loop
      vertex 3.741613 5.499934 20.500000
      vertex 2.078674 9.388926 20.500000
      vertex 2.451963 8.487726 20.500000
    endloop
  endfacet
  facet normal 0.000000 0.000000 1.000000
    outer loop
      vertex 2.500066 4.258387 20.500000
      vertex 3.741613 5.499934 20.500000
      vertex 2.451963 8.487726 20.500000
    endloop
  endfacet
  facet normal 0.000000 0.000000 1.000000
    outer loop
      vertex 2.500066 4.258387 20.500000
      vertex 2.451963 8.487726 20.500000
      vertex 2.451963 7.512274 20.500000
    endloop
  endfacet
  facet normal 0.000000 0.000000 1.000000
    outer loop
      vertex 0.877906 3.586466 20.500000
      vertex 2.500066 4.258387 20.500000
      vertex 2.451963 7.512274 20.500000
    endloop
  endfacet
  facet normal 0.000000 0.000000 1.000000
    outer loop
      vertex 0.877906 3.586466 20.500000
      vertex 2.451963 7.512274 20.500000
      vertex 2.078674 6.611074 20.500000
    endloop
  endfacet
  facet normal 0.000000 0.000000 1.000000
    outer loop
      vertex 0.877906 3.586466 20.500000
      vertex 2.078674 6.611074 20.500000
      vertex 1.388926 5.921326 20.500000
    endloop
  endfacet
  facet normal 0.000000 0.000000 1.000000
    outer loop
      vertex 0.877906 3.586466 20.500000
      vertex 1.388926 5.921326 20.500000
      vertex 0.487726 5.548037 20.500000
    endloop
  endfacet
  facet normal 0.382683 -0.923880 0.000000
    outer loop
      vertex 2.500066 4.258387 20.500000
      vertex 0.877906 3.586466 19.000000
      vertex 2.500066 4.258387 19.000000
    endloop
  endfacet
  facet normal 0.382683 -0.923880 0.000000
    outer loop
      vertex 2.500066 4.258387 20.500000
      vertex 0.877906 3.586466 20.500000
      vertex 0.877906 3.586466 19.000000
    endloop
  endfacet
  facet normal 0.707107 -0.707107 0.000000
    outer loop
      vertex 3.741613 5.499934 20.500000
      vertex 2.500066 4.258387 19.000000
      vertex 3.741613 5.499934 19.000000
    endloop
  endfacet
  facet normal 0.707107 -0.707107 0.000000
    outer loop
      vertex 3.741613 5.499934 20.500000
      vertex 2.500066 4.258387 20.500000
      vertex 2.500066 4.258387 19.000000
    endloop
  endfacet
  facet normal 0.923880 -0.382683 0.000000
    outer loop
      vertex 4.413534 7.122094 20.500000
      vertex 3.741613 5.499934 19.000000
      vertex 4.413534 7.122094 19.000000
    endloop
  endfacet
  facet normal 0.923880 -0.382683 0.000000
    outer loop
      vertex 4.413534 7.122094 20.500000
      vertex 3.741613 5.499934 20.500000
      vertex 3.741613 5.499934 19.000000
    endloop
  endfacet
  facet normal 1.000000 0.000000 0.000000
    outer loop
      vertex 4.413534 8.877906 20.500000
      vertex 4.413534 7.122094 19.000000
      vertex 4.413534 8.877906 19.000000
    endloop
  endfacet
  facet normal 1.000000 0.000000 0.000000
    outer loop
      vertex 4.413534 8.877906 20.500000
      vertex 4.413534 7.122094 20.500000
      vertex 4.413534 7.122094 19.000000
    endloop
  endfacet
  facet normal 0.923880 0.382683 0.000000
    outer loop
      vertex 3.741613 10.500066 19.000000
      vertex 4.413534 8.877906 20.500000
      vertex 4.413534 8.877906 19.000000
    endloop
  endfacet
  facet normal 0.923880 0.382683 0.000000
    outer loop
      vertex 3.741613 10.500066 19.000000
      vertex 3.741613 10.500066 20.500000
      vertex 4.413534 8.877906 20.500000
    endloop
  endfacet
  facet normal 0.707107 0.707107 0.000000
    outer loop
      vertex 2.500066 11.741613 19.000000
      vertex 3.741613 10.500066 20.500000
      vertex 3.741613 10.500066 19.000000
    endloop
  endfacet
  facet normal 0.707107 0.707107 0.000000
    outer loop
      vertex 2.500066 11.741613 19.000000
      vertex 2.500066 11.741613 20.500000
      vertex 3.741613 10.500066 20.500000
    endloop
  endfacet
  facet normal 0.382683 0.923880 0.000000
    outer loop
      vertex 0.877906 12.413534 19.000000
      vertex 2.500066 11.741613 20.500000
      vertex 2.500066 11.741613 19.000000
    endloop
  endfacet
  facet normal 0.382683 0.923880 0.000000
    outer loop
      vertex 0.877906 12.413534 19.000000
      vertex 0.877906 12.413534 20.500000
      vertex 2.500066 11.741613 20.500000
    endloop
  endfacet
  facet normal 0.000000 1.000000 0.000000
    outer loop
      vertex -0.877906 12.413534 19.000000
      vertex 0.877906 12.413534 20.500000
      vertex 0.877906 12.413534 19.000000
    endloop
  endfacet
  facet normal 0.000000 1.000000 0.000000
    outer loop
      vertex -0.877906 12.413534 19.000000
      vertex -0.877906 12.413534 20.500000
      vertex 0.877906 12.413534 20.500000
    endloop
  endfacet
  facet normal -0.382683 0.923880 0.000000
    outer loop
      vertex -0.877906 12.413534 19.000000
      vertex -2.500066 11.741613 20.500000
      vertex -0.877906 12.413534 20.500000
    endloop
  endfacet
  facet normal -0.382683 0.923880 0.000000
    outer loop
      vertex -0.877906 12.413534 19.000000
      vertex -2.500066 11.741613 19.000000
      vertex -2.500066 11.741613 20.500000
    endloop
  endfacet
  facet normal -0.707107 0.707107 0.000000
    outer loop
      vertex -2.500066 11.741613 19.000000
      vertex -3.741613 10.500066 20.500000
      vertex -2.500066 11.741613 20.500000
    endloop
  endfacet
  facet normal -0.707107 0.707107 0.000000
    outer loop
      vertex -2.500066 11.741613 19.000000
      vertex -3.741613 10.500066 19.000000
      vertex -3.741613 10.500066 20.500000
    endloop
  endfacet
  facet normal -0.923880 0.382683 0.000000
    outer loop
      vertex -3.741613 10.500066 19.000000
      vertex -4.413534 8.877906 20.500000
      vertex -3.741613 10.500066 20.500000
    endloop
  endfacet
  facet normal -0.923880 0.382683 0.000000
    outer loop
      vertex -3.741613 10.500066 19.000000
      vertex -4.413534 8.877906 19.000000
      vertex -4.413534 8.877906 20.500000
    endloop
  endfacet
  facet normal -1.000000 0.000000 0.000000
    outer loop
      vertex -4.413534 8.877906 19.000000
      vertex -4.413534 7.122094 20.500000
      vertex -4.413534 8.877906 20.500000
    endloop
  endfacet
  facet normal -1.000000 0.000000 0.000000
    outer loop
      vertex -4.413534 8.877906 19.000000
      vertex -4.413534 7.122094 19.000000
      vertex -4.413534 7.122094 20.500000
    endloop
  endfacet
  facet normal -0.923880 -0.382683 0.000000
    outer loop
      vertex -3.741613 5.499934 20.500000
      vertex -4.413534 7.122094 20.500000
      vertex -3.741613 5.499934 19.000000
    endloop
  endfacet
  facet normal -0.923880 -0.382683 0.000000
    outer loop
      vertex -4.413534 7.122094 20.500000
      vertex -4.413534 7.122094 19.000000
      vertex -3.741613 5.499934 19.000000
    endloop
  endfacet
  facet normal -0.707107 -0.707107 0.000000
    outer loop
      vertex -2.500066 4.258387 20.500000
      vertex -3.741613 5.499934 20.500000
      vertex -2.500066 4.258387 19.000000
    endloop
  endfacet
  facet normal -0.707107 -0.707107 0.000000
    outer loop
      vertex -3.741613 5.499934 20.500000
      vertex -3.741613 5.499934 19.000000
      vertex -2.500066 4.258387 19.000000
    endloop
  endfacet
  facet normal -0.382683 -0.923880 0.000000
    outer loop
      vertex -0.877906 3.586466 20.500000
      vertex -2.500066 4.258387 20.500000
      vertex -0.877906 3.586466 19.000000
    endloop
  endfacet
  facet normal -0.382683 -0.923880 0.000000
    outer loop
      vertex -2.500066 4.258387 20.500000
      vertex -2.500066 4.258387 19.000000
      vertex -0.877906 3.586466 19.000000
    endloop
  endfacet
  facet normal -0.000000 -1.000000 0.000000
    outer loop
      vertex 0.877906 3.586466 20.500000
      vertex -0.877906 3.586466 20.500000
      vertex 0.877906 3.586466 19.000000
    endloop
  endfacet
  facet normal -0.000000 -1.000000 0.000000
    outer loop
      vertex -0.877906 3.586466 20.500000
      vertex -0.877906 3.586466 19.000000
      vertex 0.877906 3.586466 19.000000
    endloop
  endfacet
  facet normal -0.000000 -1.000000 0.000000
    outer loop
      vertex 0.487726 5.548037 23.000000
      vertex -0.487726 5.548037 23.000000
      vertex 0.487726 5.548037 20.500000
    endloop
  endfacet
  facet normal -0.000000 -1.000000 0.000000
    outer loop
      vertex -0.487726 5.548037 23.000000
      vertex -0.487726 5.548037 20.500000
      vertex 0.487726 5.548037 20.500000
    endloop
  endfacet
  facet normal -0.382683 -0.923880 0.000000
    outer loop
      vertex -0.487726 5.548037 23.000000
      vertex -1.388926 5.921326 23.000000
      vertex -0.487726 5.548037 20.500000
    endloop
  endfacet
  facet normal -0.382683 -0.923880 0.000000
    outer loop
      vertex -1.388926 5.921326 23.000000
      vertex -1.388926 5.921326 20.500000
      vertex -0.487726 5.548037 20.500000
    endloop
  endfacet
  facet normal -0.707107 -0.707107 0.000000
    outer loop
      vertex -2.078674 6.611074 29.000000
      vertex -1.967600 6.500000 23.000000
      vertex -1.967600 6.500000 29.000000
    endloop
  endfacet
  facet normal -0.707107 -0.707107 0.000000
    outer loop
      vertex -2.078674 6.611074 20.500000
      vertex -1.388926 5.921326 20.500000
      vertex -1.388926 5.921326 23.000000
    endloop
  endfacet
  facet normal -0.707107 -0.707107 0.000000
    outer loop
      vertex -2.078674 6.611074 20.500000
      vertex -1.388926 5.921326 23.000000
      vertex -1.967600 6.500000 23.000000
    endloop
  endfacet
  facet normal -0.707107 -0.707107 0.000000
    outer loop
      vertex -2.078674 6.611074 29.000000
      vertex -2.078674 6.611074 20.500000
      vertex -1.967600 6.500000 23.000000
    endloop
  endfacet
  facet normal -0.923880 -0.382683 0.000000
    outer loop
      vertex -2.078674 6.611074 29.000000
      vertex -2.451963 7.512274 29.000000
      vertex -2.078674 6.611074 20.500000
    endloop
  endfacet
  facet normal -0.923880 -0.382683 0.000000
    outer loop
      vertex -2.451963 7.512274 29.000000
      vertex -2.451963 7.512274 20.500000
      vertex -2.078674 6.611074 20.500000
    endloop
  endfacet
  facet normal -1.000000 0.000000 0.000000
    outer loop
      vertex -2.451963 8.487726 20.500000
      vertex -2.451963 7.512274 29.000000
      vertex -2.451963 8.487726 29.000000
    endloop
  endfacet
  facet normal -1.000000 0.000000 0.000000
    outer loop
      vertex -2.451963 8.487726 20.500000
      vertex -2.451963 7.512274 20.500000
      vertex -2.451963 7.512274 29.000000
    endloop
  endfacet
  facet normal -0.923880 0.382683 0.000000
    outer loop
      vertex -2.078674 9.388926 20.500000
      vertex -2.451963 8.487726 29.000000
      vertex -2.078674 9.388926 29.000000
    endloop
  endfacet
  facet normal -0.923880 0.382683 0.000000
    outer loop
      vertex -2.078674 9.388926 20.500000
      vertex -2.451963 8.487726 20.500000
      vertex -2.451963 8.487726 29.000000
    endloop
  endfacet
  facet normal -0.707107 0.707107 0.000000
    outer loop
      vertex -1.388926 10.078674 20.500000
      vertex -1.967600 9.500000 23.000000
      vertex -1.388926 10.078674 23.000000
    endloop
  endfacet
  facet normal -0.707107 0.707107 0.000000
    outer loop
      vertex -2.078674 9.388926 20.500000
      vertex -2.078674 9.388926 29.000000
      vertex -1.967600 9.500000 29.000000
    endloop
  endfacet
  facet normal -0.707107 0.707107 0.000000
    outer loop
      vertex -2.078674 9.388926 20.500000
      vertex -1.967600 9.500000 29.000000
      vertex -1.967600 9.500000 23.000000
    endloop
  endfacet
  facet normal -0.707107 0.707107 0.000000
    outer loop
      vertex -1.388926 10.078674 20.500000
      vertex -2.078674 9.388926 20.500000
      vertex -1.967600 9.500000 23.000000
    endloop
  endfacet
  facet normal -0.382683 0.923880 0.000000
    outer loop
      vertex -0.487726 10.451963 20.500000
      vertex -1.388926 10.078674 23.000000
      vertex -0.487726 10.451963 23.000000
    endloop
  endfacet
  facet normal -0.382683 0.923880 0.000000
    outer loop
      vertex -0.487726 10.451963 20.500000
      vertex -1.388926 10.078674 20.500000
      vertex -1.388926 10.078674 23.000000
    endloop
  endfacet
  facet normal 0.000000 1.000000 0.000000
    outer loop
      vertex -0.487726 10.451963 20.500000
      vertex 0.487726 10.451963 23.000000
      vertex 0.487726 10.451963 20.500000
    endloop
  endfacet
  facet normal 0.000000 1.000000 0.000000
    outer loop
      vertex -0.487726 10.451963 20.500000
      vertex -0.487726 10.451963 23.000000
      vertex 0.487726 10.451963 23.000000
    endloop
  endfacet
  facet normal 0.382683 0.923880 0.000000
    outer loop
      vertex 0.487726 10.451963 20.500000
      vertex 1.388926 10.078674 23.000000
      vertex 1.388926 10.078674 20.500000
    endloop
  endfacet
  facet normal 0.382683 0.923880 0.000000
    outer loop
      vertex 0.487726 10.451963 20.500000
      vertex 0.487726 10.451963 23.000000
      vertex 1.388926 10.078674 23.000000
    endloop
  endfacet
  facet normal 0.707107 0.707107 0.000000
    outer loop
      vertex 2.078674 9.388926 29.000000
      vertex 1.967600 9.500000 23.000000
      vertex 1.967600 9.500000 29.000000
    endloop
  endfacet
  facet normal 0.707107 0.707107 0.000000
    outer loop
      vertex 1.388926 10.078674 20.500000
      vertex 1.388926 10.078674 23.000000
      vertex 1.967600 9.500000 23.000000
    endloop
  endfacet
  facet normal 0.707107 0.707107 0.000000
    outer loop
      vertex 2.078674 9.388926 20.500000
      vertex 1.388926 10.078674 20.500000
      vertex 1.967600 9.500000 23.000000
    endloop
  endfacet
  facet normal 0.707107 0.707107 0.000000
    outer loop
      vertex 2.078674 9.388926 29.000000
      vertex 2.078674 9.388926 20.500000
      vertex 1.967600 9.500000 23.000000
    endloop
  endfacet
  facet normal 0.923880 0.382683 0.000000
    outer loop
      vertex 2.078674 9.388926 20.500000
      vertex 2.451963 8.487726 29.000000
      vertex 2.451963 8.487726 20.500000
    endloop
  endfacet
  facet normal 0.923880 0.382683 0.000000
    outer loop
      vertex 2.078674 9.388926 20.500000
      vertex 2.078674 9.388926 29.000000
      vertex 2.451963 8.487726 29.000000
    endloop
  endfacet
  facet normal 1.000000 0.000000 0.000000
    outer loop
      vertex 2.451963 8.487726 29.000000
      vertex 2.451963 7.512274 20.500000
      vertex 2.451963 8.487726 20.500000
    endloop
  endfacet
  facet normal 1.000000 0.000000 0.000000
    outer loop
      vertex 2.451963 8.487726 29.000000
      vertex 2.451963 7.512274 29.000000
      vertex 2.451963 7.512274 20.500000
    endloop
  endfacet
  facet normal 0.923880 -0.382683 0.000000
    outer loop
      vertex 2.451963 7.512274 29.000000
      vertex 2.078674 6.611074 20.500000
      vertex 2.451963 7.512274 20.500000
    endloop
  endfacet
  facet normal 0.923880 -0.382683 0.000000
    outer loop
      vertex 2.451963 7.512274 29.000000
      vertex 2.078674 6.611074 29.000000
      vertex 2.078674 6.611074 20.500000
    endloop
  endfacet
  facet normal 0.707107 -0.707107 0.000000
    outer loop
      vertex 1.388926 5.921326 20.500000
      vertex 1.967600 6.500000 23.000000
      vertex 1.388926 5.921326 23.000000
    endloop
  endfacet
  facet normal 0.707107 -0.707107 0.000000
    outer loop
      vertex 2.078674 6.611074 29.000000
      vertex 1.967600 6.500000 29.000000
      vertex 1.967600 6.500000 23.000000
    endloop
  endfacet
  facet normal 0.707107 -0.707107 0.000000
    outer loop
      vertex 2.078674 6.611074 20.500000
      vertex 2.078674 6.611074 29.000000
      vertex 1.967600 6.500000 23.000000
    endloop
  endfacet
  facet normal 0.707107 -0.707107 0.000000
    outer loop
      vertex 1.388926 5.921326 20.500000
      vertex 2.078674 6.611074 20.500000
      vertex 1.967600 6.500000 23.000000
    endloop
  endfacet
  facet normal 0.382683 -0.923880 0.000000
    outer loop
      vertex 1.388926 5.921326 23.000000
      vertex 0.487726 5.548037 20.500000
      vertex 1.388926 5.921326 20.500000
    endloop
  endfacet
  facet normal 0.382683 -0.923880 0.000000
    outer loop
      vertex 1.388926 5.921326 23.000000
      vertex 0.487726 5.548037 23.000000
      vertex 0.487726 5.548037 20.500000
    endloop
  endfacet
  facet normal 0.000000 0.000000 1.000000
    outer loop
      vertex 0.487726 5.548037 23.000000
      vertex 1.388926 5.921326 23.000000
      vertex -0.487726 5.548037 23.000000
    endloop
  endfacet
  facet normal 0.000000 0.000000 1.000000
    outer loop
      vertex 1.967600 9.500000 23.000000
      vertex 1.388926 10.078674 23.000000
      vertex -1.967600 9.500000 23.000000
    endloop
  endfacet
  facet normal 0.000000 0.000000 1.000000
    outer loop
      vertex -1.967600 6.500000 23.000000
      vertex -1.388926 5.921326 23.000000
      vertex -0.487726 5.548037 23.000000
    endloop
  endfacet
  facet normal 0.000000 0.000000 1.000000
    outer loop
      vertex 1.967600 6.500000 23.000000
      vertex -1.967600 6.500000 23.000000
      vertex -0.487726 5.548037 23.000000
    endloop
  endfacet
  facet normal 0.000000 0.000000 1.000000
    outer loop
      vertex 1.388926 5.921326 23.000000
      vertex 1.967600 6.500000 23.000000
      vertex -0.487726 5.548037 23.000000
    endloop
  endfacet
  facet normal 0.000000 0.000000 1.000000
    outer loop
      vertex -0.487726 10.451963 23.000000
      vertex -1.388926 10.078674 23.000000
      vertex -1.967600 9.500000 23.000000
    endloop
  endfacet
  facet normal 0.000000 0.000000 1.000000
    outer loop
      vertex 0.487726 10.451963 23.000000
      vertex -0.487726 10.451963 23.000000
      vertex -1.967600 9.500000 23.000000
    endloop
  endfacet
  facet normal 0.000000 0.000000 1.000000
    outer loop
      vertex 1.388926 10.078674 23.000000
      vertex 0.487726 10.451963 23.000000
      vertex -1.967600 9.500000 23.000000
    endloop
  endfacet
  facet normal 0.000000 -1.000000 0.000000
    outer loop
      vertex 1.967600 6.500000 29.000000
      vertex -1.967600 6.500000 29.000000
      vertex 1.967600 6.500000 23.000000
    endloop
  endfacet
  facet normal 0.000000 -1.000000 0.000000
    outer loop
      vertex -1.967600 6.500000 29.000000
      vertex -1.967600 6.500000 23.000000
      vertex 1.967600 6.500000 23.000000
    endloop
  endfacet
  facet normal 0.000000 1.000000 0.000000
    outer loop
      vertex -1.967600 9.500000 23.000000
      vertex 1.967600 9.500000 29.000000
      vertex 1.967600 9.500000 23.000000
    endloop
  endfacet
  facet normal 0.000000 1.000000 0.000000
    outer loop
      vertex -1.967600 9.500000 23.000000
      vertex -1.967600 9.500000 29.000000
      vertex 1.967600 9.500000 29.000000
    endloop
  endfacet
  facet normal 0.000000 0.000000 1.000000
    outer loop
      vertex -2.078674 6.611074 29.000000
      vertex -2.451963 8.487726 29.000000
      vertex -2.451963 7.512274 29.000000
    endloop
  endfacet
  facet normal 0.000000 0.000000 1.000000
    outer loop
      vertex -1.967600 9.500000 29.000000
      vertex -2.078674 9.388926 29.000000
      vertex -2.451963 8.487726 29.000000
    endloop
  endfacet
  facet normal 0.000000 0.000000 1.000000
    outer loop
      vertex 1.967600 9.500000 29.000000
      vertex -1.967600 9.500000 29.000000
      vertex -2.451963 8.487726 29.000000
    endloop
  endfacet
  facet normal 0.000000 0.000000 1.000000
    outer loop
      vertex 2.078674 9.388926 29.000000
      vertex 1.967600 9.500000 29.000000
      vertex -2.451963 8.487726 29.000000
    endloop
  endfacet
  facet normal 0.000000 0.000000 1.000000
    outer loop
      vertex 2.451963 8.487726 29.000000
      vertex 2.078674 9.388926 29.000000
      vertex -2.451963 8.487726 29.000000
    endloop
  endfacet
  facet normal 0.000000 0.000000 1.000000
    outer loop
      vertex 2.451963 7.512274 29.000000
      vertex 2.451963 8.487726 29.000000
      vertex -2.451963 8.487726 29.000000
    endloop
  endfacet
  facet normal 0.000000 0.000000 1.000000
    outer loop
      vertex 2.078674 6.611074 29.000000
      vertex 2.451963 7.512274 29.000000
      vertex -2.451963 8.487726 29.000000
    endloop
  endfacet
  facet normal 0.000000 0.000000 1.000000
    outer loop
      vertex 1.967600 6.500000 29.000000
      vertex 2.078674 6.611074 29.000000
      vertex -2.451963 8.487726 29.000000
    endloop
  endfacet
  facet normal 0.000000 0.000000 1.000000
    outer loop
      vertex -1.967600 6.500000 29.000000
      vertex 1.967600 6.500000 29.000000
      vertex -2.451963 8.487726 29.000000
    endloop
  endfacet
  facet normal 0.000000 0.000000 1.000000
    outer loop
      vertex -2.078674 6.611074 29.000000
      vertex -1.967600 6.500000 29.000000
      vertex -2.451963 8.487726 29.000000
    endloop
  endfacet
  facet normal 0.382683 -0.923880 0.000000
    outer loop
      vertex 19.444496 -2.910144 19.000000
      vertex 18.182816 -3.432748 18.000000
      vertex 19.444496 -2.910144 18.000000
    endloop
  endfacet
  facet normal 0.382683 -0.923880 0.000000
    outer loop
      vertex 19.444496 -2.910144 19.000000
      vertex 18.182816 -3.432748 19.000000
      vertex 18.182816 -3.432748 18.000000
    endloop
  endfacet
  facet normal 0.707107 -0.707107 0.000000
    outer loop
      vertex 20.410144 -1.944496 19.000000
      vertex 19.444496 -2.910144 18.000000
      vertex 20.410144 -1.944496 18.000000
    endloop
  endfacet
  facet normal 0.707107 -0.707107 0.000000
    outer loop
      vertex 20.410144 -1.944496 19.000000
      vertex 19.444496 -2.910144 19.000000
      vertex 19.444496 -2.910144 18.000000
    endloop
  endfacet
  facet normal 0.923880 -0.382683 0.000000
    outer loop
      vertex 20.932748 -0.682816 19.000000
      vertex 20.410144 -1.944496 18.000000
      vertex 20.932748 -0.682816 18.000000
    endloop
  endfacet
  facet normal 0.923880 -0.382683 0.000000
    outer loop
      vertex 20.932748 -0.682816 19.000000
      vertex 20.410144 -1.944496 19.000000
      vertex 20.410144 -1.944496 18.000000
    endloop
  endfacet
  facet normal 1.000000 0.000000 0.000000
    outer loop
      vertex 20.932748 0.682816 19.000000
      vertex 20.932748 -0.682816 18.000000
      vertex 20.932748 0.682816 18.000000
    endloop
  endfacet
  facet normal 1.000000 0.000000 0.000000
    outer loop
      vertex 20.932748 0.682816 19.000000
      vertex 20.932748 -0.682816 19.000000
      vertex 20.932748 -0.682816 18.000000
    endloop
  endfacet
  facet normal 0.923880 0.382683 0.000000
    outer loop
      vertex 20.410144 1.944496 18.000000
      vertex 20.932748 0.682816 19.000000
      vertex 20.932748 0.682816 18.000000
    endloop
  endfacet
  facet normal 0.923880 0.382683 0.000000
    outer loop
      vertex 20.410144 1.944496 18.000000
      vertex 20.410144 1.944496 19.000000
      vertex 20.932748 0.682816 19.000000
    endloop
  endfacet
  facet normal 0.707107 0.707107 0.000000
    outer loop
      vertex 19.444496 2.910144 18.000000
      vertex 20.410144 1.944496 19.000000
      vertex 20.410144 1.944496 18.000000
    endloop
  endfacet
  facet normal 0.707107 0.707107 0.000000
    outer loop
      vertex 19.444496 2.910144 18.000000
      vertex 19.444496 2.910144 19.000000
      vertex 20.410144 1.944496 19.000000
    endloop
  endfacet
  facet normal 0.382683 0.923880 0.000000
    outer loop
      vertex 18.182816 3.432748 18.000000
      vertex 19.444496 2.910144 19.000000
      vertex 19.444496 2.910144 18.000000
    endloop
  endfacet
  facet normal 0.382683 0.923880 0.000000
    outer loop
      vertex 18.182816 3.432748 18.000000
      vertex 18.182816 3.432748 19.000000
      vertex 19.444496 2.910144 19.000000
    endloop
  endfacet
  facet normal 0.000000 1.000000 0.000000
    outer loop
      vertex 17.500000 3.432748 18.000000
      vertex 18.182816 3.432748 19.000000
      vertex 18.182816 3.432748 18.000000
    endloop
  endfacet
  facet normal 0.000000 1.000000 0.000000
    outer loop
      vertex 17.500000 3.432748 18.000000
      vertex 17.500000 3.432748 19.000000
      vertex 18.182816 3.432748 19.000000
    endloop
  endfacet
  facet normal -0.000000 -1.000000 0.000000
    outer loop
      vertex 18.182816 -3.432748 19.000000
      vertex 17.500000 -3.432748 19.000000
      vertex 18.182816 -3.432748 18.000000
    endloop
  endfacet
  facet normal -0.000000 -1.000000 0.000000
    outer loop
      vertex 17.500000 -3.432748 19.000000
      vertex 17.500000 -3.432748 18.000000
      vertex 18.182816 -3.432748 18.000000
    endloop
  endfacet
  facet normal 0.000000 0.000000 -1.000000
    outer loop
      vertex -18.182816 -3.432748 18.000000
      vertex -17.090310 -2.059649 18.000000
      vertex -16.333303 -1.746086 18.000000
    endloop
  endfacet
  facet normal 0.000000 0.000000 -1.000000
    outer loop
      vertex 20.410144 -1.944496 18.000000
      vertex 18.666697 -1.746086 18.000000
      vertex 20.932748 -0.682816 18.000000
    endloop
  endfacet
  facet normal 0.000000 0.000000 -1.000000
    outer loop
      vertex -17.500000 -3.432748 18.000000
      vertex -18.182816 -3.432748 18.000000
      vertex -16.333303 -1.746086 18.000000
    endloop
  endfacet
  facet normal 0.000000 0.000000 -1.000000
    outer loop
      vertex -17.500000 -3.500000 18.000000
      vertex -17.500000 -3.432748 18.000000
      vertex -16.333303 -1.746086 18.000000
    endloop
  endfacet
  facet normal 0.000000 0.000000 -1.000000
    outer loop
      vertex -13.412573 -3.500000 18.000000
      vertex -17.500000 -3.500000 18.000000
      vertex -16.333303 -1.746086 18.000000
    endloop
  endfacet
  facet normal 0.000000 0.000000 -1.000000
    outer loop
      vertex -13.730994 -2.731265 18.000000
      vertex -13.412573 -3.500000 18.000000
      vertex -16.333303 -1.746086 18.000000
    endloop
  endfacet
  facet normal 0.000000 0.000000 -1.000000
    outer loop
      vertex -13.730994 -2.731265 18.000000
      vertex -16.333303 -1.746086 18.000000
      vertex -15.753914 -1.166697 18.000000
    endloop
  endfacet
  facet normal 0.000000 0.000000 -1.000000
    outer loop
      vertex -13.730994 2.731265 18.000000
      vertex -13.730994 -2.731265 18.000000
      vertex -15.753914 -1.166697 18.000000
    endloop
  endfacet
  facet normal 0.000000 0.000000 -1.000000
    outer loop
      vertex -13.412573 3.500000 18.000000
      vertex -13.730994 2.731265 18.000000
      vertex -15.753914 -1.166697 18.000000
    endloop
  endfacet
  facet normal 0.000000 0.000000 -1.000000
    outer loop
      vertex -13.412573 3.500000 18.000000
      vertex -15.753914 -1.166697 18.000000
      vertex -15.440351 -0.409690 18.000000
    endloop
  endfacet
  facet normal 0.000000 0.000000 -1.000000
    outer loop
      vertex -13.412573 3.500000 18.000000
      vertex -15.440351 -0.409690 18.000000
      vertex -15.440351 0.409690 18.000000
    endloop
  endfacet
  facet normal 0.000000 0.000000 -1.000000
    outer loop
      vertex -13.412573 3.500000 18.000000
      vertex -15.440351 0.409690 18.000000
      vertex -15.753914 1.166697 18.000000
    endloop
  endfacet
  facet normal 0.000000 0.000000 -1.000000
    outer loop
      vertex -17.500000 3.500000 18.000000
      vertex -13.412573 3.500000 18.000000
      vertex -15.753914 1.166697 18.000000
    endloop
  endfacet
  facet normal 0.000000 0.000000 -1.000000
    outer loop
      vertex -17.500000 3.432748 18.000000
      vertex -17.500000 3.500000 18.000000
      vertex -15.753914 1.166697 18.000000
    endloop
  endfacet
  facet normal 0.000000 0.000000 -1.000000
    outer loop
      vertex -17.500000 3.432748 18.000000
      vertex -15.753914 1.166697 18.000000
      vertex -16.333303 1.746086 18.000000
    endloop
  endfacet
  facet normal 0.000000 0.000000 -1.000000
    outer loop
      vertex -18.182816 3.432748 18.000000
      vertex -17.500000 3.432748 18.000000
      vertex -16.333303 1.746086 18.000000
    endloop
  endfacet
  facet normal 0.000000 0.000000 -1.000000
    outer loop
      vertex -18.182816 3.432748 18.000000
      vertex -16.333303 1.746086 18.000000
      vertex -17.090310 2.059649 18.000000
    endloop
  endfacet
  facet normal 0.000000 0.000000 -1.000000
    outer loop
      vertex -19.444496 2.910144 18.000000
      vertex -18.182816 3.432748 18.000000
      vertex -17.090310 2.059649 18.000000
    endloop
  endfacet
  facet normal 0.000000 0.000000 -1.000000
    outer loop
      vertex -19.444496 2.910144 18.000000
      vertex -17.090310 2.059649 18.000000
      vertex -17.909690 2.059649 18.000000
    endloop
  endfacet
  facet normal 0.000000 0.000000 -1.000000
    outer loop
      vertex -20.410144 1.944496 18.000000
      vertex -19.444496 2.910144 18.000000
      vertex -17.909690 2.059649 18.000000
    endloop
  endfacet
  facet normal 0.000000 0.000000 -1.000000
    outer loop
      vertex -20.410144 1.944496 18.000000
      vertex -17.909690 2.059649 18.000000
      vertex -18.666697 1.746086 18.000000
    endloop
  endfacet
  facet normal 0.000000 0.000000 -1.000000
    outer loop
      vertex -20.932748 0.682816 18.000000
      vertex -20.410144 1.944496 18.000000
      vertex -18.666697 1.746086 18.000000
    endloop
  endfacet
  facet normal 0.000000 0.000000 -1.000000
    outer loop
      vertex -20.932748 0.682816 18.000000
      vertex -18.666697 1.746086 18.000000
      vertex -19.246086 1.166697 18.000000
    endloop
  endfacet
  facet normal 0.000000 0.000000 -1.000000
    outer loop
      vertex -20.932748 -0.682816 18.000000
      vertex -20.932748 0.682816 18.000000
      vertex -19.246086 1.166697 18.000000
    endloop
  endfacet
  facet normal 0.000000 0.000000 -1.000000
    outer loop
      vertex -20.932748 -0.682816 18.000000
      vertex -19.246086 1.166697 18.000000
      vertex -19.559649 0.409690 18.000000
    endloop
  endfacet
  facet normal 0.000000 0.000000 -1.000000
    outer loop
      vertex -20.410144 -1.944496 18.000000
      vertex -20.932748 -0.682816 18.000000
      vertex -19.559649 0.409690 18.000000
    endloop
  endfacet
  facet normal 0.000000 0.000000 -1.000000
    outer loop
      vertex -20.410144 -1.944496 18.000000
      vertex -19.559649 0.409690 18.000000
      vertex -19.559649 -0.409690 18.000000
    endloop
  endfacet
  facet normal 0.000000 0.000000 -1.000000
    outer loop
      vertex -19.444496 -2.910144 18.000000
      vertex -20.410144 -1.944496 18.000000
      vertex -19.559649 -0.409690 18.000000
    endloop
  endfacet
  facet normal 0.000000 0.000000 -1.000000
    outer loop
      vertex -19.444496 -2.910144 18.000000
      vertex -19.559649 -0.409690 18.000000
      vertex -19.246086 -1.166697 18.000000
    endloop
  endfacet
  facet normal 0.000000 0.000000 -1.000000
    outer loop
      vertex -18.182816 -3.432748 18.000000
      vertex -19.444496 -2.910144 18.000000
      vertex -19.246086 -1.166697 18.000000
    endloop
  endfacet
  facet normal 0.000000 0.000000 -1.000000
    outer loop
      vertex -18.182816 -3.432748 18.000000
      vertex -19.246086 -1.166697 18.000000
      vertex -18.666697 -1.746086 18.000000
    endloop
  endfacet
  facet normal 0.000000 0.000000 -1.000000
    outer loop
      vertex -18.182816 -3.432748 18.000000
      vertex -18.666697 -1.746086 18.000000
      vertex -17.909690 -2.059649 18.000000
    endloop
  endfacet
  facet normal 0.000000 0.000000 -1.000000
    outer loop
      vertex -18.182816 -3.432748 18.000000
      vertex -17.909690 -2.059649 18.000000
      vertex -17.090310 -2.059649 18.000000
    endloop
  endfacet
  facet normal 0.000000 0.000000 -1.000000
    outer loop
      vertex 13.730994 2.731265 18.000000
      vertex 13.412573 3.500000 18.000000
      vertex 17.500000 3.500000 18.000000
    endloop
  endfacet
  facet normal 0.000000 0.000000 -1.000000
    outer loop
      vertex 13.730994 2.731265 18.000000
      vertex 17.500000 3.500000 18.000000
      vertex 17.500000 3.432748 18.000000
    endloop
  endfacet
  facet normal 0.000000 0.000000 -1.000000
    outer loop
      vertex 13.730994 2.731265 18.000000
      vertex 17.500000 3.432748 18.000000
      vertex 18.182816 3.432748 18.000000
    endloop
  endfacet
  facet normal 0.000000 0.000000 -1.000000
    outer loop
      vertex 13.730994 2.731265 18.000000
      vertex 18.182816 3.432748 18.000000
      vertex 19.444496 2.910144 18.000000
    endloop
  endfacet
  facet normal 0.000000 0.000000 -1.000000
    outer loop
      vertex 13.730994 2.731265 18.000000
      vertex 19.444496 2.910144 18.000000
      vertex 20.410144 1.944496 18.000000
    endloop
  endfacet
  facet normal 0.000000 0.000000 -1.000000
    outer loop
      vertex 20.410144 1.944496 18.000000
      vertex 20.932748 0.682816 18.000000
      vertex 20.932748 -0.682816 18.000000
    endloop
  endfacet
  facet normal 0.000000 0.000000 -1.000000
    outer loop
      vertex 20.932748 -0.682816 18.000000
      vertex 18.666697 -1.746086 18.000000
      vertex 19.246086 -1.166697 18.000000
    endloop
  endfacet
  facet normal 0.000000 0.000000 -1.000000
    outer loop
      vertex 20.932748 -0.682816 18.000000
      vertex 19.246086 -1.166697 18.000000
      vertex 19.559649 -0.409690 18.000000
    endloop
  endfacet
  facet normal 0.000000 0.000000 -1.000000
    outer loop
      vertex 20.410144 1.944496 18.000000
      vertex 20.932748 -0.682816 18.000000
      vertex 19.559649 -0.409690 18.000000
    endloop
  endfacet
  facet normal 0.000000 0.000000 -1.000000
    outer loop
      vertex 20.410144 1.944496 18.000000
      vertex 19.559649 -0.409690 18.000000
      vertex 19.559649 0.409690 18.000000
    endloop
  endfacet
  facet normal 0.000000 0.000000 -1.000000
    outer loop
      vertex 20.410144 1.944496 18.000000
      vertex 19.559649 0.409690 18.000000
      vertex 19.246086 1.166697 18.000000
    endloop
  endfacet
  facet normal 0.000000 0.000000 -1.000000
    outer loop
      vertex 20.410144 1.944496 18.000000
      vertex 19.246086 1.166697 18.000000
      vertex 18.666697 1.746086 18.000000
    endloop
  endfacet
  facet normal 0.000000 0.000000 -1.000000
    outer loop
      vertex 20.410144 1.944496 18.000000
      vertex 18.666697 1.746086 18.000000
      vertex 17.909690 2.059649 18.000000
    endloop
  endfacet
  facet normal 0.000000 0.000000 -1.000000
    outer loop
      vertex 13.730994 2.731265 18.000000
      vertex 20.410144 1.944496 18.000000
      vertex 17.909690 2.059649 18.000000
    endloop
  endfacet
  facet normal 0.000000 0.000000 -1.000000
    outer loop
      vertex 13.730994 2.731265 18.000000
      vertex 17.909690 2.059649 18.000000
      vertex 17.090310 2.059649 18.000000
    endloop
  endfacet
  facet normal 0.000000 0.000000 -1.000000
    outer loop
      vertex 13.730994 2.731265 18.000000
      vertex 17.090310 2.059649 18.000000
      vertex 16.333303 1.746086 18.000000
    endloop
  endfacet
  facet normal 0.000000 0.000000 -1.000000
    outer loop
      vertex 13.730994 2.731265 18.000000
      vertex 16.333303 1.746086 18.000000
      vertex 15.753914 1.166697 18.000000
    endloop
  endfacet
  facet normal 0.000000 0.000000 -1.000000
    outer loop
      vertex 13.730994 -2.731265 18.000000
      vertex 13.730994 2.731265 18.000000
      vertex 15.753914 1.166697 18.000000
    endloop
  endfacet
  facet normal 0.000000 0.000000 -1.000000
    outer loop
      vertex 13.412573 -3.500000 18.000000
      vertex 13.730994 -2.731265 18.000000
      vertex 15.753914 1.166697 18.000000
    endloop
  endfacet
  facet normal 0.000000 0.000000 -1.000000
    outer loop
      vertex 13.412573 -3.500000 18.000000
      vertex 15.753914 1.166697 18.000000
      vertex 15.440351 0.409690 18.000000
    endloop
  endfacet
  facet normal 0.000000 0.000000 -1.000000
    outer loop
      vertex 13.412573 -3.500000 18.000000
      vertex 15.440351 0.409690 18.000000
      vertex 15.440351 -0.409690 18.000000
    endloop
  endfacet
  facet normal 0.000000 0.000000 -1.000000
    outer loop
      vertex 13.412573 -3.500000 18.000000
      vertex 15.440351 -0.409690 18.000000
      vertex 15.753914 -1.166697 18.000000
    endloop
  endfacet
  facet normal 0.000000 0.000000 -1.000000
    outer loop
      vertex 17.500000 -3.500000 18.000000
      vertex 13.412573 -3.500000 18.000000
      vertex 15.753914 -1.166697 18.000000
    endloop
  endfacet
  facet normal 0.000000 0.000000 -1.000000
    outer loop
      vertex 17.500000 -3.432748 18.000000
      vertex 17.500000 -3.500000 18.000000
      vertex 15.753914 -1.166697 18.000000
    endloop
  endfacet
  facet normal 0.000000 0.000000 -1.000000
    outer loop
      vertex 17.500000 -3.432748 18.000000
      vertex 15.753914 -1.166697 18.000000
      vertex 16.333303 -1.746086 18.000000
    endloop
  endfacet
  facet normal 0.000000 0.000000 -1.000000
    outer loop
      vertex 18.182816 -3.432748 18.000000
      vertex 17.500000 -3.432748 18.000000
      vertex 16.333303 -1.746086 18.000000
    endloop
  endfacet
  facet normal 0.000000 0.000000 -1.000000
    outer loop
      vertex 18.182816 -3.432748 18.000000
      vertex 16.333303 -1.746086 18.000000
      vertex 17.090310 -2.059649 18.000000
    endloop
  endfacet
  facet normal 0.000000 0.000000 -1.000000
    outer loop
      vertex 19.444496 -2.910144 18.000000
      vertex 18.182816 -3.432748 18.000000
      vertex 17.090310 -2.059649 18.000000
    endloop
  endfacet
  facet normal 0.000000 0.000000 -1.000000
    outer loop
      vertex 19.444496 -2.910144 18.000000
      vertex 17.090310 -2.059649 18.000000
      vertex 17.909690 -2.059649 18.000000
    endloop
  endfacet
  facet normal 0.000000 0.000000 -1.000000
    outer loop
      vertex 20.410144 -1.944496 18.000000
      vertex 19.444496 -2.910144 18.000000
      vertex 17.909690 -2.059649 18.000000
    endloop
  endfacet
  facet normal 0.000000 0.000000 -1.000000
    outer loop
      vertex 20.410144 -1.944496 18.000000
      vertex 17.909690 -2.059649 18.000000
      vertex 18.666697 -1.746086 18.000000
    endloop
  endfacet
  facet normal 0.000000 1.000000 0.000000
    outer loop
      vertex -18.182816 3.432748 18.000000
      vertex -17.500000 3.432748 19.000000
      vertex -17.500000 3.432748 18.000000
    endloop
  endfacet
  facet normal 0.000000 1.000000 0.000000
    outer loop
      vertex -18.182816 3.432748 18.000000
      vertex -18.182816 3.432748 19.000000
      vertex -17.500000 3.432748 19.000000
    endloop
  endfacet
  facet normal -0.382683 0.923880 0.000000
    outer loop
      vertex -18.182816 3.432748 18.000000
      vertex -19.444496 2.910144 19.000000
      vertex -18.182816 3.432748 19.000000
    endloop
  endfacet
  facet normal -0.382683 0.923880 0.000000
    outer loop
      vertex -18.182816 3.432748 18.000000
      vertex -19.444496 2.910144 18.000000
      vertex -19.444496 2.910144 19.000000
    endloop
  endfacet
  facet normal -0.707107 0.707107 0.000000
    outer loop
      vertex -19.444496 2.910144 18.000000
      vertex -20.410144 1.944496 19.000000
      vertex -19.444496 2.910144 19.000000
    endloop
  endfacet
  facet normal -0.707107 0.707107 0.000000
    outer loop
      vertex -19.444496 2.910144 18.000000
      vertex -20.410144 1.944496 18.000000
      vertex -20.410144 1.944496 19.000000
    endloop
  endfacet
  facet normal -0.923880 0.382683 0.000000
    outer loop
      vertex -20.410144 1.944496 18.000000
      vertex -20.932748 0.682816 19.000000
      vertex -20.410144 1.944496 19.000000
    endloop
  endfacet
  facet normal -0.923880 0.382683 0.000000
    outer loop
      vertex -20.410144 1.944496 18.000000
      vertex -20.932748 0.682816 18.000000
      vertex -20.932748 0.682816 19.000000
    endloop
  endfacet
  facet normal -1.000000 0.000000 0.000000
    outer loop
      vertex -20.932748 0.682816 18.000000
      vertex -20.932748 -0.682816 19.000000
      vertex -20.932748 0.682816 19.000000
    endloop
  endfacet
  facet normal -1.000000 0.000000 0.000000
    outer loop
      vertex -20.932748 0.682816 18.000000
      vertex -20.932748 -0.682816 18.000000
      vertex -20.932748 -0.682816 19.000000
    endloop
  endfacet
  facet normal -0.923880 -0.382683 0.000000
    outer loop
      vertex -20.410144 -1.944496 19.000000
      vertex -20.932748 -0.682816 19.000000
      vertex -20.410144 -1.944496 18.000000
    endloop
  endfacet
  facet normal -0.923880 -0.382683 0.000000
    outer loop
      vertex -20.932748 -0.682816 19.000000
      vertex -20.932748 -0.682816 18.000000
      vertex -20.410144 -1.944496 18.000000
    endloop
  endfacet
  facet normal -0.707107 -0.707107 0.000000
    outer loop
      vertex -19.444496 -2.910144 19.000000
      vertex -20.410144 -1.944496 19.000000
      vertex -19.444496 -2.910144 18.000000
    endloop
  endfacet
  facet normal -0.707107 -0.707107 0.000000
    outer loop
      vertex -20.410144 -1.944496 19.000000
      vertex -20.410144 -1.944496 18.000000
      vertex -19.444496 -2.910144 18.000000
    endloop
  endfacet
  facet normal -0.382683 -0.923880 0.000000
    outer loop
      vertex -18.182816 -3.432748 19.000000
      vertex -19.444496 -2.910144 19.000000
      vertex -18.182816 -3.432748 18.000000
    endloop
  endfacet
  facet normal -0.382683 -0.923880 0.000000
    outer loop
      vertex -19.444496 -2.910144 19.000000
      vertex -19.444496 -2.910144 18.000000
      vertex -18.182816 -3.432748 18.000000
    endloop
  endfacet
  facet normal -0.000000 -1.000000 0.000000
    outer loop
      vertex -17.500000 -3.432748 19.000000
      vertex -18.182816 -3.432748 19.000000
      vertex -17.500000 -3.432748 18.000000
    endloop
  endfacet
  facet normal -0.000000 -1.000000 0.000000
    outer loop
      vertex -18.182816 -3.432748 19.000000
      vertex -18.182816 -3.432748 18.000000
      vertex -17.500000 -3.432748 18.000000
    endloop
  endfacet
  facet normal 0.000000 1.000000 0.000000
    outer loop
      vertex -17.500000 3.500000 18.000000
      vertex -13.412573 3.500000 19.000000
      vertex -13.412573 3.500000 18.000000
    endloop
  endfacet
  facet normal 0.000000 1.000000 0.000000
    outer loop
      vertex 13.412573 3.500000 18.000000
      vertex 17.500000 3.500000 19.000000
      vertex 17.500000 3.500000 18.000000
    endloop
  endfacet
  facet normal 0.000000 1.000000 0.000000
    outer loop
      vertex -17.500000 3.500000 18.000000
      vertex -17.500000 3.500000 19.000000
      vertex -13.412573 3.500000 19.000000
    endloop
  endfacet
  facet normal 0.000000 1.000000 0.000000
    outer loop
      vertex 13.412573 3.500000 18.000000
      vertex 13.412573 3.500000 19.000000
      vertex 17.500000 3.500000 19.000000
    endloop
  endfacet
  facet normal 0.000000 -1.000000 0.000000
    outer loop
      vertex 13.412573 -3.500000 19.000000
      vertex 17.500000 -3.500000 18.000000
      vertex 17.500000 -3.500000 19.000000
    endloop
  endfacet
  facet normal 0.000000 -1.000000 0.000000
    outer loop
      vertex -13.412573 -3.500000 19.000000
      vertex -17.500000 -3.500000 19.000000
      vertex -13.412573 -3.500000 18.000000
    endloop
  endfacet
  facet normal 0.000000 -1.000000 0.000000
    outer loop
      vertex 13.412573 -3.500000 19.000000
      vertex 13.412573 -3.500000 18.000000
      vertex 17.500000 -3.500000 18.000000
    endloop
  endfacet
  facet normal 0.000000 -1.000000 0.000000
    outer loop
      vertex -17.500000 -3.500000 19.000000
      vertex -17.500000 -3.500000 18.000000
      vertex -13.412573 -3.500000 18.000000
    endloop
  endfacet
  facet normal -1.000000 0.000000 0.000000
    outer loop
      vertex -17.500000 -3.432748 18.000000
      vertex -17.500000 -3.500000 19.000000
      vertex -17.500000 -3.432748 19.000000
    endloop
  endfacet
  facet normal -1.000000 0.000000 0.000000
    outer loop
      vertex -17.500000 3.500000 18.000000
      vertex -17.500000 3.432748 19.000000
      vertex -17.500000 3.500000 19.000000
    endloop
  endfacet
  facet normal -1.000000 0.000000 0.000000
    outer loop
      vertex -17.500000 -3.432748 18.000000
      vertex -17.500000 -3.500000 18.000000
      vertex -17.500000 -3.500000 19.000000
    endloop
  endfacet
  facet normal -1.000000 0.000000 0.000000
    outer loop
      vertex -17.500000 3.500000 18.000000
      vertex -17.500000 3.432748 18.000000
      vertex -17.500000 3.432748 19.000000
    endloop
  endfacet
  facet normal 1.000000 -0.000000 0.000000
    outer loop
      vertex 17.500000 3.500000 19.000000
      vertex 17.500000 3.432748 18.000000
      vertex 17.500000 3.500000 18.000000
    endloop
  endfacet
  facet normal 1.000000 -0.000000 0.000000
    outer loop
      vertex 17.500000 -3.432748 18.000000
      vertex 17.500000 -3.432748 19.000000
      vertex 17.500000 -3.500000 18.000000
    endloop
  endfacet
  facet normal 1.000000 -0.000000 0.000000
    outer loop
      vertex 17.500000 3.500000 19.000000
      vertex 17.500000 3.432748 19.000000
      vertex 17.500000 3.432748 18.000000
    endloop
  endfacet
  facet normal 1.000000 -0.000000 0.000000
    outer loop
      vertex 17.500000 -3.432748 19.000000
      vertex 17.500000 -3.500000 19.000000
      vertex 17.500000 -3.500000 18.000000
    endloop
  endfacet
  facet normal 0.000000 1.000000 -0.000000
    outer loop
      vertex -17.909690 -2.059649 18.000000
      vertex -17.090310 -2.059649 19.000000
      vertex -17.090310 -2.059649 18.000000
    endloop
  endfacet
  facet normal 0.000000 1.000000 -0.000000
    outer loop
      vertex -17.909690 -2.059649 18.000000
      vertex -17.909690 -2.059649 19.000000
      vertex -17.090310 -2.059649 19.000000
    endloop
  endfacet
  facet normal 0.382683 0.923880 -0.000000
    outer loop
      vertex -18.666697 -1.746086 18.000000
      vertex -17.909690 -2.059649 19.000000
      vertex -17.909690 -2.059649 18.000000
    endloop
  endfacet
  facet normal 0.382683 0.923880 -0.000000
    outer loop
      vertex -18.666697 -1.746086 18.000000
      vertex -18.666697 -1.746086 19.000000
      vertex -17.909690 -2.059649 19.000000
    endloop
  endfacet
  facet normal 0.707107 0.707107 -0.000000
    outer loop
      vertex -19.246086 -1.166697 18.000000
      vertex -18.666697 -1.746086 19.000000
      vertex -18.666697 -1.746086 18.000000
    endloop
  endfacet
  facet normal 0.707107 0.707107 -0.000000
    outer loop
      vertex -19.246086 -1.166697 18.000000
      vertex -19.246086 -1.166697 19.000000
      vertex -18.666697 -1.746086 19.000000
    endloop
  endfacet
  facet normal 0.923880 0.382683 -0.000000
    outer loop
      vertex -19.559649 -0.409690 18.000000
      vertex -19.246086 -1.166697 19.000000
      vertex -19.246086 -1.166697 18.000000
    endloop
  endfacet
  facet normal 0.923880 0.382683 -0.000000
    outer loop
      vertex -19.559649 -0.409690 18.000000
      vertex -19.559649 -0.409690 19.000000
      vertex -19.246086 -1.166697 19.000000
    endloop
  endfacet
  facet normal 1.000000 -0.000000 -0.000000
    outer loop
      vertex -19.559649 0.409690 19.000000
      vertex -19.559649 -0.409690 18.000000
      vertex -19.559649 0.409690 18.000000
    endloop
  endfacet
  facet normal 1.000000 -0.000000 -0.000000
    outer loop
      vertex -19.559649 0.409690 19.000000
      vertex -19.559649 -0.409690 19.000000
      vertex -19.559649 -0.409690 18.000000
    endloop
  endfacet
  facet normal 0.923880 -0.382683 -0.000000
    outer loop
      vertex -19.246086 1.166697 19.000000
      vertex -19.559649 0.409690 18.000000
      vertex -19.246086 1.166697 18.000000
    endloop
  endfacet
  facet normal 0.923880 -0.382683 -0.000000
    outer loop
      vertex -19.246086 1.166697 19.000000
      vertex -19.559649 0.409690 19.000000
      vertex -19.559649 0.409690 18.000000
    endloop
  endfacet
  facet normal 0.707107 -0.707107 -0.000000
    outer loop
      vertex -18.666697 1.746086 19.000000
      vertex -19.246086 1.166697 18.000000
      vertex -18.666697 1.746086 18.000000
    endloop
  endfacet
  facet normal 0.707107 -0.707107 -0.000000
    outer loop
      vertex -18.666697 1.746086 19.000000
      vertex -19.246086 1.166697 19.000000
      vertex -19.246086 1.166697 18.000000
    endloop
  endfacet
  facet normal 0.382683 -0.923880 -0.000000
    outer loop
      vertex -17.909690 2.059649 19.000000
      vertex -18.666697 1.746086 18.000000
      vertex -17.909690 2.059649 18.000000
    endloop
  endfacet
  facet normal 0.382683 -0.923880 -0.000000
    outer loop
      vertex -17.909690 2.059649 19.000000
      vertex -18.666697 1.746086 19.000000
      vertex -18.666697 1.746086 18.000000
    endloop
  endfacet
  facet normal -0.000000 -1.000000 -0.000000
    outer loop
      vertex -17.909690 2.059649 19.000000
      vertex -17.090310 2.059649 18.000000
      vertex -17.090310 2.059649 19.000000
    endloop
  endfacet
  facet normal -0.000000 -1.000000 -0.000000
    outer loop
      vertex -17.909690 2.059649 19.000000
      vertex -17.909690 2.059649 18.000000
      vertex -17.090310 2.059649 18.000000
    endloop
  endfacet
  facet normal -0.382683 -0.923880 -0.000000
    outer loop
      vertex -17.090310 2.059649 19.000000
      vertex -16.333303 1.746086 18.000000
      vertex -16.333303 1.746086 19.000000
    endloop
  endfacet
  facet normal -0.382683 -0.923880 -0.000000
    outer loop
      vertex -17.090310 2.059649 19.000000
      vertex -17.090310 2.059649 18.000000
      vertex -16.333303 1.746086 18.000000
    endloop
  endfacet
  facet normal -0.707107 -0.707107 -0.000000
    outer loop
      vertex -16.333303 1.746086 19.000000
      vertex -15.753914 1.166697 18.000000
      vertex -15.753914 1.166697 19.000000
    endloop
  endfacet
  facet normal -0.707107 -0.707107 -0.000000
    outer loop
      vertex -16.333303 1.746086 19.000000
      vertex -16.333303 1.746086 18.000000
      vertex -15.753914 1.166697 18.000000
    endloop
  endfacet
  facet normal -0.923880 -0.382683 -0.000000
    outer loop
      vertex -15.753914 1.166697 19.000000
      vertex -15.440351 0.409690 18.000000
      vertex -15.440351 0.409690 19.000000
    endloop
  endfacet
  facet normal -0.923880 -0.382683 -0.000000
    outer loop
      vertex -15.753914 1.166697 19.000000
      vertex -15.753914 1.166697 18.000000
      vertex -15.440351 0.409690 18.000000
    endloop
  endfacet
  facet normal -1.000000 -0.000000 -0.000000
    outer loop
      vertex -15.440351 0.409690 19.000000
      vertex -15.440351 0.409690 18.000000
      vertex -15.440351 -0.409690 19.000000
    endloop
  endfacet
  facet normal -1.000000 -0.000000 -0.000000
    outer loop
      vertex -15.440351 0.409690 18.000000
      vertex -15.440351 -0.409690 18.000000
      vertex -15.440351 -0.409690 19.000000
    endloop
  endfacet
  facet normal -0.923880 0.382683 -0.000000
    outer loop
      vertex -15.440351 -0.409690 19.000000
      vertex -15.440351 -0.409690 18.000000
      vertex -15.753914 -1.166697 19.000000
    endloop
  endfacet
  facet normal -0.923880 0.382683 -0.000000
    outer loop
      vertex -15.440351 -0.409690 18.000000
      vertex -15.753914 -1.166697 18.000000
      vertex -15.753914 -1.166697 19.000000
    endloop
  endfacet
  facet normal -0.707107 0.707107 -0.000000
    outer loop
      vertex -15.753914 -1.166697 19.000000
      vertex -15.753914 -1.166697 18.000000
      vertex -16.333303 -1.746086 19.000000
    endloop
  endfacet
  facet normal -0.707107 0.707107 -0.000000
    outer loop
      vertex -15.753914 -1.166697 18.000000
      vertex -16.333303 -1.746086 18.000000
      vertex -16.333303 -1.746086 19.000000
    endloop
  endfacet
  facet normal -0.382683 0.923880 -0.000000
    outer loop
      vertex -16.333303 -1.746086 19.000000
      vertex -16.333303 -1.746086 18.000000
      vertex -17.090310 -2.059649 19.000000
    endloop
  endfacet
  facet normal -0.382683 0.923880 -0.000000
    outer loop
      vertex -16.333303 -1.746086 18.000000
      vertex -17.090310 -2.059649 18.000000
      vertex -17.090310 -2.059649 19.000000
    endloop
  endfacet
  facet normal 0.000000 1.000000 -0.000000
    outer loop
      vertex 17.090310 -2.059649 18.000000
      vertex 17.909690 -2.059649 19.000000
      vertex 17.909690 -2.059649 18.000000
    endloop
  endfacet
  facet normal 0.000000 1.000000 -0.000000
    outer loop
      vertex 17.090310 -2.059649 18.000000
      vertex 17.090310 -2.059649 19.000000
      vertex 17.909690 -2.059649 19.000000
    endloop
  endfacet
  facet normal 0.382683 0.923880 -0.000000
    outer loop
      vertex 16.333303 -1.746086 18.000000
      vertex 17.090310 -2.059649 19.000000
      vertex 17.090310 -2.059649 18.000000
    endloop
  endfacet
  facet normal 0.382683 0.923880 -0.000000
    outer loop
      vertex 16.333303 -1.746086 18.000000
      vertex 16.333303 -1.746086 19.000000
      vertex 17.090310 -2.059649 19.000000
    endloop
  endfacet
  facet normal 0.707107 0.707107 -0.000000
    outer loop
      vertex 15.753914 -1.166697 18.000000
      vertex 16.333303 -1.746086 19.000000
      vertex 16.333303 -1.746086 18.000000
    endloop
  endfacet
  facet normal 0.707107 0.707107 -0.000000
    outer loop
      vertex 15.753914 -1.166697 18.000000
      vertex 15.753914 -1.166697 19.000000
      vertex 16.333303 -1.746086 19.000000
    endloop
  endfacet
  facet normal 0.923880 0.382683 -0.000000
    outer loop
      vertex 15.440351 -0.409690 18.000000
      vertex 15.753914 -1.166697 19.000000
      vertex 15.753914 -1.166697 18.000000
    endloop
  endfacet
  facet normal 0.923880 0.382683 -0.000000
    outer loop
      vertex 15.440351 -0.409690 18.000000
      vertex 15.440351 -0.409690 19.000000
      vertex 15.753914 -1.166697 19.000000
    endloop
  endfacet
  facet normal 1.000000 -0.000000 -0.000000
    outer loop
      vertex 15.440351 0.409690 19.000000
      vertex 15.440351 -0.409690 18.000000
      vertex 15.440351 0.409690 18.000000
    endloop
  endfacet
  facet normal 1.000000 -0.000000 -0.000000
    outer loop
      vertex 15.440351 0.409690 19.000000
      vertex 15.440351 -0.409690 19.000000
      vertex 15.440351 -0.409690 18.000000
    endloop
  endfacet
  facet normal 0.923880 -0.382683 -0.000000
    outer loop
      vertex 15.753914 1.166697 19.000000
      vertex 15.440351 0.409690 18.000000
      vertex 15.753914 1.166697 18.000000
    endloop
  endfacet
  facet normal 0.923880 -0.382683 -0.000000
    outer loop
      vertex 15.753914 1.166697 19.000000
      vertex 15.440351 0.409690 19.000000
      vertex 15.440351 0.409690 18.000000
    endloop
  endfacet
  facet normal 0.707107 -0.707107 -0.000000
    outer loop
      vertex 16.333303 1.746086 19.000000
      vertex 15.753914 1.166697 18.000000
      vertex 16.333303 1.746086 18.000000
    endloop
  endfacet
  facet normal 0.707107 -0.707107 -0.000000
    outer loop
      vertex 16.333303 1.746086 19.000000
      vertex 15.753914 1.166697 19.000000
      vertex 15.753914 1.166697 18.000000
    endloop
  endfacet
  facet normal 0.382683 -0.923880 -0.000000
    outer loop
      vertex 17.090310 2.059649 19.000000
      vertex 16.333303 1.746086 18.000000
      vertex 17.090310 2.059649 18.000000
    endloop
  endfacet
  facet normal 0.382683 -0.923880 -0.000000
    outer loop
      vertex 17.090310 2.059649 19.000000
      vertex 16.333303 1.746086 19.000000
      vertex 16.333303 1.746086 18.000000
    endloop
  endfacet
  facet normal -0.000000 -1.000000 -0.000000
    outer loop
      vertex 17.090310 2.059649 19.000000
      vertex 17.909690 2.059649 18.000000
      vertex 17.909690 2.059649 19.000000
    endloop
  endfacet
  facet normal -0.000000 -1.000000 -0.000000
    outer loop
      vertex 17.090310 2.059649 19.000000
      vertex 17.090310 2.059649 18.000000
      vertex 17.909690 2.059649 18.000000
    endloop
  endfacet
  facet normal -0.382683 -0.923880 -0.000000
    outer loop
      vertex 17.909690 2.059649 19.000000
      vertex 18.666697 1.746086 18.000000
      vertex 18.666697 1.746086 19.000000
    endloop
  endfacet
  facet normal -0.382683 -0.923880 -0.000000
    outer loop
      vertex 17.909690 2.059649 19.000000
      vertex 17.909690 2.059649 18.000000
      vertex 18.666697 1.746086 18.000000
    endloop
  endfacet
  facet normal -0.707107 -0.707107 -0.000000
    outer loop
      vertex 18.666697 1.746086 19.000000
      vertex 19.246086 1.166697 18.000000
      vertex 19.246086 1.166697 19.000000
    endloop
  endfacet
  facet normal -0.707107 -0.707107 -0.000000
    outer loop
      vertex 18.666697 1.746086 19.000000
      vertex 18.666697 1.746086 18.000000
      vertex 19.246086 1.166697 18.000000
    endloop
  endfacet
  facet normal -0.923880 -0.382683 -0.000000
    outer loop
      vertex 19.246086 1.166697 19.000000
      vertex 19.559649 0.409690 18.000000
      vertex 19.559649 0.409690 19.000000
    endloop
  endfacet
  facet normal -0.923880 -0.382683 -0.000000
    outer loop
      vertex 19.246086 1.166697 19.000000
      vertex 19.246086 1.166697 18.000000
      vertex 19.559649 0.409690 18.000000
    endloop
  endfacet
  facet normal -1.000000 -0.000000 -0.000000
    outer loop
      vertex 19.559649 0.409690 19.000000
      vertex 19.559649 0.409690 18.000000
      vertex 19.559649 -0.409690 19.000000
    endloop
  endfacet
  facet normal -1.000000 -0.000000 -0.000000
    outer loop
      vertex 19.559649 0.409690 18.000000
      vertex 19.559649 -0.409690 18.000000
      vertex 19.559649 -0.409690 19.000000
    endloop
  endfacet
  facet normal -0.923880 0.382683 -0.000000
    outer loop
      vertex 19.559649 -0.409690 19.000000
      vertex 19.559649 -0.409690 18.000000
      vertex 19.246086 -1.166697 19.000000
    endloop
  endfacet
  facet normal -0.923880 0.382683 -0.000000
    outer loop
      vertex 19.559649 -0.409690 18.000000
      vertex 19.246086 -1.166697 18.000000
      vertex 19.246086 -1.166697 19.000000
    endloop
  endfacet
  facet normal -0.707107 0.707107 -0.000000
    outer loop
      vertex 19.246086 -1.166697 19.000000
      vertex 19.246086 -1.166697 18.000000
      vertex 18.666697 -1.746086 19.000000
    endloop
  endfacet
  facet normal -0.707107 0.707107 -0.000000
    outer loop
      vertex 19.246086 -1.166697 18.000000
      vertex 18.666697 -1.746086 18.000000
      vertex 18.666697 -1.746086 19.000000
    endloop
  endfacet
  facet normal -0.382683 0.923880 -0.000000
    outer loop
      vertex 18.666697 -1.746086 19.000000
      vertex 18.666697 -1.746086 18.000000
      vertex 17.909690 -2.059649 19.000000
    endloop
  endfacet
  facet normal -0.382683 0.923880 -0.000000
    outer loop
      vertex 18.666697 -1.746086 18.000000
      vertex 17.909690 -2.059649 18.000000
      vertex 17.909690 -2.059649 19.000000
    endloop
  endfacet
  facet normal 0.382683 -0.923880 0.000000
    outer loop
      vertex 7.777983 -11.640575 19.000000
      vertex 7.300000 -11.838562 0.000000
      vertex 7.777983 -11.640575 0.000000
    endloop
  endfacet
  facet normal 0.382683 -0.923880 0.000000
    outer loop
      vertex 7.777983 -11.640575 19.000000
      vertex 7.300000 -11.838562 19.000000
      vertex 7.300000 -11.838562 0.000000
    endloop
  endfacet
  facet normal 0.707107 -0.707107 0.000000
    outer loop
      vertex 11.640575 -7.777983 19.000000
      vertex 7.777983 -11.640575 0.000000
      vertex 11.640575 -7.777983 0.000000
    endloop
  endfacet
  facet normal 0.707107 -0.707107 0.000000
    outer loop
      vertex 11.640575 -7.777983 19.000000
      vertex 7.777983 -11.640575 19.000000
      vertex 7.777983 -11.640575 0.000000
    endloop
  endfacet
  facet normal 0.923880 -0.382683 0.000000
    outer loop
      vertex 13.730994 -2.731265 18.000000
      vertex 11.640575 -7.777983 0.000000
      vertex 13.730994 -2.731265 0.000000
    endloop
  endfacet
  facet normal 0.923880 -0.382683 0.000000
    outer loop
      vertex 13.412573 -3.500000 18.000000
      vertex 13.412573 -3.500000 19.000000
      vertex 11.640575 -7.777983 19.000000
    endloop
  endfacet
  facet normal 0.923880 -0.382683 0.000000
    outer loop
      vertex 13.412573 -3.500000 18.000000
      vertex 11.640575 -7.777983 19.000000
      vertex 11.640575 -7.777983 0.000000
    endloop
  endfacet
  facet normal 0.923880 -0.382683 0.000000
    outer loop
      vertex 13.730994 -2.731265 18.000000
      vertex 13.412573 -3.500000 18.000000
      vertex 11.640575 -7.777983 0.000000
    endloop
  endfacet
  facet normal 1.000000 0.000000 0.000000
    outer loop
      vertex 13.730994 2.731265 18.000000
      vertex 13.730994 -2.731265 0.000000
      vertex 13.730994 2.731265 0.000000
    endloop
  endfacet
  facet normal 1.000000 0.000000 0.000000
    outer loop
      vertex 13.730994 2.731265 18.000000
      vertex 13.730994 -2.731265 18.000000
      vertex 13.730994 -2.731265 0.000000
    endloop
  endfacet
  facet normal 0.923880 0.382683 0.000000
    outer loop
      vertex 13.730994 2.731265 0.000000
      vertex 13.412573 3.500000 18.000000
      vertex 13.730994 2.731265 18.000000
    endloop
  endfacet
  facet normal 0.923880 0.382683 0.000000
    outer loop
      vertex 11.640575 7.777983 0.000000
      vertex 11.640575 7.777983 19.000000
      vertex 13.412573 3.500000 19.000000
    endloop
  endfacet
  facet normal 0.923880 0.382683 0.000000
    outer loop
      vertex 11.640575 7.777983 0.000000
      vertex 13.412573 3.500000 19.000000
      vertex 13.412573 3.500000 18.000000
    endloop
  endfacet
  facet normal 0.923880 0.382683 0.000000
    outer loop
      vertex 13.730994 2.731265 0.000000
      vertex 11.640575 7.777983 0.000000
      vertex 13.412573 3.500000 18.000000
    endloop
  endfacet
  facet normal 0.707107 0.707107 0.000000
    outer loop
      vertex 7.777983 11.640575 0.000000
      vertex 11.640575 7.777983 19.000000
      vertex 11.640575 7.777983 0.000000
    endloop
  endfacet
  facet normal 0.707107 0.707107 0.000000
    outer loop
      vertex 7.777983 11.640575 0.000000
      vertex 7.777983 11.640575 19.000000
      vertex 11.640575 7.777983 19.000000
    endloop
  endfacet
  facet normal 0.382683 0.923880 0.000000
    outer loop
      vertex 2.731265 13.730994 0.000000
      vertex 7.777983 11.640575 19.000000
      vertex 7.777983 11.640575 0.000000
    endloop
  endfacet
  facet normal 0.382683 0.923880 0.000000
    outer loop
      vertex 2.731265 13.730994 0.000000
      vertex 2.731265 13.730994 19.000000
      vertex 7.777983 11.640575 19.000000
    endloop
  endfacet
  facet normal 0.000000 1.000000 0.000000
    outer loop
      vertex -2.731265 13.730994 0.000000
      vertex 2.731265 13.730994 19.000000
      vertex 2.731265 13.730994 0.000000
    endloop
  endfacet
  facet normal 0.000000 1.000000 0.000000
    outer loop
      vertex -2.731265 13.730994 0.000000
      vertex -2.731265 13.730994 19.000000
      vertex 2.731265 13.730994 19.000000
    endloop
  endfacet
  facet normal -0.382683 0.923880 0.000000
    outer loop
      vertex -2.731265 13.730994 0.000000
      vertex -7.777983 11.640575 19.000000
      vertex -2.731265 13.730994 19.000000
    endloop
  endfacet
  facet normal -0.382683 0.923880 0.000000
    outer loop
      vertex -2.731265 13.730994 0.000000
      vertex -7.777983 11.640575 0.000000
      vertex -7.777983 11.640575 19.000000
    endloop
  endfacet
  facet normal -0.707107 0.707107 0.000000
    outer loop
      vertex -7.777983 11.640575 0.000000
      vertex -11.640575 7.777983 19.000000
      vertex -7.777983 11.640575 19.000000
    endloop
  endfacet
  facet normal -0.707107 0.707107 0.000000
    outer loop
      vertex -7.777983 11.640575 0.000000
      vertex -11.640575 7.777983 0.000000
      vertex -11.640575 7.777983 19.000000
    endloop
  endfacet
  facet normal -0.923880 0.382683 0.000000
    outer loop
      vertex -11.640575 7.777983 19.000000
      vertex -13.412573 3.500000 18.000000
      vertex -13.412573 3.500000 19.000000
    endloop
  endfacet
  facet normal -0.923880 0.382683 0.000000
    outer loop
      vertex -11.640575 7.777983 0.000000
      vertex -13.730994 2.731265 0.000000
      vertex -13.730994 2.731265 18.000000
    endloop
  endfacet
  facet normal -0.923880 0.382683 0.000000
    outer loop
      vertex -11.640575 7.777983 0.000000
      vertex -13.730994 2.731265 18.000000
      vertex -13.412573 3.500000 18.000000
    endloop
  endfacet
  facet normal -0.923880 0.382683 0.000000
    outer loop
      vertex -11.640575 7.777983 19.000000
      vertex -11.640575 7.777983 0.000000
      vertex -13.412573 3.500000 18.000000
    endloop
  endfacet
  facet normal -1.000000 0.000000 0.000000
    outer loop
      vertex -13.730994 2.731265 18.000000
      vertex -13.730994 2.731265 0.000000
      vertex -13.730994 -2.731265 18.000000
    endloop
  endfacet
  facet normal -1.000000 0.000000 0.000000
    outer loop
      vertex -13.730994 2.731265 0.000000
      vertex -13.730994 -2.731265 0.000000
      vertex -13.730994 -2.731265 18.000000
    endloop
  endfacet
  facet normal -0.923880 -0.382683 0.000000
    outer loop
      vertex -13.412573 -3.500000 19.000000
      vertex -11.640575 -7.777983 0.000000
      vertex -11.640575 -7.777983 19.000000
    endloop
  endfacet
  facet normal -0.923880 -0.382683 0.000000
    outer loop
      vertex -13.730994 -2.731265 18.000000
      vertex -13.730994 -2.731265 0.000000
      vertex -11.640575 -7.777983 0.000000
    endloop
  endfacet
  facet normal -0.923880 -0.382683 0.000000
    outer loop
      vertex -13.412573 -3.500000 18.000000
      vertex -13.730994 -2.731265 18.000000
      vertex -11.640575 -7.777983 0.000000
    endloop
  endfacet
  facet normal -0.923880 -0.382683 0.000000
    outer loop
      vertex -13.412573 -3.500000 19.000000
      vertex -13.412573 -3.500000 18.000000
      vertex -11.640575 -7.777983 0.000000
    endloop
  endfacet
  facet normal -0.707107 -0.707107 0.000000
    outer loop
      vertex -7.777983 -11.640575 19.000000
      vertex -11.640575 -7.777983 19.000000
      vertex -7.777983 -11.640575 0.000000
    endloop
  endfacet
  facet normal -0.707107 -0.707107 0.000000
    outer loop
      vertex -11.640575 -7.777983 19.000000
      vertex -11.640575 -7.777983 0.000000
      vertex -7.777983 -11.640575 0.000000
    endloop
  endfacet
  facet normal -0.382683 -0.923880 0.000000
    outer loop
      vertex -7.300000 -11.838562 19.000000
      vertex -7.777983 -11.640575 19.000000
      vertex -7.300000 -11.838562 0.000000
    endloop
  endfacet
  facet normal -0.382683 -0.923880 0.000000
    outer loop
      vertex -7.777983 -11.640575 19.000000
      vertex -7.777983 -11.640575 0.000000
      vertex -7.300000 -11.838562 0.000000
    endloop
  endfacet
  facet normal 0.000000 0.000000 1.000000
    outer loop
      vertex 11.640575 -7.777983 19.000000
      vertex -17.090310 -2.059649 19.000000
      vertex -17.909690 -2.059649 19.000000
    endloop
  endfacet
  facet normal 0.000000 0.000000 1.000000
    outer loop
      vertex -2.731265 13.730994 19.000000
      vertex -7.777983 11.640575 19.000000
      vertex -11.640575 7.777983 19.000000
    endloop
  endfacet
  facet normal 0.000000 0.000000 1.000000
    outer loop
      vertex -2.731265 13.730994 19.000000
      vertex -11.640575 7.777983 19.000000
      vertex -13.412573 3.500000 19.000000
    endloop
  endfacet
  facet normal 0.000000 0.000000 1.000000
    outer loop
      vertex -13.412573 3.500000 19.000000
      vertex -17.500000 3.500000 19.000000
      vertex -17.500000 3.432748 19.000000
    endloop
  endfacet
  facet normal 0.000000 0.000000 1.000000
    outer loop
      vertex -17.500000 3.432748 19.000000
      vertex -18.182816 3.432748 19.000000
      vertex -19.444496 2.910144 19.000000
    endloop
  endfacet
  facet normal 0.000000 0.000000 1.000000
    outer loop
      vertex -13.412573 3.500000 19.000000
      vertex -17.500000 3.432748 19.000000
      vertex -19.444496 2.910144 19.000000
    endloop
  endfacet
  facet normal 0.000000 0.000000 1.000000
    outer loop
      vertex -13.412573 3.500000 19.000000
      vertex -19.444496 2.910144 19.000000
      vertex -20.410144 1.944496 19.000000
    endloop
  endfacet
  facet normal 0.000000 0.000000 1.000000
    outer loop
      vertex -20.410144 1.944496 19.000000
      vertex -20.932748 0.682816 19.000000
      vertex -20.932748 -0.682816 19.000000
    endloop
  endfacet
  facet normal 0.000000 0.000000 1.000000
    outer loop
      vertex -20.410144 1.944496 19.000000
      vertex -20.932748 -0.682816 19.000000
      vertex -20.410144 -1.944496 19.000000
    endloop
  endfacet
  facet normal 0.000000 0.000000 1.000000
    outer loop
      vertex -20.410144 1.944496 19.000000
      vertex -20.410144 -1.944496 19.000000
      vertex -19.444496 -2.910144 19.000000
    endloop
  endfacet
  facet normal 0.000000 0.000000 1.000000
    outer loop
      vertex -19.444496 -2.910144 19.000000
      vertex -18.182816 -3.432748 19.000000
      vertex -17.500000 -3.432748 19.000000
    endloop
  endfacet
  facet normal 0.000000 0.000000 1.000000
    outer loop
      vertex -17.500000 -3.432748 19.000000
      vertex -17.500000 -3.500000 19.000000
      vertex -13.412573 -3.500000 19.000000
    endloop
  endfacet
  facet normal 0.000000 0.000000 1.000000
    outer loop
      vertex -19.444496 -2.910144 19.000000
      vertex -17.500000 -3.432748 19.000000
      vertex -13.412573 -3.500000 19.000000
    endloop
  endfacet
  facet normal 0.000000 0.000000 1.000000
    outer loop
      vertex -13.412573 -3.500000 19.000000
      vertex -11.640575 -7.777983 19.000000
      vertex -7.777983 -11.640575 19.000000
    endloop
  endfacet
  facet normal 0.000000 0.000000 1.000000
    outer loop
      vertex -13.412573 -3.500000 19.000000
      vertex -7.777983 -11.640575 19.000000
      vertex -7.300000 -11.838562 19.000000
    endloop
  endfacet
  facet normal 0.000000 0.000000 1.000000
    outer loop
      vertex -7.300000 -11.838562 19.000000
      vertex -7.300000 -17.000000 19.000000
      vertex 7.300000 -17.000000 19.000000
    endloop
  endfacet
  facet normal 0.000000 0.000000 1.000000
    outer loop
      vertex -13.412573 -3.500000 19.000000
      vertex -7.300000 -11.838562 19.000000
      vertex 7.300000 -17.000000 19.000000
    endloop
  endfacet
  facet normal 0.000000 0.000000 1.000000
    outer loop
      vertex -13.412573 -3.500000 19.000000
      vertex 7.300000 -17.000000 19.000000
      vertex 7.300000 -11.838562 19.000000
    endloop
  endfacet
  facet normal 0.000000 0.000000 1.000000
    outer loop
      vertex -13.412573 -3.500000 19.000000
      vertex 7.300000 -11.838562 19.000000
      vertex 7.777983 -11.640575 19.000000
    endloop
  endfacet
  facet normal 0.000000 0.000000 1.000000
    outer loop
      vertex -13.412573 -3.500000 19.000000
      vertex 7.777983 -11.640575 19.000000
      vertex 11.640575 -7.777983 19.000000
    endloop
  endfacet
  facet normal 0.000000 0.000000 1.000000
    outer loop
      vertex -13.412573 -3.500000 19.000000
      vertex 11.640575 -7.777983 19.000000
      vertex -17.909690 -2.059649 19.000000
    endloop
  endfacet
  facet normal 0.000000 0.000000 1.000000
    outer loop
      vertex -19.444496 -2.910144 19.000000
      vertex -13.412573 -3.500000 19.000000
      vertex -17.909690 -2.059649 19.000000
    endloop
  endfacet
  facet normal 0.000000 0.000000 1.000000
    outer loop
      vertex -19.444496 -2.910144 19.000000
      vertex -17.909690 -2.059649 19.000000
      vertex -18.666697 -1.746086 19.000000
    endloop
  endfacet
  facet normal 0.000000 0.000000 1.000000
    outer loop
      vertex -19.444496 -2.910144 19.000000
      vertex -18.666697 -1.746086 19.000000
      vertex -19.246086 -1.166697 19.000000
    endloop
  endfacet
  facet normal 0.000000 0.000000 1.000000
    outer loop
      vertex -19.444496 -2.910144 19.000000
      vertex -19.246086 -1.166697 19.000000
      vertex -19.559649 -0.409690 19.000000
    endloop
  endfacet
  facet normal 0.000000 0.000000 1.000000
    outer loop
      vertex -20.410144 1.944496 19.000000
      vertex -19.444496 -2.910144 19.000000
      vertex -19.559649 -0.409690 19.000000
    endloop
  endfacet
  facet normal 0.000000 0.000000 1.000000
    outer loop
      vertex -20.410144 1.944496 19.000000
      vertex -19.559649 -0.409690 19.000000
      vertex -19.559649 0.409690 19.000000
    endloop
  endfacet
  facet normal 0.000000 0.000000 1.000000
    outer loop
      vertex -20.410144 1.944496 19.000000
      vertex -19.559649 0.409690 19.000000
      vertex -19.246086 1.166697 19.000000
    endloop
  endfacet
  facet normal 0.000000 0.000000 1.000000
    outer loop
      vertex -20.410144 1.944496 19.000000
      vertex -19.246086 1.166697 19.000000
      vertex -18.666697 1.746086 19.000000
    endloop
  endfacet
  facet normal 0.000000 0.000000 1.000000
    outer loop
      vertex -20.410144 1.944496 19.000000
      vertex -18.666697 1.746086 19.000000
      vertex -17.909690 2.059649 19.000000
    endloop
  endfacet
  facet normal 0.000000 0.000000 1.000000
    outer loop
      vertex -13.412573 3.500000 19.000000
      vertex -20.410144 1.944496 19.000000
      vertex -17.909690 2.059649 19.000000
    endloop
  endfacet
  facet normal 0.000000 0.000000 1.000000
    outer loop
      vertex -13.412573 3.500000 19.000000
      vertex -17.909690 2.059649 19.000000
      vertex -0.877906 3.586466 19.000000
    endloop
  endfacet
  facet normal 0.000000 0.000000 1.000000
    outer loop
      vertex -13.412573 3.500000 19.000000
      vertex -0.877906 3.586466 19.000000
      vertex -2.500066 4.258387 19.000000
    endloop
  endfacet
  facet normal 0.000000 0.000000 1.000000
    outer loop
      vertex -13.412573 3.500000 19.000000
      vertex -2.500066 4.258387 19.000000
      vertex -3.741613 5.499934 19.000000
    endloop
  endfacet
  facet normal 0.000000 0.000000 1.000000
    outer loop
      vertex -13.412573 3.500000 19.000000
      vertex -3.741613 5.499934 19.000000
      vertex -4.413534 7.122094 19.000000
    endloop
  endfacet
  facet normal 0.000000 0.000000 1.000000
    outer loop
      vertex -13.412573 3.500000 19.000000
      vertex -4.413534 7.122094 19.000000
      vertex -4.413534 8.877906 19.000000
    endloop
  endfacet
  facet normal 0.000000 0.000000 1.000000
    outer loop
      vertex -2.731265 13.730994 19.000000
      vertex -13.412573 3.500000 19.000000
      vertex -4.413534 8.877906 19.000000
    endloop
  endfacet
  facet normal 0.000000 0.000000 1.000000
    outer loop
      vertex -2.731265 13.730994 19.000000
      vertex -4.413534 8.877906 19.000000
      vertex -3.741613 10.500066 19.000000
    endloop
  endfacet
  facet normal 0.000000 0.000000 1.000000
    outer loop
      vertex -2.731265 13.730994 19.000000
      vertex -3.741613 10.500066 19.000000
      vertex -2.500066 11.741613 19.000000
    endloop
  endfacet
  facet normal 0.000000 0.000000 1.000000
    outer loop
      vertex -2.731265 13.730994 19.000000
      vertex -2.500066 11.741613 19.000000
      vertex -0.877906 12.413534 19.000000
    endloop
  endfacet
  facet normal 0.000000 0.000000 1.000000
    outer loop
      vertex 2.731265 13.730994 19.000000
      vertex -2.731265 13.730994 19.000000
      vertex -0.877906 12.413534 19.000000
    endloop
  endfacet
  facet normal 0.000000 0.000000 1.000000
    outer loop
      vertex 2.731265 13.730994 19.000000
      vertex -0.877906 12.413534 19.000000
      vertex 0.877906 12.413534 19.000000
    endloop
  endfacet
  facet normal 0.000000 0.000000 1.000000
    outer loop
      vertex 7.777983 11.640575 19.000000
      vertex 2.731265 13.730994 19.000000
      vertex 0.877906 12.413534 19.000000
    endloop
  endfacet
  facet normal 0.000000 0.000000 1.000000
    outer loop
      vertex 7.777983 11.640575 19.000000
      vertex 0.877906 12.413534 19.000000
      vertex 2.500066 11.741613 19.000000
    endloop
  endfacet
  facet normal 0.000000 0.000000 1.000000
    outer loop
      vertex 11.640575 7.777983 19.000000
      vertex 7.777983 11.640575 19.000000
      vertex 2.500066 11.741613 19.000000
    endloop
  endfacet
  facet normal 0.000000 0.000000 1.000000
    outer loop
      vertex 13.412573 3.500000 19.000000
      vertex 11.640575 7.777983 19.000000
      vertex 2.500066 11.741613 19.000000
    endloop
  endfacet
  facet normal 0.000000 0.000000 1.000000
    outer loop
      vertex 13.412573 3.500000 19.000000
      vertex 2.500066 11.741613 19.000000
      vertex 3.741613 10.500066 19.000000
    endloop
  endfacet
  facet normal 0.000000 0.000000 1.000000
    outer loop
      vertex 13.412573 3.500000 19.000000
      vertex 3.741613 10.500066 19.000000
      vertex 4.413534 8.877906 19.000000
    endloop
  endfacet
  facet normal 0.000000 0.000000 1.000000
    outer loop
      vertex 13.412573 3.500000 19.000000
      vertex 4.413534 8.877906 19.000000
      vertex 4.413534 7.122094 19.000000
    endloop
  endfacet
  facet normal 0.000000 0.000000 1.000000
    outer loop
      vertex 13.412573 3.500000 19.000000
      vertex 4.413534 7.122094 19.000000
      vertex 3.741613 5.499934 19.000000
    endloop
  endfacet
  facet normal 0.000000 0.000000 1.000000
    outer loop
      vertex 13.412573 3.500000 19.000000
      vertex 3.741613 5.499934 19.000000
      vertex 2.500066 4.258387 19.000000
    endloop
  endfacet
  facet normal 0.000000 0.000000 1.000000
    outer loop
      vertex 13.412573 3.500000 19.000000
      vertex 2.500066 4.258387 19.000000
      vertex 0.877906 3.586466 19.000000
    endloop
  endfacet
  facet normal 0.000000 0.000000 1.000000
    outer loop
      vertex 13.412573 3.500000 19.000000
      vertex 0.877906 3.586466 19.000000
      vertex -0.877906 3.586466 19.000000
    endloop
  endfacet
  facet normal 0.000000 0.000000 1.000000
    outer loop
      vertex 13.412573 3.500000 19.000000
      vertex -0.877906 3.586466 19.000000
      vertex -17.909690 2.059649 19.000000
    endloop
  endfacet
  facet normal 0.000000 0.000000 1.000000
    outer loop
      vertex 17.500000 3.500000 19.000000
      vertex 13.412573 3.500000 19.000000
      vertex -17.909690 2.059649 19.000000
    endloop
  endfacet
  facet normal 0.000000 0.000000 1.000000
    outer loop
      vertex 17.500000 3.432748 19.000000
      vertex 17.500000 3.500000 19.000000
      vertex -17.909690 2.059649 19.000000
    endloop
  endfacet
  facet normal 0.000000 0.000000 1.000000
    outer loop
      vertex 18.182816 3.432748 19.000000
      vertex 17.500000 3.432748 19.000000
      vertex -17.909690 2.059649 19.000000
    endloop
  endfacet
  facet normal 0.000000 0.000000 1.000000
    outer loop
      vertex 19.444496 2.910144 19.000000
      vertex 18.182816 3.432748 19.000000
      vertex -17.909690 2.059649 19.000000
    endloop
  endfacet
  facet normal 0.000000 0.000000 1.000000
    outer loop
      vertex 19.444496 2.910144 19.000000
      vertex -17.909690 2.059649 19.000000
      vertex -17.090310 2.059649 19.000000
    endloop
  endfacet
  facet normal 0.000000 0.000000 1.000000
    outer loop
      vertex -17.090310 2.059649 19.000000
      vertex 17.090310 -2.059649 19.000000
      vertex 16.333303 -1.746086 19.000000
    endloop
  endfacet
  facet normal 0.000000 0.000000 1.000000
    outer loop
      vertex -17.090310 2.059649 19.000000
      vertex 16.333303 -1.746086 19.000000
      vertex 15.753914 -1.166697 19.000000
    endloop
  endfacet
  facet normal 0.000000 0.000000 1.000000
    outer loop
      vertex -17.090310 2.059649 19.000000
      vertex 15.753914 -1.166697 19.000000
      vertex 15.440351 -0.409690 19.000000
    endloop
  endfacet
  facet normal 0.000000 0.000000 1.000000
    outer loop
      vertex -17.090310 2.059649 19.000000
      vertex 15.440351 -0.409690 19.000000
      vertex 15.440351 0.409690 19.000000
    endloop
  endfacet
  facet normal 0.000000 0.000000 1.000000
    outer loop
      vertex -17.090310 2.059649 19.000000
      vertex 15.440351 0.409690 19.000000
      vertex 15.753914 1.166697 19.000000
    endloop
  endfacet
  facet normal 0.000000 0.000000 1.000000
    outer loop
      vertex -17.090310 2.059649 19.000000
      vertex 15.753914 1.166697 19.000000
      vertex 16.333303 1.746086 19.000000
    endloop
  endfacet
  facet normal 0.000000 0.000000 1.000000
    outer loop
      vertex -17.090310 2.059649 19.000000
      vertex 16.333303 1.746086 19.000000
      vertex 17.090310 2.059649 19.000000
    endloop
  endfacet
  facet normal 0.000000 0.000000 1.000000
    outer loop
      vertex 19.444496 2.910144 19.000000
      vertex -17.090310 2.059649 19.000000
      vertex 17.090310 2.059649 19.000000
    endloop
  endfacet
  facet normal 0.000000 0.000000 1.000000
    outer loop
      vertex 19.444496 2.910144 19.000000
      vertex 17.090310 2.059649 19.000000
      vertex 17.909690 2.059649 19.000000
    endloop
  endfacet
  facet normal 0.000000 0.000000 1.000000
    outer loop
      vertex 20.410144 1.944496 19.000000
      vertex 19.444496 2.910144 19.000000
      vertex 17.909690 2.059649 19.000000
    endloop
  endfacet
  facet normal 0.000000 0.000000 1.000000
    outer loop
      vertex 20.410144 1.944496 19.000000
      vertex 17.909690 2.059649 19.000000
      vertex 18.666697 1.746086 19.000000
    endloop
  endfacet
  facet normal 0.000000 0.000000 1.000000
    outer loop
      vertex 20.932748 0.682816 19.000000
      vertex 20.410144 1.944496 19.000000
      vertex 18.666697 1.746086 19.000000
    endloop
  endfacet
  facet normal 0.000000 0.000000 1.000000
    outer loop
      vertex 20.932748 0.682816 19.000000
      vertex 18.666697 1.746086 19.000000
      vertex 19.246086 1.166697 19.000000
    endloop
  endfacet
  facet normal 0.000000 0.000000 1.000000
    outer loop
      vertex 20.932748 -0.682816 19.000000
      vertex 20.932748 0.682816 19.000000
      vertex 19.246086 1.166697 19.000000
    endloop
  endfacet
  facet normal 0.000000 0.000000 1.000000
    outer loop
      vertex 20.932748 -0.682816 19.000000
      vertex 19.246086 1.166697 19.000000
      vertex 19.559649 0.409690 19.000000
    endloop
  endfacet
  facet normal 0.000000 0.000000 1.000000
    outer loop
      vertex 20.410144 -1.944496 19.000000
      vertex 20.932748 -0.682816 19.000000
      vertex 19.559649 0.409690 19.000000
    endloop
  endfacet
  facet normal 0.000000 0.000000 1.000000
    outer loop
      vertex 20.410144 -1.944496 19.000000
      vertex 19.559649 0.409690 19.000000
      vertex 19.559649 -0.409690 19.000000
    endloop
  endfacet
  facet normal 0.000000 0.000000 1.000000
    outer loop
      vertex 19.444496 -2.910144 19.000000
      vertex 20.410144 -1.944496 19.000000
      vertex 19.559649 -0.409690 19.000000
    endloop
  endfacet
  facet normal 0.000000 0.000000 1.000000
    outer loop
      vertex 19.444496 -2.910144 19.000000
      vertex 19.559649 -0.409690 19.000000
      vertex 19.246086 -1.166697 19.000000
    endloop
  endfacet
  facet normal 0.000000 0.000000 1.000000
    outer loop
      vertex 18.182816 -3.432748 19.000000
      vertex 19.444496 -2.910144 19.000000
      vertex 19.246086 -1.166697 19.000000
    endloop
  endfacet
  facet normal 0.000000 0.000000 1.000000
    outer loop
      vertex 17.500000 -3.432748 19.000000
      vertex 18.182816 -3.432748 19.000000
      vertex 19.246086 -1.166697 19.000000
    endloop
  endfacet
  facet normal 0.000000 0.000000 1.000000
    outer loop
      vertex 17.500000 -3.432748 19.000000
      vertex 19.246086 -1.166697 19.000000
      vertex 18.666697 -1.746086 19.000000
    endloop
  endfacet
  facet normal 0.000000 0.000000 1.000000
    outer loop
      vertex 17.500000 -3.432748 19.000000
      vertex 18.666697 -1.746086 19.000000
      vertex 17.909690 -2.059649 19.000000
    endloop
  endfacet
  facet normal 0.000000 0.000000 1.000000
    outer loop
      vertex 17.500000 -3.432748 19.000000
      vertex 17.909690 -2.059649 19.000000
      vertex 17.090310 -2.059649 19.000000
    endloop
  endfacet
  facet normal 0.000000 0.000000 1.000000
    outer loop
      vertex 17.500000 -3.500000 19.000000
      vertex 17.500000 -3.432748 19.000000
      vertex 17.090310 -2.059649 19.000000
    endloop
  endfacet
  facet normal 0.000000 0.000000 1.000000
    outer loop
      vertex 13.412573 -3.500000 19.000000
      vertex 17.500000 -3.500000 19.000000
      vertex 17.090310 -2.059649 19.000000
    endloop
  endfacet
  facet normal 0.000000 0.000000 1.000000
    outer loop
      vertex 13.412573 -3.500000 19.000000
      vertex 17.090310 -2.059649 19.000000
      vertex -17.090310 2.059649 19.000000
    endloop
  endfacet
  facet normal 0.000000 0.000000 1.000000
    outer loop
      vertex 11.640575 -7.777983 19.000000
      vertex 13.412573 -3.500000 19.000000
      vertex -17.090310 2.059649 19.000000
    endloop
  endfacet
  facet normal 0.000000 0.000000 1.000000
    outer loop
      vertex 11.640575 -7.777983 19.000000
      vertex -17.090310 2.059649 19.000000
      vertex -16.333303 1.746086 19.000000
    endloop
  endfacet
  facet normal 0.000000 0.000000 1.000000
    outer loop
      vertex 11.640575 -7.777983 19.000000
      vertex -16.333303 1.746086 19.000000
      vertex -15.753914 1.166697 19.000000
    endloop
  endfacet
  facet normal 0.000000 0.000000 1.000000
    outer loop
      vertex 11.640575 -7.777983 19.000000
      vertex -15.753914 1.166697 19.000000
      vertex -15.440351 0.409690 19.000000
    endloop
  endfacet
  facet normal 0.000000 0.000000 1.000000
    outer loop
      vertex 11.640575 -7.777983 19.000000
      vertex -15.440351 0.409690 19.000000
      vertex -15.440351 -0.409690 19.000000
    endloop
  endfacet
  facet normal 0.000000 0.000000 1.000000
    outer loop
      vertex 11.640575 -7.777983 19.000000
      vertex -15.440351 -0.409690 19.000000
      vertex -15.753914 -1.166697 19.000000
    endloop
  endfacet
  facet normal 0.000000 0.000000 1.000000
    outer loop
      vertex 11.640575 -7.777983 19.000000
      vertex -15.753914 -1.166697 19.000000
      vertex -16.333303 -1.746086 19.000000
    endloop
  endfacet
  facet normal 0.000000 0.000000 1.000000
    outer loop
      vertex 11.640575 -7.777983 19.000000
      vertex -16.333303 -1.746086 19.000000
      vertex -17.090310 -2.059649 19.000000
    endloop
  endfacet
  facet normal 0.000000 0.000000 -1.000000
    outer loop
      vertex -7.300000 -17.000000 0.000000
      vertex 7.300000 -11.838562 0.000000
      vertex 7.300000 -17.000000 0.000000
    endloop
  endfacet
  facet normal 0.000000 0.000000 -1.000000
    outer loop
      vertex 2.731265 13.730994 0.000000
      vertex 7.777983 11.640575 0.000000
      vertex 11.640575 7.777983 0.000000
    endloop
  endfacet
  facet normal 0.000000 0.000000 -1.000000
    outer loop
      vertex -2.731265 13.730994 0.000000
      vertex 2.731265 13.730994 0.000000
      vertex 11.640575 7.777983 0.000000
    endloop
  endfacet
  facet normal 0.000000 0.000000 -1.000000
    outer loop
      vertex -7.777983 11.640575 0.000000
      vertex -2.731265 13.730994 0.000000
      vertex 11.640575 7.777983 0.000000
    endloop
  endfacet
  facet normal 0.000000 0.000000 -1.000000
    outer loop
      vertex -11.640575 7.777983 0.000000
      vertex -7.777983 11.640575 0.000000
      vertex 11.640575 7.777983 0.000000
    endloop
  endfacet
  facet normal 0.000000 0.000000 -1.000000
    outer loop
      vertex -13.730994 2.731265 0.000000
      vertex -11.640575 7.777983 0.000000
      vertex 11.640575 7.777983 0.000000
    endloop
  endfacet
  facet normal 0.000000 0.000000 -1.000000
    outer loop
      vertex -13.730994 -2.731265 0.000000
      vertex -13.730994 2.731265 0.000000
      vertex 11.640575 7.777983 0.000000
    endloop
  endfacet
  facet normal 0.000000 0.000000 -1.000000
    outer loop
      vertex -11.640575 -7.777983 0.000000
      vertex -13.730994 -2.731265 0.000000
      vertex 11.640575 7.777983 0.000000
    endloop
  endfacet
  facet normal 0.000000 0.000000 -1.000000
    outer loop
      vertex -7.777983 -11.640575 0.000000
      vertex -11.640575 -7.777983 0.000000
      vertex 11.640575 7.777983 0.000000
    endloop
  endfacet
  facet normal 0.000000 0.000000 -1.000000
    outer loop
      vertex -7.300000 -11.838562 0.000000
      vertex -7.777983 -11.640575 0.000000
      vertex 11.640575 7.777983 0.000000
    endloop
  endfacet
  facet normal 0.000000 0.000000 -1.000000
    outer loop
      vertex -7.300000 -17.000000 0.000000
      vertex -7.300000 -11.838562 0.000000
      vertex 11.640575 7.777983 0.000000
    endloop
  endfacet
  facet normal 0.000000 0.000000 -1.000000
    outer loop
      vertex -7.300000 -17.000000 0.000000
      vertex 11.640575 7.777983 0.000000
      vertex 13.730994 2.731265 0.000000
    endloop
  endfacet
  facet normal 0.000000 0.000000 -1.000000
    outer loop
      vertex -7.300000 -17.000000 0.000000
      vertex 13.730994 2.731265 0.000000
      vertex 13.730994 -2.731265 0.000000
    endloop
  endfacet
  facet normal 0.000000 0.000000 -1.000000
    outer loop
      vertex -7.300000 -17.000000 0.000000
      vertex 13.730994 -2.731265 0.000000
      vertex 11.640575 -7.777983 0.000000
    endloop
  endfacet
  facet normal 0.000000 0.000000 -1.000000
    outer loop
      vertex -7.300000 -17.000000 0.000000
      vertex 11.640575 -7.777983 0.000000
      vertex 7.777983 -11.640575 0.000000
    endloop
  endfacet
  facet normal 0.000000 0.000000 -1.000000
    outer loop
      vertex -7.300000 -17.000000 0.000000
      vertex 7.777983 -11.640575 0.000000
      vertex 7.300000 -11.838562 0.000000
    endloop
  endfacet
  facet normal 0.000000 -1.000000 0.000000
    outer loop
      vertex -7.300000 -17.000000 19.000000
      vertex 7.300000 -17.000000 0.000000
      vertex 7.300000 -17.000000 19.000000
    endloop
  endfacet
  facet normal 0.000000 -1.000000 0.000000
    outer loop
      vertex -7.300000 -17.000000 19.000000
      vertex -7.300000 -17.000000 0.000000
      vertex 7.300000 -17.000000 0.000000
    endloop
  endfacet
  facet normal -1.000000 0.000000 0.000000
    outer loop
      vertex -7.300000 -11.838562 0.000000
      vertex -7.300000 -17.000000 19.000000
      vertex -7.300000 -11.838562 19.000000
    endloop
  endfacet
  facet normal -1.000000 0.000000 0.000000
    outer loop
      vertex -7.300000 -11.838562 0.000000
      vertex -7.300000 -17.000000 0.000000
      vertex -7.300000 -17.000000 19.000000
    endloop
  endfacet
  facet normal 1.000000 -0.000000 0.000000
    outer loop
      vertex 7.300000 -11.838562 0.000000
      vertex 7.300000 -11.838562 19.000000
      vertex 7.300000 -17.000000 0.000000
    endloop
  endfacet
  facet normal 1.000000 -0.000000 0.000000
    outer loop
      vertex 7.300000 -11.838562 19.000000
      vertex 7.300000 -17.000000 19.000000
      vertex 7.300000 -17.000000 0.000000
    endloop
  endfacet
endsolid _28BYJ_48__COMPLETE1.g
