solid pump_and_connections.r
  facet normal 1.000000 0.000000 0.000000
    outer loop
      vertex 11000.000000 1907.612047 -288.368343
      vertex 11000.000000 1961.731657 -157.712047
      vertex 11000.000000 1907.612047 -211.831657
    endloop
  endfacet
  facet normal 1.000000 0.000000 0.000000
    outer loop
      vertex 11000.000000 2092.387953 -211.831657
      vertex 11000.000000 2038.268343 -157.712047
      vertex 11000.000000 1961.731657 -157.712047
    endloop
  endfacet
  facet normal 1.000000 0.000000 0.000000
    outer loop
      vertex 11000.000000 2092.387953 -288.368343
      vertex 11000.000000 2092.387953 -211.831657
      vertex 11000.000000 1961.731657 -157.712047
    endloop
  endfacet
  facet normal 1.000000 0.000000 0.000000
    outer loop
      vertex 11000.000000 2038.268343 -342.487953
      vertex 11000.000000 2092.387953 -288.368343
      vertex 11000.000000 1961.731657 -157.712047
    endloop
  endfacet
  facet normal 1.000000 0.000000 0.000000
    outer loop
      vertex 11000.000000 1961.731657 -342.487953
      vertex 11000.000000 2038.268343 -342.487953
      vertex 11000.000000 1961.731657 -157.712047
    endloop
  endfacet
  facet normal 1.000000 0.000000 0.000000
    outer loop
      vertex 11000.000000 1907.612047 -288.368343
      vertex 11000.000000 1961.731657 -342.487953
      vertex 11000.000000 1961.731657 -157.712047
    endloop
  endfacet
  facet normal 0.000000 0.707107 -0.707107
    outer loop
      vertex 6000.000000 2038.268343 -342.487953
      vertex 11000.000000 2092.387953 -288.368343
      vertex 11000.000000 2038.268343 -342.487953
    endloop
  endfacet
  facet normal 0.000000 0.707107 -0.707107
    outer loop
      vertex 6000.000000 2038.268343 -342.487953
      vertex 6000.000000 2092.387953 -288.368343
      vertex 11000.000000 2092.387953 -288.368343
    endloop
  endfacet
  facet normal 0.000000 1.000000 0.000000
    outer loop
      vertex 6000.000000 2092.387953 -288.368343
      vertex 11000.000000 2092.387953 -211.831657
      vertex 11000.000000 2092.387953 -288.368343
    endloop
  endfacet
  facet normal 0.000000 1.000000 0.000000
    outer loop
      vertex 6000.000000 2092.387953 -288.368343
      vertex 6000.000000 2092.387953 -211.831657
      vertex 11000.000000 2092.387953 -211.831657
    endloop
  endfacet
  facet normal 0.000000 0.707107 0.707107
    outer loop
      vertex 6000.000000 2092.387953 -211.831657
      vertex 11000.000000 2038.268343 -157.712047
      vertex 11000.000000 2092.387953 -211.831657
    endloop
  endfacet
  facet normal 0.000000 0.707107 0.707107
    outer loop
      vertex 6000.000000 2092.387953 -211.831657
      vertex 6000.000000 2038.268343 -157.712047
      vertex 11000.000000 2038.268343 -157.712047
    endloop
  endfacet
  facet normal 0.000000 0.000000 1.000000
    outer loop
      vertex 6000.000000 2038.268343 -157.712047
      vertex 11000.000000 1961.731657 -157.712047
      vertex 11000.000000 2038.268343 -157.712047
    endloop
  endfacet
  facet normal 0.000000 0.000000 1.000000
    outer loop
      vertex 6000.000000 2038.268343 -157.712047
      vertex 6000.000000 1961.731657 -157.712047
      vertex 11000.000000 1961.731657 -157.712047
    endloop
  endfacet
  facet normal 0.000000 -0.707107 0.707107
    outer loop
      vertex 6000.000000 1961.731657 -157.712047
      vertex 11000.000000 1907.612047 -211.831657
      vertex 11000.000000 1961.731657 -157.712047
    endloop
  endfacet
  facet normal 0.000000 -0.707107 0.707107
    outer loop
      vertex 6000.000000 1961.731657 -157.712047
      vertex 6000.000000 1907.612047 -211.831657
      vertex 11000.000000 1907.612047 -211.831657
    endloop
  endfacet
  facet normal 0.000000 -1.000000 0.000000
    outer loop
      vertex 6000.000000 1907.612047 -211.831657
      vertex 11000.000000 1907.612047 -288.368343
      vertex 11000.000000 1907.612047 -211.831657
    endloop
  endfacet
  facet normal 0.000000 -1.000000 0.000000
    outer loop
      vertex 6000.000000 1907.612047 -211.831657
      vertex 6000.000000 1907.612047 -288.368343
      vertex 11000.000000 1907.612047 -288.368343
    endloop
  endfacet
  facet normal 0.000000 -0.707107 -0.707107
    outer loop
      vertex 6000.000000 1907.612047 -288.368343
      vertex 11000.000000 1961.731657 -342.487953
      vertex 11000.000000 1907.612047 -288.368343
    endloop
  endfacet
  facet normal 0.000000 -0.707107 -0.707107
    outer loop
      vertex 6000.000000 1907.612047 -288.368343
      vertex 6000.000000 1961.731657 -342.487953
      vertex 11000.000000 1961.731657 -342.487953
    endloop
  endfacet
  facet normal 0.000000 0.000000 -1.000000
    outer loop
      vertex 11000.000000 2038.268343 -342.487953
      vertex 6000.000000 1961.731657 -342.487953
      vertex 6000.000000 2038.268343 -342.487953
    endloop
  endfacet
  facet normal 0.000000 0.000000 -1.000000
    outer loop
      vertex 11000.000000 2038.268343 -342.487953
      vertex 11000.000000 1961.731657 -342.487953
      vertex 6000.000000 1961.731657 -342.487953
    endloop
  endfacet
  facet normal -1.000000 -0.000000 0.000000
    outer loop
      vertex -6000.000000 1907.612047 -211.831657
      vertex -6000.000000 1961.731657 -342.487953
      vertex -6000.000000 1907.612047 -288.368343
    endloop
  endfacet
  facet normal -1.000000 -0.000000 0.000000
    outer loop
      vertex -6000.000000 2092.387953 -288.368343
      vertex -6000.000000 2038.268343 -342.487953
      vertex -6000.000000 1961.731657 -342.487953
    endloop
  endfacet
  facet normal -1.000000 -0.000000 0.000000
    outer loop
      vertex -6000.000000 2092.387953 -211.831657
      vertex -6000.000000 2092.387953 -288.368343
      vertex -6000.000000 1961.731657 -342.487953
    endloop
  endfacet
  facet normal -1.000000 -0.000000 0.000000
    outer loop
      vertex -6000.000000 2038.268343 -157.712047
      vertex -6000.000000 2092.387953 -211.831657
      vertex -6000.000000 1961.731657 -342.487953
    endloop
  endfacet
  facet normal -1.000000 -0.000000 0.000000
    outer loop
      vertex -6000.000000 1961.731657 -157.712047
      vertex -6000.000000 2038.268343 -157.712047
      vertex -6000.000000 1961.731657 -342.487953
    endloop
  endfacet
  facet normal -1.000000 -0.000000 0.000000
    outer loop
      vertex -6000.000000 1907.612047 -211.831657
      vertex -6000.000000 1961.731657 -157.712047
      vertex -6000.000000 1961.731657 -342.487953
    endloop
  endfacet
  facet normal 0.000000 0.707107 0.707107
    outer loop
      vertex -6000.000000 2092.387953 -211.831657
      vertex -1000.000000 2038.268343 -157.712047
      vertex -1000.000000 2092.387953 -211.831657
    endloop
  endfacet
  facet normal 0.000000 0.707107 0.707107
    outer loop
      vertex -6000.000000 2092.387953 -211.831657
      vertex -6000.000000 2038.268343 -157.712047
      vertex -1000.000000 2038.268343 -157.712047
    endloop
  endfacet
  facet normal 0.000000 1.000000 0.000000
    outer loop
      vertex -6000.000000 2092.387953 -288.368343
      vertex -1000.000000 2092.387953 -211.831657
      vertex -1000.000000 2092.387953 -288.368343
    endloop
  endfacet
  facet normal 0.000000 1.000000 0.000000
    outer loop
      vertex -6000.000000 2092.387953 -288.368343
      vertex -6000.000000 2092.387953 -211.831657
      vertex -1000.000000 2092.387953 -211.831657
    endloop
  endfacet
  facet normal 0.000000 0.707107 -0.707107
    outer loop
      vertex -6000.000000 2038.268343 -342.487953
      vertex -1000.000000 2092.387953 -288.368343
      vertex -1000.000000 2038.268343 -342.487953
    endloop
  endfacet
  facet normal 0.000000 0.707107 -0.707107
    outer loop
      vertex -6000.000000 2038.268343 -342.487953
      vertex -6000.000000 2092.387953 -288.368343
      vertex -1000.000000 2092.387953 -288.368343
    endloop
  endfacet
  facet normal 0.000000 0.000000 -1.000000
    outer loop
      vertex -1000.000000 2038.268343 -342.487953
      vertex -6000.000000 1961.731657 -342.487953
      vertex -6000.000000 2038.268343 -342.487953
    endloop
  endfacet
  facet normal 0.000000 0.000000 -1.000000
    outer loop
      vertex -1000.000000 2038.268343 -342.487953
      vertex -1000.000000 1961.731657 -342.487953
      vertex -6000.000000 1961.731657 -342.487953
    endloop
  endfacet
  facet normal 0.000000 -0.707107 -0.707107
    outer loop
      vertex -6000.000000 1907.612047 -288.368343
      vertex -1000.000000 1961.731657 -342.487953
      vertex -1000.000000 1907.612047 -288.368343
    endloop
  endfacet
  facet normal 0.000000 -0.707107 -0.707107
    outer loop
      vertex -6000.000000 1907.612047 -288.368343
      vertex -6000.000000 1961.731657 -342.487953
      vertex -1000.000000 1961.731657 -342.487953
    endloop
  endfacet
  facet normal 0.000000 -1.000000 0.000000
    outer loop
      vertex -6000.000000 1907.612047 -211.831657
      vertex -1000.000000 1907.612047 -288.368343
      vertex -1000.000000 1907.612047 -211.831657
    endloop
  endfacet
  facet normal 0.000000 -1.000000 0.000000
    outer loop
      vertex -6000.000000 1907.612047 -211.831657
      vertex -6000.000000 1907.612047 -288.368343
      vertex -1000.000000 1907.612047 -288.368343
    endloop
  endfacet
  facet normal 0.000000 -0.707107 0.707107
    outer loop
      vertex -6000.000000 1961.731657 -157.712047
      vertex -1000.000000 1907.612047 -211.831657
      vertex -1000.000000 1961.731657 -157.712047
    endloop
  endfacet
  facet normal 0.000000 -0.707107 0.707107
    outer loop
      vertex -6000.000000 1961.731657 -157.712047
      vertex -6000.000000 1907.612047 -211.831657
      vertex -1000.000000 1907.612047 -211.831657
    endloop
  endfacet
  facet normal 0.000000 0.000000 1.000000
    outer loop
      vertex -6000.000000 2038.268343 -157.712047
      vertex -1000.000000 1961.731657 -157.712047
      vertex -1000.000000 2038.268343 -157.712047
    endloop
  endfacet
  facet normal 0.000000 0.000000 1.000000
    outer loop
      vertex -6000.000000 2038.268343 -157.712047
      vertex -6000.000000 1961.731657 -157.712047
      vertex -1000.000000 1961.731657 -157.712047
    endloop
  endfacet
  facet normal 0.000000 1.000000 0.000000
    outer loop
      vertex 4305.885716 0.000000 -224.444370
      vertex 5030.330086 0.000000 -30.330086
      vertex 4694.114284 0.000000 -224.444370
    endloop
  endfacet
  facet normal 0.000000 1.000000 0.000000
    outer loop
      vertex 4000.000000 0.000000 0.000000
      vertex 5000.000000 0.000000 0.000000
      vertex 4305.885716 0.000000 -224.444370
    endloop
  endfacet
  facet normal 0.000000 1.000000 0.000000
    outer loop
      vertex 4000.000000 0.000000 0.000000
      vertex 4305.885716 0.000000 -224.444370
      vertex 3969.669914 0.000000 -30.330086
    endloop
  endfacet
  facet normal 0.000000 1.000000 0.000000
    outer loop
      vertex 4000.000000 0.000000 1000.000000
      vertex 4000.000000 0.000000 0.000000
      vertex 3969.669914 0.000000 -30.330086
    endloop
  endfacet
  facet normal 0.000000 1.000000 0.000000
    outer loop
      vertex 4000.000000 0.000000 1000.000000
      vertex 3969.669914 0.000000 -30.330086
      vertex 3775.555630 0.000000 305.885716
    endloop
  endfacet
  facet normal 0.000000 1.000000 0.000000
    outer loop
      vertex 4000.000000 0.000000 1000.000000
      vertex 3775.555630 0.000000 305.885716
      vertex 3775.555630 0.000000 694.114284
    endloop
  endfacet
  facet normal 0.000000 1.000000 0.000000
    outer loop
      vertex 4000.000000 0.000000 1000.000000
      vertex 3775.555630 0.000000 694.114284
      vertex 3969.669914 0.000000 1030.330086
    endloop
  endfacet
  facet normal 0.000000 1.000000 0.000000
    outer loop
      vertex 5000.000000 0.000000 1000.000000
      vertex 4000.000000 0.000000 1000.000000
      vertex 3969.669914 0.000000 1030.330086
    endloop
  endfacet
  facet normal 0.000000 1.000000 0.000000
    outer loop
      vertex 5000.000000 0.000000 1000.000000
      vertex 3969.669914 0.000000 1030.330086
      vertex 4305.885716 0.000000 1224.444370
    endloop
  endfacet
  facet normal 0.000000 1.000000 0.000000
    outer loop
      vertex 5000.000000 0.000000 1000.000000
      vertex 4305.885716 0.000000 1224.444370
      vertex 4694.114284 0.000000 1224.444370
    endloop
  endfacet
  facet normal 0.000000 1.000000 0.000000
    outer loop
      vertex 5000.000000 0.000000 1000.000000
      vertex 4694.114284 0.000000 1224.444370
      vertex 5030.330086 0.000000 1030.330086
    endloop
  endfacet
  facet normal 0.000000 1.000000 0.000000
    outer loop
      vertex 5000.000000 0.000000 0.000000
      vertex 5000.000000 0.000000 1000.000000
      vertex 5030.330086 0.000000 1030.330086
    endloop
  endfacet
  facet normal 0.000000 1.000000 0.000000
    outer loop
      vertex 5000.000000 0.000000 0.000000
      vertex 5030.330086 0.000000 1030.330086
      vertex 5224.444370 0.000000 694.114284
    endloop
  endfacet
  facet normal 0.000000 1.000000 0.000000
    outer loop
      vertex 5000.000000 0.000000 0.000000
      vertex 5224.444370 0.000000 694.114284
      vertex 5224.444370 0.000000 305.885716
    endloop
  endfacet
  facet normal 0.000000 1.000000 0.000000
    outer loop
      vertex 5000.000000 0.000000 0.000000
      vertex 5224.444370 0.000000 305.885716
      vertex 5030.330086 0.000000 -30.330086
    endloop
  endfacet
  facet normal 0.000000 1.000000 0.000000
    outer loop
      vertex 4305.885716 0.000000 -224.444370
      vertex 5000.000000 0.000000 0.000000
      vertex 5030.330086 0.000000 -30.330086
    endloop
  endfacet
  facet normal 0.000000 -1.000000 -0.000000
    outer loop
      vertex 3969.669914 -5000.000000 -30.330086
      vertex 3775.555630 -5000.000000 694.114284
      vertex 3775.555630 -5000.000000 305.885716
    endloop
  endfacet
  facet normal 0.000000 -1.000000 -0.000000
    outer loop
      vertex 4305.885716 -5000.000000 1224.444370
      vertex 3969.669914 -5000.000000 1030.330086
      vertex 3775.555630 -5000.000000 694.114284
    endloop
  endfacet
  facet normal 0.000000 -1.000000 -0.000000
    outer loop
      vertex 4694.114284 -5000.000000 1224.444370
      vertex 4305.885716 -5000.000000 1224.444370
      vertex 3775.555630 -5000.000000 694.114284
    endloop
  endfacet
  facet normal 0.000000 -1.000000 -0.000000
    outer loop
      vertex 5030.330086 -5000.000000 1030.330086
      vertex 4694.114284 -5000.000000 1224.444370
      vertex 3775.555630 -5000.000000 694.114284
    endloop
  endfacet
  facet normal 0.000000 -1.000000 -0.000000
    outer loop
      vertex 5224.444370 -5000.000000 694.114284
      vertex 5030.330086 -5000.000000 1030.330086
      vertex 3775.555630 -5000.000000 694.114284
    endloop
  endfacet
  facet normal 0.000000 -1.000000 -0.000000
    outer loop
      vertex 5224.444370 -5000.000000 305.885716
      vertex 5224.444370 -5000.000000 694.114284
      vertex 3775.555630 -5000.000000 694.114284
    endloop
  endfacet
  facet normal 0.000000 -1.000000 -0.000000
    outer loop
      vertex 5030.330086 -5000.000000 -30.330086
      vertex 5224.444370 -5000.000000 305.885716
      vertex 3775.555630 -5000.000000 694.114284
    endloop
  endfacet
  facet normal 0.000000 -1.000000 -0.000000
    outer loop
      vertex 4694.114284 -5000.000000 -224.444370
      vertex 5030.330086 -5000.000000 -30.330086
      vertex 3775.555630 -5000.000000 694.114284
    endloop
  endfacet
  facet normal 0.000000 -1.000000 -0.000000
    outer loop
      vertex 4305.885716 -5000.000000 -224.444370
      vertex 4694.114284 -5000.000000 -224.444370
      vertex 3775.555630 -5000.000000 694.114284
    endloop
  endfacet
  facet normal 0.000000 -1.000000 -0.000000
    outer loop
      vertex 3969.669914 -5000.000000 -30.330086
      vertex 4305.885716 -5000.000000 -224.444370
      vertex 3775.555630 -5000.000000 694.114284
    endloop
  endfacet
  facet normal 0.500000 0.000000 -0.866025
    outer loop
      vertex 5030.330086 0.000000 -30.330086
      vertex 4694.114284 -5000.000000 -224.444370
      vertex 4694.114284 0.000000 -224.444370
    endloop
  endfacet
  facet normal 0.500000 0.000000 -0.866025
    outer loop
      vertex 5030.330086 0.000000 -30.330086
      vertex 5030.330086 -5000.000000 -30.330086
      vertex 4694.114284 -5000.000000 -224.444370
    endloop
  endfacet
  facet normal 0.866025 0.000000 -0.500000
    outer loop
      vertex 5224.444370 0.000000 305.885716
      vertex 5030.330086 -5000.000000 -30.330086
      vertex 5030.330086 0.000000 -30.330086
    endloop
  endfacet
  facet normal 0.866025 0.000000 -0.500000
    outer loop
      vertex 5224.444370 0.000000 305.885716
      vertex 5224.444370 -5000.000000 305.885716
      vertex 5030.330086 -5000.000000 -30.330086
    endloop
  endfacet
  facet normal 1.000000 0.000000 0.000000
    outer loop
      vertex 5224.444370 0.000000 694.114284
      vertex 5224.444370 -5000.000000 305.885716
      vertex 5224.444370 0.000000 305.885716
    endloop
  endfacet
  facet normal 1.000000 0.000000 0.000000
    outer loop
      vertex 5224.444370 0.000000 694.114284
      vertex 5224.444370 -5000.000000 694.114284
      vertex 5224.444370 -5000.000000 305.885716
    endloop
  endfacet
  facet normal 0.866025 0.000000 0.500000
    outer loop
      vertex 5030.330086 0.000000 1030.330086
      vertex 5224.444370 -5000.000000 694.114284
      vertex 5224.444370 0.000000 694.114284
    endloop
  endfacet
  facet normal 0.866025 0.000000 0.500000
    outer loop
      vertex 5030.330086 0.000000 1030.330086
      vertex 5030.330086 -5000.000000 1030.330086
      vertex 5224.444370 -5000.000000 694.114284
    endloop
  endfacet
  facet normal 0.500000 0.000000 0.866025
    outer loop
      vertex 4694.114284 0.000000 1224.444370
      vertex 5030.330086 -5000.000000 1030.330086
      vertex 5030.330086 0.000000 1030.330086
    endloop
  endfacet
  facet normal 0.500000 0.000000 0.866025
    outer loop
      vertex 4694.114284 0.000000 1224.444370
      vertex 4694.114284 -5000.000000 1224.444370
      vertex 5030.330086 -5000.000000 1030.330086
    endloop
  endfacet
  facet normal 0.000000 0.000000 1.000000
    outer loop
      vertex 4305.885716 0.000000 1224.444370
      vertex 4694.114284 -5000.000000 1224.444370
      vertex 4694.114284 0.000000 1224.444370
    endloop
  endfacet
  facet normal 0.000000 0.000000 1.000000
    outer loop
      vertex 4305.885716 0.000000 1224.444370
      vertex 4305.885716 -5000.000000 1224.444370
      vertex 4694.114284 -5000.000000 1224.444370
    endloop
  endfacet
  facet normal -0.500000 0.000000 0.866025
    outer loop
      vertex 3969.669914 0.000000 1030.330086
      vertex 4305.885716 -5000.000000 1224.444370
      vertex 4305.885716 0.000000 1224.444370
    endloop
  endfacet
  facet normal -0.500000 0.000000 0.866025
    outer loop
      vertex 3969.669914 0.000000 1030.330086
      vertex 3969.669914 -5000.000000 1030.330086
      vertex 4305.885716 -5000.000000 1224.444370
    endloop
  endfacet
  facet normal -0.866025 0.000000 0.500000
    outer loop
      vertex 3775.555630 0.000000 694.114284
      vertex 3969.669914 -5000.000000 1030.330086
      vertex 3969.669914 0.000000 1030.330086
    endloop
  endfacet
  facet normal -0.866025 0.000000 0.500000
    outer loop
      vertex 3775.555630 0.000000 694.114284
      vertex 3775.555630 -5000.000000 694.114284
      vertex 3969.669914 -5000.000000 1030.330086
    endloop
  endfacet
  facet normal -1.000000 0.000000 0.000000
    outer loop
      vertex 3775.555630 0.000000 305.885716
      vertex 3775.555630 -5000.000000 694.114284
      vertex 3775.555630 0.000000 694.114284
    endloop
  endfacet
  facet normal -1.000000 0.000000 0.000000
    outer loop
      vertex 3775.555630 0.000000 305.885716
      vertex 3775.555630 -5000.000000 305.885716
      vertex 3775.555630 -5000.000000 694.114284
    endloop
  endfacet
  facet normal -0.866025 0.000000 -0.500000
    outer loop
      vertex 3969.669914 0.000000 -30.330086
      vertex 3775.555630 -5000.000000 305.885716
      vertex 3775.555630 0.000000 305.885716
    endloop
  endfacet
  facet normal -0.866025 0.000000 -0.500000
    outer loop
      vertex 3969.669914 0.000000 -30.330086
      vertex 3969.669914 -5000.000000 -30.330086
      vertex 3775.555630 -5000.000000 305.885716
    endloop
  endfacet
  facet normal -0.500000 0.000000 -0.866025
    outer loop
      vertex 4305.885716 0.000000 -224.444370
      vertex 3969.669914 -5000.000000 -30.330086
      vertex 3969.669914 0.000000 -30.330086
    endloop
  endfacet
  facet normal -0.500000 0.000000 -0.866025
    outer loop
      vertex 4305.885716 0.000000 -224.444370
      vertex 4305.885716 -5000.000000 -224.444370
      vertex 3969.669914 -5000.000000 -30.330086
    endloop
  endfacet
  facet normal -0.000000 0.000000 -1.000000
    outer loop
      vertex 4694.114284 -5000.000000 -224.444370
      vertex 4305.885716 -5000.000000 -224.444370
      vertex 4694.114284 0.000000 -224.444370
    endloop
  endfacet
  facet normal -0.000000 0.000000 -1.000000
    outer loop
      vertex 4305.885716 -5000.000000 -224.444370
      vertex 4305.885716 0.000000 -224.444370
      vertex 4694.114284 0.000000 -224.444370
    endloop
  endfacet
  facet normal 0.000000 1.000000 0.000000
    outer loop
      vertex 1969.669914 0.000000 -30.330086
      vertex 2000.000000 0.000000 0.000000
      vertex 2305.885716 0.000000 -224.444370
    endloop
  endfacet
  facet normal 0.000000 1.000000 0.000000
    outer loop
      vertex 2305.885716 0.000000 -224.444370
      vertex 2000.000000 0.000000 0.000000
      vertex 3000.000000 0.000000 0.000000
    endloop
  endfacet
  facet normal 0.000000 1.000000 0.000000
    outer loop
      vertex 2694.114284 0.000000 -224.444370
      vertex 2305.885716 0.000000 -224.444370
      vertex 3000.000000 0.000000 0.000000
    endloop
  endfacet
  facet normal 0.000000 1.000000 0.000000
    outer loop
      vertex 3030.330086 0.000000 -30.330086
      vertex 2694.114284 0.000000 -224.444370
      vertex 3000.000000 0.000000 0.000000
    endloop
  endfacet
  facet normal 0.000000 1.000000 0.000000
    outer loop
      vertex 3224.444370 0.000000 305.885716
      vertex 3030.330086 0.000000 -30.330086
      vertex 3000.000000 0.000000 0.000000
    endloop
  endfacet
  facet normal 0.000000 1.000000 0.000000
    outer loop
      vertex 3224.444370 0.000000 694.114284
      vertex 3224.444370 0.000000 305.885716
      vertex 3000.000000 0.000000 0.000000
    endloop
  endfacet
  facet normal 0.000000 1.000000 0.000000
    outer loop
      vertex 3030.330086 0.000000 1030.330086
      vertex 3224.444370 0.000000 694.114284
      vertex 3000.000000 0.000000 0.000000
    endloop
  endfacet
  facet normal 0.000000 1.000000 0.000000
    outer loop
      vertex 3030.330086 0.000000 1030.330086
      vertex 3000.000000 0.000000 0.000000
      vertex 3000.000000 0.000000 1000.000000
    endloop
  endfacet
  facet normal 0.000000 1.000000 0.000000
    outer loop
      vertex 2694.114284 0.000000 1224.444370
      vertex 3030.330086 0.000000 1030.330086
      vertex 3000.000000 0.000000 1000.000000
    endloop
  endfacet
  facet normal 0.000000 1.000000 0.000000
    outer loop
      vertex 2305.885716 0.000000 1224.444370
      vertex 2694.114284 0.000000 1224.444370
      vertex 3000.000000 0.000000 1000.000000
    endloop
  endfacet
  facet normal 0.000000 1.000000 0.000000
    outer loop
      vertex 1969.669914 0.000000 1030.330086
      vertex 2305.885716 0.000000 1224.444370
      vertex 3000.000000 0.000000 1000.000000
    endloop
  endfacet
  facet normal 0.000000 1.000000 0.000000
    outer loop
      vertex 1969.669914 0.000000 1030.330086
      vertex 3000.000000 0.000000 1000.000000
      vertex 2000.000000 0.000000 1000.000000
    endloop
  endfacet
  facet normal 0.000000 1.000000 0.000000
    outer loop
      vertex 1775.555630 0.000000 694.114284
      vertex 1969.669914 0.000000 1030.330086
      vertex 2000.000000 0.000000 1000.000000
    endloop
  endfacet
  facet normal 0.000000 1.000000 0.000000
    outer loop
      vertex 1775.555630 0.000000 305.885716
      vertex 1775.555630 0.000000 694.114284
      vertex 2000.000000 0.000000 1000.000000
    endloop
  endfacet
  facet normal 0.000000 1.000000 0.000000
    outer loop
      vertex 1969.669914 0.000000 -30.330086
      vertex 1775.555630 0.000000 305.885716
      vertex 2000.000000 0.000000 1000.000000
    endloop
  endfacet
  facet normal 0.000000 1.000000 0.000000
    outer loop
      vertex 1969.669914 0.000000 -30.330086
      vertex 2000.000000 0.000000 1000.000000
      vertex 2000.000000 0.000000 0.000000
    endloop
  endfacet
  facet normal 0.000000 -1.000000 -0.000000
    outer loop
      vertex 1969.669914 -5000.000000 -30.330086
      vertex 1775.555630 -5000.000000 694.114284
      vertex 1775.555630 -5000.000000 305.885716
    endloop
  endfacet
  facet normal 0.000000 -1.000000 -0.000000
    outer loop
      vertex 2305.885716 -5000.000000 1224.444370
      vertex 1969.669914 -5000.000000 1030.330086
      vertex 1775.555630 -5000.000000 694.114284
    endloop
  endfacet
  facet normal 0.000000 -1.000000 -0.000000
    outer loop
      vertex 2694.114284 -5000.000000 1224.444370
      vertex 2305.885716 -5000.000000 1224.444370
      vertex 1775.555630 -5000.000000 694.114284
    endloop
  endfacet
  facet normal 0.000000 -1.000000 -0.000000
    outer loop
      vertex 3030.330086 -5000.000000 1030.330086
      vertex 2694.114284 -5000.000000 1224.444370
      vertex 1775.555630 -5000.000000 694.114284
    endloop
  endfacet
  facet normal 0.000000 -1.000000 -0.000000
    outer loop
      vertex 3224.444370 -5000.000000 694.114284
      vertex 3030.330086 -5000.000000 1030.330086
      vertex 1775.555630 -5000.000000 694.114284
    endloop
  endfacet
  facet normal 0.000000 -1.000000 -0.000000
    outer loop
      vertex 3224.444370 -5000.000000 305.885716
      vertex 3224.444370 -5000.000000 694.114284
      vertex 1775.555630 -5000.000000 694.114284
    endloop
  endfacet
  facet normal 0.000000 -1.000000 -0.000000
    outer loop
      vertex 3030.330086 -5000.000000 -30.330086
      vertex 3224.444370 -5000.000000 305.885716
      vertex 1775.555630 -5000.000000 694.114284
    endloop
  endfacet
  facet normal 0.000000 -1.000000 -0.000000
    outer loop
      vertex 2694.114284 -5000.000000 -224.444370
      vertex 3030.330086 -5000.000000 -30.330086
      vertex 1775.555630 -5000.000000 694.114284
    endloop
  endfacet
  facet normal 0.000000 -1.000000 -0.000000
    outer loop
      vertex 2305.885716 -5000.000000 -224.444370
      vertex 2694.114284 -5000.000000 -224.444370
      vertex 1775.555630 -5000.000000 694.114284
    endloop
  endfacet
  facet normal 0.000000 -1.000000 -0.000000
    outer loop
      vertex 1969.669914 -5000.000000 -30.330086
      vertex 2305.885716 -5000.000000 -224.444370
      vertex 1775.555630 -5000.000000 694.114284
    endloop
  endfacet
  facet normal 0.500000 0.000000 -0.866025
    outer loop
      vertex 3030.330086 0.000000 -30.330086
      vertex 2694.114284 -5000.000000 -224.444370
      vertex 2694.114284 0.000000 -224.444370
    endloop
  endfacet
  facet normal 0.500000 0.000000 -0.866025
    outer loop
      vertex 3030.330086 0.000000 -30.330086
      vertex 3030.330086 -5000.000000 -30.330086
      vertex 2694.114284 -5000.000000 -224.444370
    endloop
  endfacet
  facet normal 0.866025 0.000000 -0.500000
    outer loop
      vertex 3224.444370 0.000000 305.885716
      vertex 3030.330086 -5000.000000 -30.330086
      vertex 3030.330086 0.000000 -30.330086
    endloop
  endfacet
  facet normal 0.866025 0.000000 -0.500000
    outer loop
      vertex 3224.444370 0.000000 305.885716
      vertex 3224.444370 -5000.000000 305.885716
      vertex 3030.330086 -5000.000000 -30.330086
    endloop
  endfacet
  facet normal 1.000000 0.000000 0.000000
    outer loop
      vertex 3224.444370 0.000000 694.114284
      vertex 3224.444370 -5000.000000 305.885716
      vertex 3224.444370 0.000000 305.885716
    endloop
  endfacet
  facet normal 1.000000 0.000000 0.000000
    outer loop
      vertex 3224.444370 0.000000 694.114284
      vertex 3224.444370 -5000.000000 694.114284
      vertex 3224.444370 -5000.000000 305.885716
    endloop
  endfacet
  facet normal 0.866025 0.000000 0.500000
    outer loop
      vertex 3030.330086 0.000000 1030.330086
      vertex 3224.444370 -5000.000000 694.114284
      vertex 3224.444370 0.000000 694.114284
    endloop
  endfacet
  facet normal 0.866025 0.000000 0.500000
    outer loop
      vertex 3030.330086 0.000000 1030.330086
      vertex 3030.330086 -5000.000000 1030.330086
      vertex 3224.444370 -5000.000000 694.114284
    endloop
  endfacet
  facet normal 0.500000 0.000000 0.866025
    outer loop
      vertex 2694.114284 0.000000 1224.444370
      vertex 3030.330086 -5000.000000 1030.330086
      vertex 3030.330086 0.000000 1030.330086
    endloop
  endfacet
  facet normal 0.500000 0.000000 0.866025
    outer loop
      vertex 2694.114284 0.000000 1224.444370
      vertex 2694.114284 -5000.000000 1224.444370
      vertex 3030.330086 -5000.000000 1030.330086
    endloop
  endfacet
  facet normal 0.000000 0.000000 1.000000
    outer loop
      vertex 2305.885716 0.000000 1224.444370
      vertex 2694.114284 -5000.000000 1224.444370
      vertex 2694.114284 0.000000 1224.444370
    endloop
  endfacet
  facet normal 0.000000 0.000000 1.000000
    outer loop
      vertex 2305.885716 0.000000 1224.444370
      vertex 2305.885716 -5000.000000 1224.444370
      vertex 2694.114284 -5000.000000 1224.444370
    endloop
  endfacet
  facet normal -0.500000 0.000000 0.866025
    outer loop
      vertex 1969.669914 0.000000 1030.330086
      vertex 2305.885716 -5000.000000 1224.444370
      vertex 2305.885716 0.000000 1224.444370
    endloop
  endfacet
  facet normal -0.500000 0.000000 0.866025
    outer loop
      vertex 1969.669914 0.000000 1030.330086
      vertex 1969.669914 -5000.000000 1030.330086
      vertex 2305.885716 -5000.000000 1224.444370
    endloop
  endfacet
  facet normal -0.866025 0.000000 0.500000
    outer loop
      vertex 1775.555630 0.000000 694.114284
      vertex 1969.669914 -5000.000000 1030.330086
      vertex 1969.669914 0.000000 1030.330086
    endloop
  endfacet
  facet normal -0.866025 0.000000 0.500000
    outer loop
      vertex 1775.555630 0.000000 694.114284
      vertex 1775.555630 -5000.000000 694.114284
      vertex 1969.669914 -5000.000000 1030.330086
    endloop
  endfacet
  facet normal -1.000000 0.000000 0.000000
    outer loop
      vertex 1775.555630 0.000000 305.885716
      vertex 1775.555630 -5000.000000 694.114284
      vertex 1775.555630 0.000000 694.114284
    endloop
  endfacet
  facet normal -1.000000 0.000000 0.000000
    outer loop
      vertex 1775.555630 0.000000 305.885716
      vertex 1775.555630 -5000.000000 305.885716
      vertex 1775.555630 -5000.000000 694.114284
    endloop
  endfacet
  facet normal -0.866025 0.000000 -0.500000
    outer loop
      vertex 1969.669914 0.000000 -30.330086
      vertex 1775.555630 -5000.000000 305.885716
      vertex 1775.555630 0.000000 305.885716
    endloop
  endfacet
  facet normal -0.866025 0.000000 -0.500000
    outer loop
      vertex 1969.669914 0.000000 -30.330086
      vertex 1969.669914 -5000.000000 -30.330086
      vertex 1775.555630 -5000.000000 305.885716
    endloop
  endfacet
  facet normal -0.500000 0.000000 -0.866025
    outer loop
      vertex 2305.885716 0.000000 -224.444370
      vertex 1969.669914 -5000.000000 -30.330086
      vertex 1969.669914 0.000000 -30.330086
    endloop
  endfacet
  facet normal -0.500000 0.000000 -0.866025
    outer loop
      vertex 2305.885716 0.000000 -224.444370
      vertex 2305.885716 -5000.000000 -224.444370
      vertex 1969.669914 -5000.000000 -30.330086
    endloop
  endfacet
  facet normal -0.000000 0.000000 -1.000000
    outer loop
      vertex 2694.114284 -5000.000000 -224.444370
      vertex 2305.885716 -5000.000000 -224.444370
      vertex 2694.114284 0.000000 -224.444370
    endloop
  endfacet
  facet normal -0.000000 0.000000 -1.000000
    outer loop
      vertex 2305.885716 -5000.000000 -224.444370
      vertex 2305.885716 0.000000 -224.444370
      vertex 2694.114284 0.000000 -224.444370
    endloop
  endfacet
  facet normal 0.000000 1.000000 0.000000
    outer loop
      vertex -30.330086 0.000000 -30.330086
      vertex 0.000000 0.000000 0.000000
      vertex 305.885716 0.000000 -224.444370
    endloop
  endfacet
  facet normal 0.000000 1.000000 0.000000
    outer loop
      vertex 305.885716 0.000000 -224.444370
      vertex 0.000000 0.000000 0.000000
      vertex 1000.000000 0.000000 0.000000
    endloop
  endfacet
  facet normal 0.000000 1.000000 0.000000
    outer loop
      vertex 694.114284 0.000000 -224.444370
      vertex 305.885716 0.000000 -224.444370
      vertex 1000.000000 0.000000 0.000000
    endloop
  endfacet
  facet normal 0.000000 1.000000 0.000000
    outer loop
      vertex 1030.330086 0.000000 -30.330086
      vertex 694.114284 0.000000 -224.444370
      vertex 1000.000000 0.000000 0.000000
    endloop
  endfacet
  facet normal 0.000000 1.000000 0.000000
    outer loop
      vertex 1224.444370 0.000000 305.885716
      vertex 1030.330086 0.000000 -30.330086
      vertex 1000.000000 0.000000 0.000000
    endloop
  endfacet
  facet normal 0.000000 1.000000 0.000000
    outer loop
      vertex 1224.444370 0.000000 694.114284
      vertex 1224.444370 0.000000 305.885716
      vertex 1000.000000 0.000000 0.000000
    endloop
  endfacet
  facet normal 0.000000 1.000000 0.000000
    outer loop
      vertex 1030.330086 0.000000 1030.330086
      vertex 1224.444370 0.000000 694.114284
      vertex 1000.000000 0.000000 0.000000
    endloop
  endfacet
  facet normal 0.000000 1.000000 0.000000
    outer loop
      vertex 1030.330086 0.000000 1030.330086
      vertex 1000.000000 0.000000 0.000000
      vertex 1000.000000 0.000000 1000.000000
    endloop
  endfacet
  facet normal 0.000000 1.000000 0.000000
    outer loop
      vertex 694.114284 0.000000 1224.444370
      vertex 1030.330086 0.000000 1030.330086
      vertex 1000.000000 0.000000 1000.000000
    endloop
  endfacet
  facet normal 0.000000 1.000000 0.000000
    outer loop
      vertex 305.885716 0.000000 1224.444370
      vertex 694.114284 0.000000 1224.444370
      vertex 1000.000000 0.000000 1000.000000
    endloop
  endfacet
  facet normal 0.000000 1.000000 0.000000
    outer loop
      vertex -30.330086 0.000000 1030.330086
      vertex 305.885716 0.000000 1224.444370
      vertex 1000.000000 0.000000 1000.000000
    endloop
  endfacet
  facet normal 0.000000 1.000000 0.000000
    outer loop
      vertex -30.330086 0.000000 1030.330086
      vertex 1000.000000 0.000000 1000.000000
      vertex 0.000000 0.000000 1000.000000
    endloop
  endfacet
  facet normal 0.000000 1.000000 0.000000
    outer loop
      vertex -224.444370 0.000000 694.114284
      vertex -30.330086 0.000000 1030.330086
      vertex 0.000000 0.000000 1000.000000
    endloop
  endfacet
  facet normal 0.000000 1.000000 0.000000
    outer loop
      vertex -224.444370 0.000000 305.885716
      vertex -224.444370 0.000000 694.114284
      vertex 0.000000 0.000000 1000.000000
    endloop
  endfacet
  facet normal 0.000000 1.000000 0.000000
    outer loop
      vertex -30.330086 0.000000 -30.330086
      vertex -224.444370 0.000000 305.885716
      vertex 0.000000 0.000000 1000.000000
    endloop
  endfacet
  facet normal 0.000000 1.000000 0.000000
    outer loop
      vertex -30.330086 0.000000 -30.330086
      vertex 0.000000 0.000000 1000.000000
      vertex 0.000000 0.000000 0.000000
    endloop
  endfacet
  facet normal 0.000000 -1.000000 -0.000000
    outer loop
      vertex -30.330086 -5000.000000 -30.330086
      vertex -224.444370 -5000.000000 694.114284
      vertex -224.444370 -5000.000000 305.885716
    endloop
  endfacet
  facet normal 0.000000 -1.000000 -0.000000
    outer loop
      vertex 305.885716 -5000.000000 1224.444370
      vertex -30.330086 -5000.000000 1030.330086
      vertex -224.444370 -5000.000000 694.114284
    endloop
  endfacet
  facet normal 0.000000 -1.000000 -0.000000
    outer loop
      vertex 694.114284 -5000.000000 1224.444370
      vertex 305.885716 -5000.000000 1224.444370
      vertex -224.444370 -5000.000000 694.114284
    endloop
  endfacet
  facet normal 0.000000 -1.000000 -0.000000
    outer loop
      vertex 1030.330086 -5000.000000 1030.330086
      vertex 694.114284 -5000.000000 1224.444370
      vertex -224.444370 -5000.000000 694.114284
    endloop
  endfacet
  facet normal 0.000000 -1.000000 -0.000000
    outer loop
      vertex 1224.444370 -5000.000000 694.114284
      vertex 1030.330086 -5000.000000 1030.330086
      vertex -224.444370 -5000.000000 694.114284
    endloop
  endfacet
  facet normal 0.000000 -1.000000 -0.000000
    outer loop
      vertex 1224.444370 -5000.000000 305.885716
      vertex 1224.444370 -5000.000000 694.114284
      vertex -224.444370 -5000.000000 694.114284
    endloop
  endfacet
  facet normal 0.000000 -1.000000 -0.000000
    outer loop
      vertex 1030.330086 -5000.000000 -30.330086
      vertex 1224.444370 -5000.000000 305.885716
      vertex -224.444370 -5000.000000 694.114284
    endloop
  endfacet
  facet normal 0.000000 -1.000000 -0.000000
    outer loop
      vertex 694.114284 -5000.000000 -224.444370
      vertex 1030.330086 -5000.000000 -30.330086
      vertex -224.444370 -5000.000000 694.114284
    endloop
  endfacet
  facet normal 0.000000 -1.000000 -0.000000
    outer loop
      vertex 305.885716 -5000.000000 -224.444370
      vertex 694.114284 -5000.000000 -224.444370
      vertex -224.444370 -5000.000000 694.114284
    endloop
  endfacet
  facet normal 0.000000 -1.000000 -0.000000
    outer loop
      vertex -30.330086 -5000.000000 -30.330086
      vertex 305.885716 -5000.000000 -224.444370
      vertex -224.444370 -5000.000000 694.114284
    endloop
  endfacet
  facet normal 0.500000 0.000000 -0.866025
    outer loop
      vertex 1030.330086 0.000000 -30.330086
      vertex 694.114284 -5000.000000 -224.444370
      vertex 694.114284 0.000000 -224.444370
    endloop
  endfacet
  facet normal 0.500000 0.000000 -0.866025
    outer loop
      vertex 1030.330086 0.000000 -30.330086
      vertex 1030.330086 -5000.000000 -30.330086
      vertex 694.114284 -5000.000000 -224.444370
    endloop
  endfacet
  facet normal 0.866025 0.000000 -0.500000
    outer loop
      vertex 1224.444370 0.000000 305.885716
      vertex 1030.330086 -5000.000000 -30.330086
      vertex 1030.330086 0.000000 -30.330086
    endloop
  endfacet
  facet normal 0.866025 0.000000 -0.500000
    outer loop
      vertex 1224.444370 0.000000 305.885716
      vertex 1224.444370 -5000.000000 305.885716
      vertex 1030.330086 -5000.000000 -30.330086
    endloop
  endfacet
  facet normal 1.000000 0.000000 0.000000
    outer loop
      vertex 1224.444370 0.000000 694.114284
      vertex 1224.444370 -5000.000000 305.885716
      vertex 1224.444370 0.000000 305.885716
    endloop
  endfacet
  facet normal 1.000000 0.000000 0.000000
    outer loop
      vertex 1224.444370 0.000000 694.114284
      vertex 1224.444370 -5000.000000 694.114284
      vertex 1224.444370 -5000.000000 305.885716
    endloop
  endfacet
  facet normal 0.866025 0.000000 0.500000
    outer loop
      vertex 1030.330086 0.000000 1030.330086
      vertex 1224.444370 -5000.000000 694.114284
      vertex 1224.444370 0.000000 694.114284
    endloop
  endfacet
  facet normal 0.866025 0.000000 0.500000
    outer loop
      vertex 1030.330086 0.000000 1030.330086
      vertex 1030.330086 -5000.000000 1030.330086
      vertex 1224.444370 -5000.000000 694.114284
    endloop
  endfacet
  facet normal 0.500000 0.000000 0.866025
    outer loop
      vertex 694.114284 0.000000 1224.444370
      vertex 1030.330086 -5000.000000 1030.330086
      vertex 1030.330086 0.000000 1030.330086
    endloop
  endfacet
  facet normal 0.500000 0.000000 0.866025
    outer loop
      vertex 694.114284 0.000000 1224.444370
      vertex 694.114284 -5000.000000 1224.444370
      vertex 1030.330086 -5000.000000 1030.330086
    endloop
  endfacet
  facet normal 0.000000 0.000000 1.000000
    outer loop
      vertex 305.885716 0.000000 1224.444370
      vertex 694.114284 -5000.000000 1224.444370
      vertex 694.114284 0.000000 1224.444370
    endloop
  endfacet
  facet normal 0.000000 0.000000 1.000000
    outer loop
      vertex 305.885716 0.000000 1224.444370
      vertex 305.885716 -5000.000000 1224.444370
      vertex 694.114284 -5000.000000 1224.444370
    endloop
  endfacet
  facet normal -0.500000 0.000000 0.866025
    outer loop
      vertex -30.330086 0.000000 1030.330086
      vertex 305.885716 -5000.000000 1224.444370
      vertex 305.885716 0.000000 1224.444370
    endloop
  endfacet
  facet normal -0.500000 0.000000 0.866025
    outer loop
      vertex -30.330086 0.000000 1030.330086
      vertex -30.330086 -5000.000000 1030.330086
      vertex 305.885716 -5000.000000 1224.444370
    endloop
  endfacet
  facet normal -0.866025 0.000000 0.500000
    outer loop
      vertex -224.444370 0.000000 694.114284
      vertex -30.330086 -5000.000000 1030.330086
      vertex -30.330086 0.000000 1030.330086
    endloop
  endfacet
  facet normal -0.866025 0.000000 0.500000
    outer loop
      vertex -224.444370 0.000000 694.114284
      vertex -224.444370 -5000.000000 694.114284
      vertex -30.330086 -5000.000000 1030.330086
    endloop
  endfacet
  facet normal -1.000000 0.000000 0.000000
    outer loop
      vertex -224.444370 0.000000 305.885716
      vertex -224.444370 -5000.000000 694.114284
      vertex -224.444370 0.000000 694.114284
    endloop
  endfacet
  facet normal -1.000000 0.000000 0.000000
    outer loop
      vertex -224.444370 0.000000 305.885716
      vertex -224.444370 -5000.000000 305.885716
      vertex -224.444370 -5000.000000 694.114284
    endloop
  endfacet
  facet normal -0.866025 0.000000 -0.500000
    outer loop
      vertex -30.330086 0.000000 -30.330086
      vertex -224.444370 -5000.000000 305.885716
      vertex -224.444370 0.000000 305.885716
    endloop
  endfacet
  facet normal -0.866025 0.000000 -0.500000
    outer loop
      vertex -30.330086 0.000000 -30.330086
      vertex -30.330086 -5000.000000 -30.330086
      vertex -224.444370 -5000.000000 305.885716
    endloop
  endfacet
  facet normal -0.500000 0.000000 -0.866025
    outer loop
      vertex 305.885716 0.000000 -224.444370
      vertex -30.330086 -5000.000000 -30.330086
      vertex -30.330086 0.000000 -30.330086
    endloop
  endfacet
  facet normal -0.500000 0.000000 -0.866025
    outer loop
      vertex 305.885716 0.000000 -224.444370
      vertex 305.885716 -5000.000000 -224.444370
      vertex -30.330086 -5000.000000 -30.330086
    endloop
  endfacet
  facet normal -0.000000 0.000000 -1.000000
    outer loop
      vertex 694.114284 -5000.000000 -224.444370
      vertex 305.885716 -5000.000000 -224.444370
      vertex 694.114284 0.000000 -224.444370
    endloop
  endfacet
  facet normal -0.000000 0.000000 -1.000000
    outer loop
      vertex 305.885716 -5000.000000 -224.444370
      vertex 305.885716 0.000000 -224.444370
      vertex 694.114284 0.000000 -224.444370
    endloop
  endfacet
  facet normal 1.000000 -0.000000 0.000000
    outer loop
      vertex 6000.000000 1000.000000 -500.100000
      vertex 6000.000000 2038.268343 -342.487953
      vertex 6000.000000 1961.731657 -342.487953
    endloop
  endfacet
  facet normal 1.000000 -0.000000 0.000000
    outer loop
      vertex 6000.000000 1000.000000 -0.100000
      vertex 6000.000000 1000.000000 -500.100000
      vertex 6000.000000 1961.731657 -342.487953
    endloop
  endfacet
  facet normal 1.000000 -0.000000 0.000000
    outer loop
      vertex 6000.000000 1000.000000 -0.100000
      vertex 6000.000000 1961.731657 -342.487953
      vertex 6000.000000 1907.612047 -288.368343
    endloop
  endfacet
  facet normal 1.000000 -0.000000 0.000000
    outer loop
      vertex 6000.000000 1000.000000 -0.100000
      vertex 6000.000000 1907.612047 -288.368343
      vertex 6000.000000 1907.612047 -211.831657
    endloop
  endfacet
  facet normal 1.000000 -0.000000 0.000000
    outer loop
      vertex 6000.000000 1000.000000 -0.100000
      vertex 6000.000000 1907.612047 -211.831657
      vertex 6000.000000 1961.731657 -157.712047
    endloop
  endfacet
  facet normal 1.000000 -0.000000 0.000000
    outer loop
      vertex 6000.000000 3000.000000 -0.100000
      vertex 6000.000000 1000.000000 -0.100000
      vertex 6000.000000 1961.731657 -157.712047
    endloop
  endfacet
  facet normal 1.000000 -0.000000 0.000000
    outer loop
      vertex 6000.000000 3000.000000 -0.100000
      vertex 6000.000000 1961.731657 -157.712047
      vertex 6000.000000 2038.268343 -157.712047
    endloop
  endfacet
  facet normal 1.000000 -0.000000 0.000000
    outer loop
      vertex 6000.000000 3000.000000 -500.100000
      vertex 6000.000000 3000.000000 -0.100000
      vertex 6000.000000 2038.268343 -157.712047
    endloop
  endfacet
  facet normal 1.000000 -0.000000 0.000000
    outer loop
      vertex 6000.000000 3000.000000 -500.100000
      vertex 6000.000000 2038.268343 -157.712047
      vertex 6000.000000 2092.387953 -211.831657
    endloop
  endfacet
  facet normal 1.000000 -0.000000 0.000000
    outer loop
      vertex 6000.000000 3000.000000 -500.100000
      vertex 6000.000000 2092.387953 -211.831657
      vertex 6000.000000 2092.387953 -288.368343
    endloop
  endfacet
  facet normal 1.000000 -0.000000 0.000000
    outer loop
      vertex 6000.000000 3000.000000 -500.100000
      vertex 6000.000000 2092.387953 -288.368343
      vertex 6000.000000 2038.268343 -342.487953
    endloop
  endfacet
  facet normal 1.000000 -0.000000 0.000000
    outer loop
      vertex 6000.000000 1000.000000 -500.100000
      vertex 6000.000000 3000.000000 -500.100000
      vertex 6000.000000 2038.268343 -342.487953
    endloop
  endfacet
  facet normal -1.000000 0.000000 0.000000
    outer loop
      vertex -1000.000000 3000.000000 -0.100000
      vertex -1000.000000 2038.268343 -157.712047
      vertex -1000.000000 1000.000000 -0.100000
    endloop
  endfacet
  facet normal -1.000000 0.000000 0.000000
    outer loop
      vertex -1000.000000 1000.000000 -0.100000
      vertex -1000.000000 2038.268343 -157.712047
      vertex -1000.000000 1961.731657 -157.712047
    endloop
  endfacet
  facet normal -1.000000 0.000000 0.000000
    outer loop
      vertex -1000.000000 1000.000000 -500.100000
      vertex -1000.000000 1000.000000 -0.100000
      vertex -1000.000000 1961.731657 -157.712047
    endloop
  endfacet
  facet normal -1.000000 0.000000 0.000000
    outer loop
      vertex -1000.000000 1000.000000 -500.100000
      vertex -1000.000000 1961.731657 -157.712047
      vertex -1000.000000 1907.612047 -211.831657
    endloop
  endfacet
  facet normal -1.000000 0.000000 0.000000
    outer loop
      vertex -1000.000000 1000.000000 -500.100000
      vertex -1000.000000 1907.612047 -211.831657
      vertex -1000.000000 1907.612047 -288.368343
    endloop
  endfacet
  facet normal -1.000000 0.000000 0.000000
    outer loop
      vertex -1000.000000 1000.000000 -500.100000
      vertex -1000.000000 1907.612047 -288.368343
      vertex -1000.000000 1961.731657 -342.487953
    endloop
  endfacet
  facet normal -1.000000 0.000000 0.000000
    outer loop
      vertex -1000.000000 3000.000000 -500.100000
      vertex -1000.000000 1000.000000 -500.100000
      vertex -1000.000000 1961.731657 -342.487953
    endloop
  endfacet
  facet normal -1.000000 0.000000 0.000000
    outer loop
      vertex -1000.000000 3000.000000 -500.100000
      vertex -1000.000000 1961.731657 -342.487953
      vertex -1000.000000 2038.268343 -342.487953
    endloop
  endfacet
  facet normal -1.000000 0.000000 0.000000
    outer loop
      vertex -1000.000000 3000.000000 -0.100000
      vertex -1000.000000 3000.000000 -500.100000
      vertex -1000.000000 2038.268343 -342.487953
    endloop
  endfacet
  facet normal -1.000000 0.000000 0.000000
    outer loop
      vertex -1000.000000 3000.000000 -0.100000
      vertex -1000.000000 2038.268343 -342.487953
      vertex -1000.000000 2092.387953 -288.368343
    endloop
  endfacet
  facet normal -1.000000 0.000000 0.000000
    outer loop
      vertex -1000.000000 3000.000000 -0.100000
      vertex -1000.000000 2092.387953 -288.368343
      vertex -1000.000000 2092.387953 -211.831657
    endloop
  endfacet
  facet normal -1.000000 0.000000 0.000000
    outer loop
      vertex -1000.000000 3000.000000 -0.100000
      vertex -1000.000000 2092.387953 -211.831657
      vertex -1000.000000 2038.268343 -157.712047
    endloop
  endfacet
  facet normal 0.000000 -1.000000 0.000000
    outer loop
      vertex -1000.000000 1000.000000 -0.100000
      vertex 6000.000000 1000.000000 -500.100000
      vertex 6000.000000 1000.000000 -0.100000
    endloop
  endfacet
  facet normal 0.000000 -1.000000 0.000000
    outer loop
      vertex -1000.000000 1000.000000 -0.100000
      vertex -1000.000000 1000.000000 -500.100000
      vertex 6000.000000 1000.000000 -500.100000
    endloop
  endfacet
  facet normal 0.000000 1.000000 0.000000
    outer loop
      vertex 6000.000000 3000.000000 -500.100000
      vertex -1000.000000 3000.000000 -500.100000
      vertex 6000.000000 3000.000000 -0.100000
    endloop
  endfacet
  facet normal 0.000000 1.000000 0.000000
    outer loop
      vertex -1000.000000 3000.000000 -500.100000
      vertex -1000.000000 3000.000000 -0.100000
      vertex 6000.000000 3000.000000 -0.100000
    endloop
  endfacet
  facet normal -0.000000 0.000000 -1.000000
    outer loop
      vertex 6000.000000 3000.000000 -500.100000
      vertex -1000.000000 1000.000000 -500.100000
      vertex -1000.000000 3000.000000 -500.100000
    endloop
  endfacet
  facet normal -0.000000 0.000000 -1.000000
    outer loop
      vertex 6000.000000 3000.000000 -500.100000
      vertex 6000.000000 1000.000000 -500.100000
      vertex -1000.000000 1000.000000 -500.100000
    endloop
  endfacet
  facet normal 0.000000 0.000000 1.000000
    outer loop
      vertex -1000.000000 3000.000000 -0.100000
      vertex 6000.000000 1000.000000 -0.100000
      vertex 6000.000000 3000.000000 -0.100000
    endloop
  endfacet
  facet normal 0.000000 0.000000 1.000000
    outer loop
      vertex -1000.000000 3000.000000 -0.100000
      vertex -1000.000000 1000.000000 -0.100000
      vertex 6000.000000 1000.000000 -0.100000
    endloop
  endfacet
  facet normal 1.000000 -0.000000 0.000000
    outer loop
      vertex 5000.000000 4000.000000 1000.000000
      vertex 5000.000000 0.000000 0.000000
      vertex 5000.000000 4000.000000 0.000000
    endloop
  endfacet
  facet normal 1.000000 -0.000000 0.000000
    outer loop
      vertex 5000.000000 4000.000000 1000.000000
      vertex 5000.000000 0.000000 1000.000000
      vertex 5000.000000 0.000000 0.000000
    endloop
  endfacet
  facet normal -1.000000 0.000000 0.000000
    outer loop
      vertex 4000.000000 4000.000000 0.000000
      vertex 4000.000000 0.000000 1000.000000
      vertex 4000.000000 4000.000000 1000.000000
    endloop
  endfacet
  facet normal -1.000000 0.000000 0.000000
    outer loop
      vertex 4000.000000 4000.000000 0.000000
      vertex 4000.000000 0.000000 0.000000
      vertex 4000.000000 0.000000 1000.000000
    endloop
  endfacet
  facet normal 0.000000 1.000000 0.000000
    outer loop
      vertex 5000.000000 4000.000000 0.000000
      vertex 4000.000000 4000.000000 0.000000
      vertex 5000.000000 4000.000000 1000.000000
    endloop
  endfacet
  facet normal 0.000000 1.000000 0.000000
    outer loop
      vertex 4000.000000 4000.000000 0.000000
      vertex 4000.000000 4000.000000 1000.000000
      vertex 5000.000000 4000.000000 1000.000000
    endloop
  endfacet
  facet normal -0.000000 0.000000 -1.000000
    outer loop
      vertex 5000.000000 4000.000000 0.000000
      vertex 4000.000000 0.000000 0.000000
      vertex 4000.000000 4000.000000 0.000000
    endloop
  endfacet
  facet normal -0.000000 0.000000 -1.000000
    outer loop
      vertex 5000.000000 4000.000000 0.000000
      vertex 5000.000000 0.000000 0.000000
      vertex 4000.000000 0.000000 0.000000
    endloop
  endfacet
  facet normal 0.000000 0.000000 1.000000
    outer loop
      vertex 4000.000000 4000.000000 1000.000000
      vertex 5000.000000 0.000000 1000.000000
      vertex 5000.000000 4000.000000 1000.000000
    endloop
  endfacet
  facet normal 0.000000 0.000000 1.000000
    outer loop
      vertex 4000.000000 4000.000000 1000.000000
      vertex 4000.000000 0.000000 1000.000000
      vertex 5000.000000 0.000000 1000.000000
    endloop
  endfacet
  facet normal 0.000000 0.000000 1.000000
    outer loop
      vertex 0.000000 4000.000000 1000.000000
      vertex 1000.000000 0.000000 1000.000000
      vertex 1000.000000 4000.000000 1000.000000
    endloop
  endfacet
  facet normal 0.000000 0.000000 1.000000
    outer loop
      vertex 0.000000 4000.000000 1000.000000
      vertex 0.000000 0.000000 1000.000000
      vertex 1000.000000 0.000000 1000.000000
    endloop
  endfacet
  facet normal -0.000000 0.000000 -1.000000
    outer loop
      vertex 1000.000000 4000.000000 0.000000
      vertex 0.000000 0.000000 0.000000
      vertex 0.000000 4000.000000 0.000000
    endloop
  endfacet
  facet normal -0.000000 0.000000 -1.000000
    outer loop
      vertex 1000.000000 4000.000000 0.000000
      vertex 1000.000000 0.000000 0.000000
      vertex 0.000000 0.000000 0.000000
    endloop
  endfacet
  facet normal 0.000000 1.000000 0.000000
    outer loop
      vertex 1000.000000 4000.000000 0.000000
      vertex 0.000000 4000.000000 0.000000
      vertex 1000.000000 4000.000000 1000.000000
    endloop
  endfacet
  facet normal 0.000000 1.000000 0.000000
    outer loop
      vertex 0.000000 4000.000000 0.000000
      vertex 0.000000 4000.000000 1000.000000
      vertex 1000.000000 4000.000000 1000.000000
    endloop
  endfacet
  facet normal -1.000000 0.000000 0.000000
    outer loop
      vertex 0.000000 4000.000000 0.000000
      vertex 0.000000 0.000000 1000.000000
      vertex 0.000000 4000.000000 1000.000000
    endloop
  endfacet
  facet normal -1.000000 0.000000 0.000000
    outer loop
      vertex 0.000000 4000.000000 0.000000
      vertex 0.000000 0.000000 0.000000
      vertex 0.000000 0.000000 1000.000000
    endloop
  endfacet
  facet normal 1.000000 -0.000000 0.000000
    outer loop
      vertex 1000.000000 4000.000000 1000.000000
      vertex 1000.000000 0.000000 0.000000
      vertex 1000.000000 4000.000000 0.000000
    endloop
  endfacet
  facet normal 1.000000 -0.000000 0.000000
    outer loop
      vertex 1000.000000 4000.000000 1000.000000
      vertex 1000.000000 0.000000 1000.000000
      vertex 1000.000000 0.000000 0.000000
    endloop
  endfacet
  facet normal 0.000000 0.000000 1.000000
    outer loop
      vertex 2000.000000 4000.000000 1000.000000
      vertex 3000.000000 0.000000 1000.000000
      vertex 3000.000000 4000.000000 1000.000000
    endloop
  endfacet
  facet normal 0.000000 0.000000 1.000000
    outer loop
      vertex 2000.000000 4000.000000 1000.000000
      vertex 2000.000000 0.000000 1000.000000
      vertex 3000.000000 0.000000 1000.000000
    endloop
  endfacet
  facet normal -0.000000 0.000000 -1.000000
    outer loop
      vertex 3000.000000 4000.000000 0.000000
      vertex 2000.000000 0.000000 0.000000
      vertex 2000.000000 4000.000000 0.000000
    endloop
  endfacet
  facet normal -0.000000 0.000000 -1.000000
    outer loop
      vertex 3000.000000 4000.000000 0.000000
      vertex 3000.000000 0.000000 0.000000
      vertex 2000.000000 0.000000 0.000000
    endloop
  endfacet
  facet normal 0.000000 1.000000 0.000000
    outer loop
      vertex 3000.000000 4000.000000 0.000000
      vertex 2000.000000 4000.000000 0.000000
      vertex 3000.000000 4000.000000 1000.000000
    endloop
  endfacet
  facet normal 0.000000 1.000000 0.000000
    outer loop
      vertex 2000.000000 4000.000000 0.000000
      vertex 2000.000000 4000.000000 1000.000000
      vertex 3000.000000 4000.000000 1000.000000
    endloop
  endfacet
  facet normal -1.000000 0.000000 0.000000
    outer loop
      vertex 2000.000000 4000.000000 0.000000
      vertex 2000.000000 0.000000 1000.000000
      vertex 2000.000000 4000.000000 1000.000000
    endloop
  endfacet
  facet normal -1.000000 0.000000 0.000000
    outer loop
      vertex 2000.000000 4000.000000 0.000000
      vertex 2000.000000 0.000000 0.000000
      vertex 2000.000000 0.000000 1000.000000
    endloop
  endfacet
  facet normal 1.000000 -0.000000 0.000000
    outer loop
      vertex 3000.000000 4000.000000 1000.000000
      vertex 3000.000000 0.000000 0.000000
      vertex 3000.000000 4000.000000 0.000000
    endloop
  endfacet
  facet normal 1.000000 -0.000000 0.000000
    outer loop
      vertex 3000.000000 4000.000000 1000.000000
      vertex 3000.000000 0.000000 1000.000000
      vertex 3000.000000 0.000000 0.000000
    endloop
  endfacet
endsolid pump_and_connections.r
