solid brlcad_tcl__slice2_num3.c/brlcad_tcl__slice_bb2_num3.s
  facet normal 1.000000 -0.000000 0.000000
    outer loop
      vertex 3000.000000 4000.000000 666.666667
      vertex 3000.000000 4000.000000 1000.000000
      vertex 3000.000000 0.000000 666.666667
    endloop
  endfacet
  facet normal 1.000000 -0.000000 0.000000
    outer loop
      vertex 3000.000000 4000.000000 1000.000000
      vertex 3000.000000 0.000000 1000.000000
      vertex 3000.000000 0.000000 666.666667
    endloop
  endfacet
  facet normal -1.000000 0.000000 0.000000
    outer loop
      vertex 2000.000000 4000.000000 666.666667
      vertex 2000.000000 0.000000 1000.000000
      vertex 2000.000000 4000.000000 1000.000000
    endloop
  endfacet
  facet normal -1.000000 0.000000 0.000000
    outer loop
      vertex 2000.000000 4000.000000 666.666667
      vertex 2000.000000 0.000000 666.666667
      vertex 2000.000000 0.000000 1000.000000
    endloop
  endfacet
  facet normal 0.000000 0.000000 1.000000
    outer loop
      vertex 2000.000000 4000.000000 1000.000000
      vertex 3000.000000 0.000000 1000.000000
      vertex 3000.000000 4000.000000 1000.000000
    endloop
  endfacet
  facet normal 0.000000 0.000000 1.000000
    outer loop
      vertex 2000.000000 4000.000000 1000.000000
      vertex 2000.000000 0.000000 1000.000000
      vertex 3000.000000 0.000000 1000.000000
    endloop
  endfacet
  facet normal 1.000000 -0.000000 0.000000
    outer loop
      vertex 1000.000000 4000.000000 666.666667
      vertex 1000.000000 4000.000000 1000.000000
      vertex 1000.000000 0.000000 666.666667
    endloop
  endfacet
  facet normal 1.000000 -0.000000 0.000000
    outer loop
      vertex 1000.000000 4000.000000 1000.000000
      vertex 1000.000000 0.000000 1000.000000
      vertex 1000.000000 0.000000 666.666667
    endloop
  endfacet
  facet normal -1.000000 0.000000 0.000000
    outer loop
      vertex 0.000000 4000.000000 666.666667
      vertex 0.000000 0.000000 1000.000000
      vertex 0.000000 4000.000000 1000.000000
    endloop
  endfacet
  facet normal -1.000000 0.000000 0.000000
    outer loop
      vertex 0.000000 4000.000000 666.666667
      vertex 0.000000 0.000000 666.666667
      vertex 0.000000 0.000000 1000.000000
    endloop
  endfacet
  facet normal 0.000000 0.000000 1.000000
    outer loop
      vertex 0.000000 4000.000000 1000.000000
      vertex 1000.000000 0.000000 1000.000000
      vertex 1000.000000 4000.000000 1000.000000
    endloop
  endfacet
  facet normal 0.000000 0.000000 1.000000
    outer loop
      vertex 0.000000 4000.000000 1000.000000
      vertex 0.000000 0.000000 1000.000000
      vertex 1000.000000 0.000000 1000.000000
    endloop
  endfacet
  facet normal 0.000000 0.000000 1.000000
    outer loop
      vertex 4000.000000 4000.000000 1000.000000
      vertex 5000.000000 0.000000 1000.000000
      vertex 5000.000000 4000.000000 1000.000000
    endloop
  endfacet
  facet normal 0.000000 0.000000 1.000000
    outer loop
      vertex 4000.000000 4000.000000 1000.000000
      vertex 4000.000000 0.000000 1000.000000
      vertex 5000.000000 0.000000 1000.000000
    endloop
  endfacet
  facet normal -1.000000 0.000000 0.000000
    outer loop
      vertex 4000.000000 4000.000000 666.666667
      vertex 4000.000000 0.000000 1000.000000
      vertex 4000.000000 4000.000000 1000.000000
    endloop
  endfacet
  facet normal -1.000000 0.000000 0.000000
    outer loop
      vertex 4000.000000 4000.000000 666.666667
      vertex 4000.000000 0.000000 666.666667
      vertex 4000.000000 0.000000 1000.000000
    endloop
  endfacet
  facet normal 1.000000 -0.000000 0.000000
    outer loop
      vertex 5000.000000 4000.000000 666.666667
      vertex 5000.000000 4000.000000 1000.000000
      vertex 5000.000000 0.000000 666.666667
    endloop
  endfacet
  facet normal 1.000000 -0.000000 0.000000
    outer loop
      vertex 5000.000000 4000.000000 1000.000000
      vertex 5000.000000 0.000000 1000.000000
      vertex 5000.000000 0.000000 666.666667
    endloop
  endfacet
  facet normal -1.000000 0.000000 0.000000
    outer loop
      vertex -224.444370 0.000000 666.666667
      vertex -224.444370 -5000.000000 694.114284
      vertex -224.444370 0.000000 694.114284
    endloop
  endfacet
  facet normal -1.000000 0.000000 0.000000
    outer loop
      vertex -224.444370 0.000000 666.666667
      vertex -224.444370 -5000.000000 666.666667
      vertex -224.444370 -5000.000000 694.114284
    endloop
  endfacet
  facet normal -0.866025 0.000000 0.500000
    outer loop
      vertex -224.444370 0.000000 694.114284
      vertex -30.330086 -5000.000000 1030.330086
      vertex -30.330086 0.000000 1030.330086
    endloop
  endfacet
  facet normal -0.866025 0.000000 0.500000
    outer loop
      vertex -224.444370 0.000000 694.114284
      vertex -224.444370 -5000.000000 694.114284
      vertex -30.330086 -5000.000000 1030.330086
    endloop
  endfacet
  facet normal -0.500000 0.000000 0.866025
    outer loop
      vertex -30.330086 0.000000 1030.330086
      vertex 305.885716 -5000.000000 1224.444370
      vertex 305.885716 0.000000 1224.444370
    endloop
  endfacet
  facet normal -0.500000 0.000000 0.866025
    outer loop
      vertex -30.330086 0.000000 1030.330086
      vertex -30.330086 -5000.000000 1030.330086
      vertex 305.885716 -5000.000000 1224.444370
    endloop
  endfacet
  facet normal 0.000000 0.000000 1.000000
    outer loop
      vertex 305.885716 0.000000 1224.444370
      vertex 694.114284 -5000.000000 1224.444370
      vertex 694.114284 0.000000 1224.444370
    endloop
  endfacet
  facet normal 0.000000 0.000000 1.000000
    outer loop
      vertex 305.885716 0.000000 1224.444370
      vertex 305.885716 -5000.000000 1224.444370
      vertex 694.114284 -5000.000000 1224.444370
    endloop
  endfacet
  facet normal 0.500000 0.000000 0.866025
    outer loop
      vertex 694.114284 0.000000 1224.444370
      vertex 1030.330086 -5000.000000 1030.330086
      vertex 1030.330086 0.000000 1030.330086
    endloop
  endfacet
  facet normal 0.500000 0.000000 0.866025
    outer loop
      vertex 694.114284 0.000000 1224.444370
      vertex 694.114284 -5000.000000 1224.444370
      vertex 1030.330086 -5000.000000 1030.330086
    endloop
  endfacet
  facet normal 0.866025 0.000000 0.500000
    outer loop
      vertex 1030.330086 0.000000 1030.330086
      vertex 1224.444370 -5000.000000 694.114284
      vertex 1224.444370 0.000000 694.114284
    endloop
  endfacet
  facet normal 0.866025 0.000000 0.500000
    outer loop
      vertex 1030.330086 0.000000 1030.330086
      vertex 1030.330086 -5000.000000 1030.330086
      vertex 1224.444370 -5000.000000 694.114284
    endloop
  endfacet
  facet normal 1.000000 0.000000 0.000000
    outer loop
      vertex 1224.444370 0.000000 666.666667
      vertex 1224.444370 0.000000 694.114284
      vertex 1224.444370 -5000.000000 666.666667
    endloop
  endfacet
  facet normal 1.000000 0.000000 0.000000
    outer loop
      vertex 1224.444370 0.000000 694.114284
      vertex 1224.444370 -5000.000000 694.114284
      vertex 1224.444370 -5000.000000 666.666667
    endloop
  endfacet
  facet normal 0.000000 1.000000 0.000000
    outer loop
      vertex 1224.444370 0.000000 666.666667
      vertex 1030.330086 0.000000 1030.330086
      vertex 1224.444370 0.000000 694.114284
    endloop
  endfacet
  facet normal 0.000000 1.000000 0.000000
    outer loop
      vertex -224.444370 0.000000 666.666667
      vertex -224.444370 0.000000 694.114284
      vertex -30.330086 0.000000 1030.330086
    endloop
  endfacet
  facet normal 0.000000 1.000000 0.000000
    outer loop
      vertex 0.000000 0.000000 666.666667
      vertex -224.444370 0.000000 666.666667
      vertex -30.330086 0.000000 1030.330086
    endloop
  endfacet
  facet normal 0.000000 1.000000 0.000000
    outer loop
      vertex 0.000000 0.000000 1000.000000
      vertex 0.000000 0.000000 666.666667
      vertex -30.330086 0.000000 1030.330086
    endloop
  endfacet
  facet normal 0.000000 1.000000 0.000000
    outer loop
      vertex 1000.000000 0.000000 1000.000000
      vertex 0.000000 0.000000 1000.000000
      vertex -30.330086 0.000000 1030.330086
    endloop
  endfacet
  facet normal 0.000000 1.000000 0.000000
    outer loop
      vertex 1000.000000 0.000000 1000.000000
      vertex -30.330086 0.000000 1030.330086
      vertex 305.885716 0.000000 1224.444370
    endloop
  endfacet
  facet normal 0.000000 1.000000 0.000000
    outer loop
      vertex 1000.000000 0.000000 1000.000000
      vertex 305.885716 0.000000 1224.444370
      vertex 694.114284 0.000000 1224.444370
    endloop
  endfacet
  facet normal 0.000000 1.000000 0.000000
    outer loop
      vertex 1000.000000 0.000000 1000.000000
      vertex 694.114284 0.000000 1224.444370
      vertex 1030.330086 0.000000 1030.330086
    endloop
  endfacet
  facet normal 0.000000 1.000000 0.000000
    outer loop
      vertex 1000.000000 0.000000 666.666667
      vertex 1000.000000 0.000000 1000.000000
      vertex 1030.330086 0.000000 1030.330086
    endloop
  endfacet
  facet normal 0.000000 1.000000 0.000000
    outer loop
      vertex 1224.444370 0.000000 666.666667
      vertex 1000.000000 0.000000 666.666667
      vertex 1030.330086 0.000000 1030.330086
    endloop
  endfacet
  facet normal -1.000000 0.000000 0.000000
    outer loop
      vertex 1775.555630 0.000000 666.666667
      vertex 1775.555630 -5000.000000 694.114284
      vertex 1775.555630 0.000000 694.114284
    endloop
  endfacet
  facet normal -1.000000 0.000000 0.000000
    outer loop
      vertex 1775.555630 0.000000 666.666667
      vertex 1775.555630 -5000.000000 666.666667
      vertex 1775.555630 -5000.000000 694.114284
    endloop
  endfacet
  facet normal -0.866025 0.000000 0.500000
    outer loop
      vertex 1775.555630 0.000000 694.114284
      vertex 1969.669914 -5000.000000 1030.330086
      vertex 1969.669914 0.000000 1030.330086
    endloop
  endfacet
  facet normal -0.866025 0.000000 0.500000
    outer loop
      vertex 1775.555630 0.000000 694.114284
      vertex 1775.555630 -5000.000000 694.114284
      vertex 1969.669914 -5000.000000 1030.330086
    endloop
  endfacet
  facet normal -0.500000 0.000000 0.866025
    outer loop
      vertex 1969.669914 0.000000 1030.330086
      vertex 2305.885716 -5000.000000 1224.444370
      vertex 2305.885716 0.000000 1224.444370
    endloop
  endfacet
  facet normal -0.500000 0.000000 0.866025
    outer loop
      vertex 1969.669914 0.000000 1030.330086
      vertex 1969.669914 -5000.000000 1030.330086
      vertex 2305.885716 -5000.000000 1224.444370
    endloop
  endfacet
  facet normal 0.000000 0.000000 1.000000
    outer loop
      vertex 2305.885716 0.000000 1224.444370
      vertex 2694.114284 -5000.000000 1224.444370
      vertex 2694.114284 0.000000 1224.444370
    endloop
  endfacet
  facet normal 0.000000 0.000000 1.000000
    outer loop
      vertex 2305.885716 0.000000 1224.444370
      vertex 2305.885716 -5000.000000 1224.444370
      vertex 2694.114284 -5000.000000 1224.444370
    endloop
  endfacet
  facet normal 0.500000 0.000000 0.866025
    outer loop
      vertex 2694.114284 0.000000 1224.444370
      vertex 3030.330086 -5000.000000 1030.330086
      vertex 3030.330086 0.000000 1030.330086
    endloop
  endfacet
  facet normal 0.500000 0.000000 0.866025
    outer loop
      vertex 2694.114284 0.000000 1224.444370
      vertex 2694.114284 -5000.000000 1224.444370
      vertex 3030.330086 -5000.000000 1030.330086
    endloop
  endfacet
  facet normal 0.866025 0.000000 0.500000
    outer loop
      vertex 3030.330086 0.000000 1030.330086
      vertex 3224.444370 -5000.000000 694.114284
      vertex 3224.444370 0.000000 694.114284
    endloop
  endfacet
  facet normal 0.866025 0.000000 0.500000
    outer loop
      vertex 3030.330086 0.000000 1030.330086
      vertex 3030.330086 -5000.000000 1030.330086
      vertex 3224.444370 -5000.000000 694.114284
    endloop
  endfacet
  facet normal 1.000000 0.000000 0.000000
    outer loop
      vertex 3224.444370 0.000000 666.666667
      vertex 3224.444370 0.000000 694.114284
      vertex 3224.444370 -5000.000000 666.666667
    endloop
  endfacet
  facet normal 1.000000 0.000000 0.000000
    outer loop
      vertex 3224.444370 0.000000 694.114284
      vertex 3224.444370 -5000.000000 694.114284
      vertex 3224.444370 -5000.000000 666.666667
    endloop
  endfacet
  facet normal 0.000000 1.000000 0.000000
    outer loop
      vertex 3224.444370 0.000000 666.666667
      vertex 3030.330086 0.000000 1030.330086
      vertex 3224.444370 0.000000 694.114284
    endloop
  endfacet
  facet normal 0.000000 1.000000 0.000000
    outer loop
      vertex 1775.555630 0.000000 666.666667
      vertex 1775.555630 0.000000 694.114284
      vertex 1969.669914 0.000000 1030.330086
    endloop
  endfacet
  facet normal 0.000000 1.000000 0.000000
    outer loop
      vertex 2000.000000 0.000000 666.666667
      vertex 1775.555630 0.000000 666.666667
      vertex 1969.669914 0.000000 1030.330086
    endloop
  endfacet
  facet normal 0.000000 1.000000 0.000000
    outer loop
      vertex 2000.000000 0.000000 1000.000000
      vertex 2000.000000 0.000000 666.666667
      vertex 1969.669914 0.000000 1030.330086
    endloop
  endfacet
  facet normal 0.000000 1.000000 0.000000
    outer loop
      vertex 3000.000000 0.000000 1000.000000
      vertex 2000.000000 0.000000 1000.000000
      vertex 1969.669914 0.000000 1030.330086
    endloop
  endfacet
  facet normal 0.000000 1.000000 0.000000
    outer loop
      vertex 3000.000000 0.000000 1000.000000
      vertex 1969.669914 0.000000 1030.330086
      vertex 2305.885716 0.000000 1224.444370
    endloop
  endfacet
  facet normal 0.000000 1.000000 0.000000
    outer loop
      vertex 3000.000000 0.000000 1000.000000
      vertex 2305.885716 0.000000 1224.444370
      vertex 2694.114284 0.000000 1224.444370
    endloop
  endfacet
  facet normal 0.000000 1.000000 0.000000
    outer loop
      vertex 3000.000000 0.000000 1000.000000
      vertex 2694.114284 0.000000 1224.444370
      vertex 3030.330086 0.000000 1030.330086
    endloop
  endfacet
  facet normal 0.000000 1.000000 0.000000
    outer loop
      vertex 3000.000000 0.000000 666.666667
      vertex 3000.000000 0.000000 1000.000000
      vertex 3030.330086 0.000000 1030.330086
    endloop
  endfacet
  facet normal 0.000000 1.000000 0.000000
    outer loop
      vertex 3224.444370 0.000000 666.666667
      vertex 3000.000000 0.000000 666.666667
      vertex 3030.330086 0.000000 1030.330086
    endloop
  endfacet
  facet normal -1.000000 0.000000 0.000000
    outer loop
      vertex 3775.555630 0.000000 666.666667
      vertex 3775.555630 -5000.000000 694.114284
      vertex 3775.555630 0.000000 694.114284
    endloop
  endfacet
  facet normal -1.000000 0.000000 0.000000
    outer loop
      vertex 3775.555630 0.000000 666.666667
      vertex 3775.555630 -5000.000000 666.666667
      vertex 3775.555630 -5000.000000 694.114284
    endloop
  endfacet
  facet normal -0.866025 0.000000 0.500000
    outer loop
      vertex 3775.555630 0.000000 694.114284
      vertex 3969.669914 -5000.000000 1030.330086
      vertex 3969.669914 0.000000 1030.330086
    endloop
  endfacet
  facet normal -0.866025 0.000000 0.500000
    outer loop
      vertex 3775.555630 0.000000 694.114284
      vertex 3775.555630 -5000.000000 694.114284
      vertex 3969.669914 -5000.000000 1030.330086
    endloop
  endfacet
  facet normal -0.500000 0.000000 0.866025
    outer loop
      vertex 3969.669914 0.000000 1030.330086
      vertex 4305.885716 -5000.000000 1224.444370
      vertex 4305.885716 0.000000 1224.444370
    endloop
  endfacet
  facet normal -0.500000 0.000000 0.866025
    outer loop
      vertex 3969.669914 0.000000 1030.330086
      vertex 3969.669914 -5000.000000 1030.330086
      vertex 4305.885716 -5000.000000 1224.444370
    endloop
  endfacet
  facet normal 0.000000 0.000000 1.000000
    outer loop
      vertex 4305.885716 0.000000 1224.444370
      vertex 4694.114284 -5000.000000 1224.444370
      vertex 4694.114284 0.000000 1224.444370
    endloop
  endfacet
  facet normal 0.000000 0.000000 1.000000
    outer loop
      vertex 4305.885716 0.000000 1224.444370
      vertex 4305.885716 -5000.000000 1224.444370
      vertex 4694.114284 -5000.000000 1224.444370
    endloop
  endfacet
  facet normal 0.500000 0.000000 0.866025
    outer loop
      vertex 4694.114284 0.000000 1224.444370
      vertex 5030.330086 -5000.000000 1030.330086
      vertex 5030.330086 0.000000 1030.330086
    endloop
  endfacet
  facet normal 0.500000 0.000000 0.866025
    outer loop
      vertex 4694.114284 0.000000 1224.444370
      vertex 4694.114284 -5000.000000 1224.444370
      vertex 5030.330086 -5000.000000 1030.330086
    endloop
  endfacet
  facet normal 0.866025 0.000000 0.500000
    outer loop
      vertex 5030.330086 0.000000 1030.330086
      vertex 5224.444370 -5000.000000 694.114284
      vertex 5224.444370 0.000000 694.114284
    endloop
  endfacet
  facet normal 0.866025 0.000000 0.500000
    outer loop
      vertex 5030.330086 0.000000 1030.330086
      vertex 5030.330086 -5000.000000 1030.330086
      vertex 5224.444370 -5000.000000 694.114284
    endloop
  endfacet
  facet normal 1.000000 0.000000 0.000000
    outer loop
      vertex 5224.444370 0.000000 666.666667
      vertex 5224.444370 0.000000 694.114284
      vertex 5224.444370 -5000.000000 666.666667
    endloop
  endfacet
  facet normal 1.000000 0.000000 0.000000
    outer loop
      vertex 5224.444370 0.000000 694.114284
      vertex 5224.444370 -5000.000000 694.114284
      vertex 5224.444370 -5000.000000 666.666667
    endloop
  endfacet
  facet normal 0.000000 1.000000 0.000000
    outer loop
      vertex 5224.444370 0.000000 666.666667
      vertex 5030.330086 0.000000 1030.330086
      vertex 5224.444370 0.000000 694.114284
    endloop
  endfacet
  facet normal 0.000000 1.000000 0.000000
    outer loop
      vertex 3775.555630 0.000000 666.666667
      vertex 3775.555630 0.000000 694.114284
      vertex 3969.669914 0.000000 1030.330086
    endloop
  endfacet
  facet normal 0.000000 1.000000 0.000000
    outer loop
      vertex 4000.000000 0.000000 666.666667
      vertex 3775.555630 0.000000 666.666667
      vertex 3969.669914 0.000000 1030.330086
    endloop
  endfacet
  facet normal 0.000000 1.000000 0.000000
    outer loop
      vertex 4000.000000 0.000000 1000.000000
      vertex 4000.000000 0.000000 666.666667
      vertex 3969.669914 0.000000 1030.330086
    endloop
  endfacet
  facet normal 0.000000 1.000000 0.000000
    outer loop
      vertex 5000.000000 0.000000 1000.000000
      vertex 4000.000000 0.000000 1000.000000
      vertex 3969.669914 0.000000 1030.330086
    endloop
  endfacet
  facet normal 0.000000 1.000000 0.000000
    outer loop
      vertex 5000.000000 0.000000 1000.000000
      vertex 3969.669914 0.000000 1030.330086
      vertex 4305.885716 0.000000 1224.444370
    endloop
  endfacet
  facet normal 0.000000 1.000000 0.000000
    outer loop
      vertex 5000.000000 0.000000 1000.000000
      vertex 4305.885716 0.000000 1224.444370
      vertex 4694.114284 0.000000 1224.444370
    endloop
  endfacet
  facet normal 0.000000 1.000000 0.000000
    outer loop
      vertex 5000.000000 0.000000 1000.000000
      vertex 4694.114284 0.000000 1224.444370
      vertex 5030.330086 0.000000 1030.330086
    endloop
  endfacet
  facet normal 0.000000 1.000000 0.000000
    outer loop
      vertex 5000.000000 0.000000 666.666667
      vertex 5000.000000 0.000000 1000.000000
      vertex 5030.330086 0.000000 1030.330086
    endloop
  endfacet
  facet normal 0.000000 1.000000 0.000000
    outer loop
      vertex 5224.444370 0.000000 666.666667
      vertex 5000.000000 0.000000 666.666667
      vertex 5030.330086 0.000000 1030.330086
    endloop
  endfacet
  facet normal -0.000000 0.000000 -1.000000
    outer loop
      vertex 4000.000000 4000.000000 666.666667
      vertex 5000.000000 4000.000000 666.666667
      vertex 4000.000000 0.000000 666.666667
    endloop
  endfacet
  facet normal -0.000000 0.000000 -1.000000
    outer loop
      vertex 0.000000 4000.000000 666.666667
      vertex 1000.000000 4000.000000 666.666667
      vertex 0.000000 0.000000 666.666667
    endloop
  endfacet
  facet normal -0.000000 0.000000 -1.000000
    outer loop
      vertex 2000.000000 4000.000000 666.666667
      vertex 3000.000000 4000.000000 666.666667
      vertex 2000.000000 0.000000 666.666667
    endloop
  endfacet
  facet normal -0.000000 0.000000 -1.000000
    outer loop
      vertex 5000.000000 0.000000 666.666667
      vertex 5224.444370 0.000000 666.666667
      vertex 5224.444370 -5000.000000 666.666667
    endloop
  endfacet
  facet normal -0.000000 0.000000 -1.000000
    outer loop
      vertex 5000.000000 0.000000 666.666667
      vertex 5224.444370 -5000.000000 666.666667
      vertex 3775.555630 -5000.000000 666.666667
    endloop
  endfacet
  facet normal -0.000000 0.000000 -1.000000
    outer loop
      vertex 5000.000000 4000.000000 666.666667
      vertex 5000.000000 0.000000 666.666667
      vertex 3775.555630 -5000.000000 666.666667
    endloop
  endfacet
  facet normal -0.000000 0.000000 -1.000000
    outer loop
      vertex 3775.555630 -5000.000000 666.666667
      vertex 3775.555630 0.000000 666.666667
      vertex 4000.000000 0.000000 666.666667
    endloop
  endfacet
  facet normal -0.000000 0.000000 -1.000000
    outer loop
      vertex 5000.000000 4000.000000 666.666667
      vertex 3775.555630 -5000.000000 666.666667
      vertex 4000.000000 0.000000 666.666667
    endloop
  endfacet
  facet normal -0.000000 0.000000 -1.000000
    outer loop
      vertex 1000.000000 0.000000 666.666667
      vertex 1224.444370 0.000000 666.666667
      vertex 1224.444370 -5000.000000 666.666667
    endloop
  endfacet
  facet normal -0.000000 0.000000 -1.000000
    outer loop
      vertex 1000.000000 0.000000 666.666667
      vertex 1224.444370 -5000.000000 666.666667
      vertex -224.444370 -5000.000000 666.666667
    endloop
  endfacet
  facet normal -0.000000 0.000000 -1.000000
    outer loop
      vertex 1000.000000 4000.000000 666.666667
      vertex 1000.000000 0.000000 666.666667
      vertex -224.444370 -5000.000000 666.666667
    endloop
  endfacet
  facet normal -0.000000 0.000000 -1.000000
    outer loop
      vertex -224.444370 -5000.000000 666.666667
      vertex -224.444370 0.000000 666.666667
      vertex 0.000000 0.000000 666.666667
    endloop
  endfacet
  facet normal -0.000000 0.000000 -1.000000
    outer loop
      vertex 1000.000000 4000.000000 666.666667
      vertex -224.444370 -5000.000000 666.666667
      vertex 0.000000 0.000000 666.666667
    endloop
  endfacet
  facet normal -0.000000 0.000000 -1.000000
    outer loop
      vertex 3000.000000 0.000000 666.666667
      vertex 3224.444370 0.000000 666.666667
      vertex 3224.444370 -5000.000000 666.666667
    endloop
  endfacet
  facet normal -0.000000 0.000000 -1.000000
    outer loop
      vertex 3000.000000 0.000000 666.666667
      vertex 3224.444370 -5000.000000 666.666667
      vertex 1775.555630 -5000.000000 666.666667
    endloop
  endfacet
  facet normal -0.000000 0.000000 -1.000000
    outer loop
      vertex 3000.000000 4000.000000 666.666667
      vertex 3000.000000 0.000000 666.666667
      vertex 1775.555630 -5000.000000 666.666667
    endloop
  endfacet
  facet normal -0.000000 0.000000 -1.000000
    outer loop
      vertex 1775.555630 -5000.000000 666.666667
      vertex 1775.555630 0.000000 666.666667
      vertex 2000.000000 0.000000 666.666667
    endloop
  endfacet
  facet normal -0.000000 0.000000 -1.000000
    outer loop
      vertex 3000.000000 4000.000000 666.666667
      vertex 1775.555630 -5000.000000 666.666667
      vertex 2000.000000 0.000000 666.666667
    endloop
  endfacet
  facet normal 0.000000 1.000000 0.000000
    outer loop
      vertex 4000.000000 4000.000000 666.666667
      vertex 5000.000000 4000.000000 1000.000000
      vertex 5000.000000 4000.000000 666.666667
    endloop
  endfacet
  facet normal 0.000000 1.000000 0.000000
    outer loop
      vertex 1000.000000 4000.000000 666.666667
      vertex 0.000000 4000.000000 666.666667
      vertex 1000.000000 4000.000000 1000.000000
    endloop
  endfacet
  facet normal 0.000000 1.000000 0.000000
    outer loop
      vertex 3000.000000 4000.000000 666.666667
      vertex 2000.000000 4000.000000 666.666667
      vertex 3000.000000 4000.000000 1000.000000
    endloop
  endfacet
  facet normal 0.000000 1.000000 0.000000
    outer loop
      vertex 4000.000000 4000.000000 666.666667
      vertex 4000.000000 4000.000000 1000.000000
      vertex 5000.000000 4000.000000 1000.000000
    endloop
  endfacet
  facet normal 0.000000 1.000000 0.000000
    outer loop
      vertex 0.000000 4000.000000 666.666667
      vertex 0.000000 4000.000000 1000.000000
      vertex 1000.000000 4000.000000 1000.000000
    endloop
  endfacet
  facet normal 0.000000 1.000000 0.000000
    outer loop
      vertex 2000.000000 4000.000000 666.666667
      vertex 2000.000000 4000.000000 1000.000000
      vertex 3000.000000 4000.000000 1000.000000
    endloop
  endfacet
  facet normal 0.000000 -1.000000 -0.000000
    outer loop
      vertex 3775.555630 -5000.000000 666.666667
      vertex 5224.444370 -5000.000000 666.666667
      vertex 3775.555630 -5000.000000 694.114284
    endloop
  endfacet
  facet normal 0.000000 -1.000000 -0.000000
    outer loop
      vertex 1775.555630 -5000.000000 666.666667
      vertex 3224.444370 -5000.000000 666.666667
      vertex 1775.555630 -5000.000000 694.114284
    endloop
  endfacet
  facet normal 0.000000 -1.000000 -0.000000
    outer loop
      vertex -224.444370 -5000.000000 666.666667
      vertex 1224.444370 -5000.000000 666.666667
      vertex -224.444370 -5000.000000 694.114284
    endloop
  endfacet
  facet normal 0.000000 -1.000000 -0.000000
    outer loop
      vertex 4305.885716 -5000.000000 1224.444370
      vertex 3969.669914 -5000.000000 1030.330086
      vertex 3775.555630 -5000.000000 694.114284
    endloop
  endfacet
  facet normal 0.000000 -1.000000 -0.000000
    outer loop
      vertex 4694.114284 -5000.000000 1224.444370
      vertex 4305.885716 -5000.000000 1224.444370
      vertex 3775.555630 -5000.000000 694.114284
    endloop
  endfacet
  facet normal 0.000000 -1.000000 -0.000000
    outer loop
      vertex 5030.330086 -5000.000000 1030.330086
      vertex 4694.114284 -5000.000000 1224.444370
      vertex 3775.555630 -5000.000000 694.114284
    endloop
  endfacet
  facet normal 0.000000 -1.000000 -0.000000
    outer loop
      vertex 5224.444370 -5000.000000 694.114284
      vertex 5030.330086 -5000.000000 1030.330086
      vertex 3775.555630 -5000.000000 694.114284
    endloop
  endfacet
  facet normal 0.000000 -1.000000 -0.000000
    outer loop
      vertex 5224.444370 -5000.000000 666.666667
      vertex 5224.444370 -5000.000000 694.114284
      vertex 3775.555630 -5000.000000 694.114284
    endloop
  endfacet
  facet normal 0.000000 -1.000000 -0.000000
    outer loop
      vertex 2305.885716 -5000.000000 1224.444370
      vertex 1969.669914 -5000.000000 1030.330086
      vertex 1775.555630 -5000.000000 694.114284
    endloop
  endfacet
  facet normal 0.000000 -1.000000 -0.000000
    outer loop
      vertex 2694.114284 -5000.000000 1224.444370
      vertex 2305.885716 -5000.000000 1224.444370
      vertex 1775.555630 -5000.000000 694.114284
    endloop
  endfacet
  facet normal 0.000000 -1.000000 -0.000000
    outer loop
      vertex 3030.330086 -5000.000000 1030.330086
      vertex 2694.114284 -5000.000000 1224.444370
      vertex 1775.555630 -5000.000000 694.114284
    endloop
  endfacet
  facet normal 0.000000 -1.000000 -0.000000
    outer loop
      vertex 3224.444370 -5000.000000 694.114284
      vertex 3030.330086 -5000.000000 1030.330086
      vertex 1775.555630 -5000.000000 694.114284
    endloop
  endfacet
  facet normal 0.000000 -1.000000 -0.000000
    outer loop
      vertex 3224.444370 -5000.000000 666.666667
      vertex 3224.444370 -5000.000000 694.114284
      vertex 1775.555630 -5000.000000 694.114284
    endloop
  endfacet
  facet normal 0.000000 -1.000000 -0.000000
    outer loop
      vertex 305.885716 -5000.000000 1224.444370
      vertex -30.330086 -5000.000000 1030.330086
      vertex -224.444370 -5000.000000 694.114284
    endloop
  endfacet
  facet normal 0.000000 -1.000000 -0.000000
    outer loop
      vertex 694.114284 -5000.000000 1224.444370
      vertex 305.885716 -5000.000000 1224.444370
      vertex -224.444370 -5000.000000 694.114284
    endloop
  endfacet
  facet normal 0.000000 -1.000000 -0.000000
    outer loop
      vertex 1030.330086 -5000.000000 1030.330086
      vertex 694.114284 -5000.000000 1224.444370
      vertex -224.444370 -5000.000000 694.114284
    endloop
  endfacet
  facet normal 0.000000 -1.000000 -0.000000
    outer loop
      vertex 1224.444370 -5000.000000 694.114284
      vertex 1030.330086 -5000.000000 1030.330086
      vertex -224.444370 -5000.000000 694.114284
    endloop
  endfacet
  facet normal 0.000000 -1.000000 -0.000000
    outer loop
      vertex 1224.444370 -5000.000000 666.666667
      vertex 1224.444370 -5000.000000 694.114284
      vertex -224.444370 -5000.000000 694.114284
    endloop
  endfacet
endsolid brlcad_tcl__slice2_num3.c/brlcad_tcl__slice_bb2_num3.s
