solid brlcad_tcl__slice0_num3.c/brlcad_tcl__slice_bb0_num3.s
  facet normal 1.000000 -0.000000 0.000000
    outer loop
      vertex 3000.000000 4000.000000 83.333333
      vertex 3000.000000 3000.000000 0.000000
      vertex 3000.000000 4000.000000 0.000000
    endloop
  endfacet
  facet normal 1.000000 -0.000000 0.000000
    outer loop
      vertex 3000.000000 4000.000000 83.333333
      vertex 3000.000000 0.000000 83.333333
      vertex 3000.000000 0.000000 0.000000
    endloop
  endfacet
  facet normal 1.000000 -0.000000 0.000000
    outer loop
      vertex 3000.000000 4000.000000 83.333333
      vertex 3000.000000 0.000000 0.000000
      vertex 3000.000000 1000.000000 0.000000
    endloop
  endfacet
  facet normal 1.000000 -0.000000 0.000000
    outer loop
      vertex 3000.000000 4000.000000 83.333333
      vertex 3000.000000 1000.000000 0.000000
      vertex 3000.000000 3000.000000 0.000000
    endloop
  endfacet
  facet normal -1.000000 0.000000 0.000000
    outer loop
      vertex 2000.000000 0.000000 83.333333
      vertex 2000.000000 1000.000000 0.000000
      vertex 2000.000000 0.000000 0.000000
    endloop
  endfacet
  facet normal -1.000000 0.000000 0.000000
    outer loop
      vertex 2000.000000 4000.000000 0.000000
      vertex 2000.000000 3000.000000 0.000000
      vertex 2000.000000 1000.000000 0.000000
    endloop
  endfacet
  facet normal -1.000000 0.000000 0.000000
    outer loop
      vertex 2000.000000 4000.000000 83.333333
      vertex 2000.000000 4000.000000 0.000000
      vertex 2000.000000 1000.000000 0.000000
    endloop
  endfacet
  facet normal -1.000000 0.000000 0.000000
    outer loop
      vertex 2000.000000 0.000000 83.333333
      vertex 2000.000000 4000.000000 83.333333
      vertex 2000.000000 1000.000000 0.000000
    endloop
  endfacet
  facet normal 1.000000 -0.000000 0.000000
    outer loop
      vertex 1000.000000 4000.000000 83.333333
      vertex 1000.000000 3000.000000 0.000000
      vertex 1000.000000 4000.000000 0.000000
    endloop
  endfacet
  facet normal 1.000000 -0.000000 0.000000
    outer loop
      vertex 1000.000000 4000.000000 83.333333
      vertex 1000.000000 0.000000 83.333333
      vertex 1000.000000 0.000000 0.000000
    endloop
  endfacet
  facet normal 1.000000 -0.000000 0.000000
    outer loop
      vertex 1000.000000 4000.000000 83.333333
      vertex 1000.000000 0.000000 0.000000
      vertex 1000.000000 1000.000000 0.000000
    endloop
  endfacet
  facet normal 1.000000 -0.000000 0.000000
    outer loop
      vertex 1000.000000 4000.000000 83.333333
      vertex 1000.000000 1000.000000 0.000000
      vertex 1000.000000 3000.000000 0.000000
    endloop
  endfacet
  facet normal -1.000000 0.000000 0.000000
    outer loop
      vertex 0.000000 0.000000 83.333333
      vertex 0.000000 1000.000000 0.000000
      vertex 0.000000 0.000000 0.000000
    endloop
  endfacet
  facet normal -1.000000 0.000000 0.000000
    outer loop
      vertex 0.000000 4000.000000 0.000000
      vertex 0.000000 3000.000000 0.000000
      vertex 0.000000 1000.000000 0.000000
    endloop
  endfacet
  facet normal -1.000000 0.000000 0.000000
    outer loop
      vertex 0.000000 4000.000000 83.333333
      vertex 0.000000 4000.000000 0.000000
      vertex 0.000000 1000.000000 0.000000
    endloop
  endfacet
  facet normal -1.000000 0.000000 0.000000
    outer loop
      vertex 0.000000 0.000000 83.333333
      vertex 0.000000 4000.000000 83.333333
      vertex 0.000000 1000.000000 0.000000
    endloop
  endfacet
  facet normal -0.000000 -0.000000 -1.000000
    outer loop
      vertex 1000.000000 4000.000000 0.000000
      vertex 0.000000 3000.000000 0.000000
      vertex 0.000000 4000.000000 0.000000
    endloop
  endfacet
  facet normal -0.000000 -0.000000 -1.000000
    outer loop
      vertex 1000.000000 1000.000000 0.000000
      vertex 0.000000 0.000000 0.000000
      vertex 0.000000 1000.000000 0.000000
    endloop
  endfacet
  facet normal -0.000000 -0.000000 -1.000000
    outer loop
      vertex 3000.000000 4000.000000 0.000000
      vertex 2000.000000 3000.000000 0.000000
      vertex 2000.000000 4000.000000 0.000000
    endloop
  endfacet
  facet normal -0.000000 -0.000000 -1.000000
    outer loop
      vertex 3000.000000 1000.000000 0.000000
      vertex 2000.000000 0.000000 0.000000
      vertex 2000.000000 1000.000000 0.000000
    endloop
  endfacet
  facet normal -0.000000 -0.000000 -1.000000
    outer loop
      vertex 1000.000000 4000.000000 0.000000
      vertex 1000.000000 3000.000000 0.000000
      vertex 0.000000 3000.000000 0.000000
    endloop
  endfacet
  facet normal -0.000000 -0.000000 -1.000000
    outer loop
      vertex 1000.000000 1000.000000 0.000000
      vertex 1000.000000 0.000000 0.000000
      vertex 0.000000 0.000000 0.000000
    endloop
  endfacet
  facet normal -0.000000 -0.000000 -1.000000
    outer loop
      vertex 3000.000000 4000.000000 0.000000
      vertex 3000.000000 3000.000000 0.000000
      vertex 2000.000000 3000.000000 0.000000
    endloop
  endfacet
  facet normal -0.000000 -0.000000 -1.000000
    outer loop
      vertex 3000.000000 1000.000000 0.000000
      vertex 3000.000000 0.000000 0.000000
      vertex 2000.000000 0.000000 0.000000
    endloop
  endfacet
  facet normal 1.000000 -0.000000 0.000000
    outer loop
      vertex 6000.000000 1000.000000 -500.000000
      vertex 6000.000000 2038.268343 -342.387953
      vertex 6000.000000 1961.731657 -342.387953
    endloop
  endfacet
  facet normal 1.000000 -0.000000 0.000000
    outer loop
      vertex 6000.000000 1000.000000 0.000000
      vertex 6000.000000 1000.000000 -500.000000
      vertex 6000.000000 1961.731657 -342.387953
    endloop
  endfacet
  facet normal 1.000000 -0.000000 0.000000
    outer loop
      vertex 6000.000000 1000.000000 0.000000
      vertex 6000.000000 1961.731657 -342.387953
      vertex 6000.000000 1907.612047 -288.268343
    endloop
  endfacet
  facet normal 1.000000 -0.000000 0.000000
    outer loop
      vertex 6000.000000 1000.000000 0.000000
      vertex 6000.000000 1907.612047 -288.268343
      vertex 6000.000000 1907.612047 -211.731657
    endloop
  endfacet
  facet normal 1.000000 -0.000000 0.000000
    outer loop
      vertex 6000.000000 1000.000000 0.000000
      vertex 6000.000000 1907.612047 -211.731657
      vertex 6000.000000 1961.731657 -157.612047
    endloop
  endfacet
  facet normal 1.000000 -0.000000 0.000000
    outer loop
      vertex 6000.000000 3000.000000 0.000000
      vertex 6000.000000 1000.000000 0.000000
      vertex 6000.000000 1961.731657 -157.612047
    endloop
  endfacet
  facet normal 1.000000 -0.000000 0.000000
    outer loop
      vertex 6000.000000 3000.000000 0.000000
      vertex 6000.000000 1961.731657 -157.612047
      vertex 6000.000000 2038.268343 -157.612047
    endloop
  endfacet
  facet normal 1.000000 -0.000000 0.000000
    outer loop
      vertex 6000.000000 3000.000000 -500.000000
      vertex 6000.000000 3000.000000 0.000000
      vertex 6000.000000 2038.268343 -157.612047
    endloop
  endfacet
  facet normal 1.000000 -0.000000 0.000000
    outer loop
      vertex 6000.000000 3000.000000 -500.000000
      vertex 6000.000000 2038.268343 -157.612047
      vertex 6000.000000 2092.387953 -211.731657
    endloop
  endfacet
  facet normal 1.000000 -0.000000 0.000000
    outer loop
      vertex 6000.000000 3000.000000 -500.000000
      vertex 6000.000000 2092.387953 -211.731657
      vertex 6000.000000 2092.387953 -288.268343
    endloop
  endfacet
  facet normal 1.000000 -0.000000 0.000000
    outer loop
      vertex 6000.000000 3000.000000 -500.000000
      vertex 6000.000000 2092.387953 -288.268343
      vertex 6000.000000 2038.268343 -342.387953
    endloop
  endfacet
  facet normal 1.000000 -0.000000 0.000000
    outer loop
      vertex 6000.000000 1000.000000 -500.000000
      vertex 6000.000000 3000.000000 -500.000000
      vertex 6000.000000 2038.268343 -342.387953
    endloop
  endfacet
  facet normal -1.000000 0.000000 0.000000
    outer loop
      vertex -1000.000000 3000.000000 0.000000
      vertex -1000.000000 2038.268343 -157.612047
      vertex -1000.000000 1000.000000 0.000000
    endloop
  endfacet
  facet normal -1.000000 0.000000 0.000000
    outer loop
      vertex -1000.000000 1000.000000 0.000000
      vertex -1000.000000 2038.268343 -157.612047
      vertex -1000.000000 1961.731657 -157.612047
    endloop
  endfacet
  facet normal -1.000000 0.000000 0.000000
    outer loop
      vertex -1000.000000 1000.000000 -500.000000
      vertex -1000.000000 1000.000000 0.000000
      vertex -1000.000000 1961.731657 -157.612047
    endloop
  endfacet
  facet normal -1.000000 0.000000 0.000000
    outer loop
      vertex -1000.000000 1000.000000 -500.000000
      vertex -1000.000000 1961.731657 -157.612047
      vertex -1000.000000 1907.612047 -211.731657
    endloop
  endfacet
  facet normal -1.000000 0.000000 0.000000
    outer loop
      vertex -1000.000000 1000.000000 -500.000000
      vertex -1000.000000 1907.612047 -211.731657
      vertex -1000.000000 1907.612047 -288.268343
    endloop
  endfacet
  facet normal -1.000000 0.000000 0.000000
    outer loop
      vertex -1000.000000 1000.000000 -500.000000
      vertex -1000.000000 1907.612047 -288.268343
      vertex -1000.000000 1961.731657 -342.387953
    endloop
  endfacet
  facet normal -1.000000 0.000000 0.000000
    outer loop
      vertex -1000.000000 3000.000000 -500.000000
      vertex -1000.000000 1000.000000 -500.000000
      vertex -1000.000000 1961.731657 -342.387953
    endloop
  endfacet
  facet normal -1.000000 0.000000 0.000000
    outer loop
      vertex -1000.000000 3000.000000 -500.000000
      vertex -1000.000000 1961.731657 -342.387953
      vertex -1000.000000 2038.268343 -342.387953
    endloop
  endfacet
  facet normal -1.000000 0.000000 0.000000
    outer loop
      vertex -1000.000000 3000.000000 0.000000
      vertex -1000.000000 3000.000000 -500.000000
      vertex -1000.000000 2038.268343 -342.387953
    endloop
  endfacet
  facet normal -1.000000 0.000000 0.000000
    outer loop
      vertex -1000.000000 3000.000000 0.000000
      vertex -1000.000000 2038.268343 -342.387953
      vertex -1000.000000 2092.387953 -288.268343
    endloop
  endfacet
  facet normal -1.000000 0.000000 0.000000
    outer loop
      vertex -1000.000000 3000.000000 0.000000
      vertex -1000.000000 2092.387953 -288.268343
      vertex -1000.000000 2092.387953 -211.731657
    endloop
  endfacet
  facet normal -1.000000 0.000000 0.000000
    outer loop
      vertex -1000.000000 3000.000000 0.000000
      vertex -1000.000000 2092.387953 -211.731657
      vertex -1000.000000 2038.268343 -157.612047
    endloop
  endfacet
  facet normal 0.000000 -1.000000 0.000000
    outer loop
      vertex 5000.000000 1000.000000 0.000000
      vertex 6000.000000 1000.000000 -500.000000
      vertex 6000.000000 1000.000000 0.000000
    endloop
  endfacet
  facet normal 0.000000 -1.000000 0.000000
    outer loop
      vertex -1000.000000 1000.000000 0.000000
      vertex -1000.000000 1000.000000 -500.000000
      vertex 6000.000000 1000.000000 -500.000000
    endloop
  endfacet
  facet normal 0.000000 -1.000000 0.000000
    outer loop
      vertex 0.000000 1000.000000 0.000000
      vertex -1000.000000 1000.000000 0.000000
      vertex 6000.000000 1000.000000 -500.000000
    endloop
  endfacet
  facet normal 0.000000 -1.000000 0.000000
    outer loop
      vertex 1000.000000 1000.000000 0.000000
      vertex 0.000000 1000.000000 0.000000
      vertex 6000.000000 1000.000000 -500.000000
    endloop
  endfacet
  facet normal 0.000000 -1.000000 0.000000
    outer loop
      vertex 2000.000000 1000.000000 0.000000
      vertex 1000.000000 1000.000000 0.000000
      vertex 6000.000000 1000.000000 -500.000000
    endloop
  endfacet
  facet normal 0.000000 -1.000000 0.000000
    outer loop
      vertex 3000.000000 1000.000000 0.000000
      vertex 2000.000000 1000.000000 0.000000
      vertex 6000.000000 1000.000000 -500.000000
    endloop
  endfacet
  facet normal 0.000000 -1.000000 0.000000
    outer loop
      vertex 4000.000000 1000.000000 0.000000
      vertex 3000.000000 1000.000000 0.000000
      vertex 6000.000000 1000.000000 -500.000000
    endloop
  endfacet
  facet normal 0.000000 -1.000000 0.000000
    outer loop
      vertex 5000.000000 1000.000000 0.000000
      vertex 4000.000000 1000.000000 0.000000
      vertex 6000.000000 1000.000000 -500.000000
    endloop
  endfacet
  facet normal 0.000000 1.000000 0.000000
    outer loop
      vertex 6000.000000 3000.000000 -500.000000
      vertex 5000.000000 3000.000000 0.000000
      vertex 6000.000000 3000.000000 0.000000
    endloop
  endfacet
  facet normal 0.000000 1.000000 0.000000
    outer loop
      vertex -1000.000000 3000.000000 -500.000000
      vertex -1000.000000 3000.000000 0.000000
      vertex 0.000000 3000.000000 0.000000
    endloop
  endfacet
  facet normal 0.000000 1.000000 0.000000
    outer loop
      vertex 6000.000000 3000.000000 -500.000000
      vertex -1000.000000 3000.000000 -500.000000
      vertex 0.000000 3000.000000 0.000000
    endloop
  endfacet
  facet normal 0.000000 1.000000 0.000000
    outer loop
      vertex 6000.000000 3000.000000 -500.000000
      vertex 0.000000 3000.000000 0.000000
      vertex 1000.000000 3000.000000 0.000000
    endloop
  endfacet
  facet normal 0.000000 1.000000 0.000000
    outer loop
      vertex 6000.000000 3000.000000 -500.000000
      vertex 1000.000000 3000.000000 0.000000
      vertex 2000.000000 3000.000000 0.000000
    endloop
  endfacet
  facet normal 0.000000 1.000000 0.000000
    outer loop
      vertex 6000.000000 3000.000000 -500.000000
      vertex 2000.000000 3000.000000 0.000000
      vertex 3000.000000 3000.000000 0.000000
    endloop
  endfacet
  facet normal 0.000000 1.000000 0.000000
    outer loop
      vertex 6000.000000 3000.000000 -500.000000
      vertex 3000.000000 3000.000000 0.000000
      vertex 4000.000000 3000.000000 0.000000
    endloop
  endfacet
  facet normal 0.000000 1.000000 0.000000
    outer loop
      vertex 6000.000000 3000.000000 -500.000000
      vertex 4000.000000 3000.000000 0.000000
      vertex 5000.000000 3000.000000 0.000000
    endloop
  endfacet
  facet normal 0.000000 0.000000 1.000000
    outer loop
      vertex 5000.000000 3000.000000 0.000000
      vertex 6000.000000 1000.000000 0.000000
      vertex 6000.000000 3000.000000 0.000000
    endloop
  endfacet
  facet normal 0.000000 0.000000 1.000000
    outer loop
      vertex 0.000000 3000.000000 0.000000
      vertex -1000.000000 3000.000000 0.000000
      vertex 0.000000 1000.000000 0.000000
    endloop
  endfacet
  facet normal 0.000000 0.000000 1.000000
    outer loop
      vertex 3000.000000 3000.000000 0.000000
      vertex 4000.000000 1000.000000 0.000000
      vertex 4000.000000 3000.000000 0.000000
    endloop
  endfacet
  facet normal 0.000000 0.000000 1.000000
    outer loop
      vertex 2000.000000 3000.000000 0.000000
      vertex 1000.000000 3000.000000 0.000000
      vertex 2000.000000 1000.000000 0.000000
    endloop
  endfacet
  facet normal 0.000000 0.000000 1.000000
    outer loop
      vertex 5000.000000 3000.000000 0.000000
      vertex 5000.000000 1000.000000 0.000000
      vertex 6000.000000 1000.000000 0.000000
    endloop
  endfacet
  facet normal 0.000000 0.000000 1.000000
    outer loop
      vertex -1000.000000 3000.000000 0.000000
      vertex -1000.000000 1000.000000 0.000000
      vertex 0.000000 1000.000000 0.000000
    endloop
  endfacet
  facet normal 0.000000 0.000000 1.000000
    outer loop
      vertex 3000.000000 3000.000000 0.000000
      vertex 3000.000000 1000.000000 0.000000
      vertex 4000.000000 1000.000000 0.000000
    endloop
  endfacet
  facet normal 0.000000 0.000000 1.000000
    outer loop
      vertex 1000.000000 3000.000000 0.000000
      vertex 1000.000000 1000.000000 0.000000
      vertex 2000.000000 1000.000000 0.000000
    endloop
  endfacet
  facet normal -0.000000 -0.000000 -1.000000
    outer loop
      vertex 5000.000000 4000.000000 0.000000
      vertex 4000.000000 3000.000000 0.000000
      vertex 4000.000000 4000.000000 0.000000
    endloop
  endfacet
  facet normal -0.000000 -0.000000 -1.000000
    outer loop
      vertex 5000.000000 1000.000000 0.000000
      vertex 4000.000000 0.000000 0.000000
      vertex 4000.000000 1000.000000 0.000000
    endloop
  endfacet
  facet normal -0.000000 -0.000000 -1.000000
    outer loop
      vertex 5000.000000 4000.000000 0.000000
      vertex 5000.000000 3000.000000 0.000000
      vertex 4000.000000 3000.000000 0.000000
    endloop
  endfacet
  facet normal -0.000000 -0.000000 -1.000000
    outer loop
      vertex 5000.000000 1000.000000 0.000000
      vertex 5000.000000 0.000000 0.000000
      vertex 4000.000000 0.000000 0.000000
    endloop
  endfacet
  facet normal -1.000000 0.000000 0.000000
    outer loop
      vertex 4000.000000 0.000000 83.333333
      vertex 4000.000000 1000.000000 0.000000
      vertex 4000.000000 0.000000 0.000000
    endloop
  endfacet
  facet normal -1.000000 0.000000 0.000000
    outer loop
      vertex 4000.000000 4000.000000 0.000000
      vertex 4000.000000 3000.000000 0.000000
      vertex 4000.000000 1000.000000 0.000000
    endloop
  endfacet
  facet normal -1.000000 0.000000 0.000000
    outer loop
      vertex 4000.000000 4000.000000 83.333333
      vertex 4000.000000 4000.000000 0.000000
      vertex 4000.000000 1000.000000 0.000000
    endloop
  endfacet
  facet normal -1.000000 0.000000 0.000000
    outer loop
      vertex 4000.000000 0.000000 83.333333
      vertex 4000.000000 4000.000000 83.333333
      vertex 4000.000000 1000.000000 0.000000
    endloop
  endfacet
  facet normal 1.000000 -0.000000 0.000000
    outer loop
      vertex 5000.000000 4000.000000 83.333333
      vertex 5000.000000 3000.000000 0.000000
      vertex 5000.000000 4000.000000 0.000000
    endloop
  endfacet
  facet normal 1.000000 -0.000000 0.000000
    outer loop
      vertex 5000.000000 4000.000000 83.333333
      vertex 5000.000000 0.000000 83.333333
      vertex 5000.000000 0.000000 0.000000
    endloop
  endfacet
  facet normal 1.000000 -0.000000 0.000000
    outer loop
      vertex 5000.000000 4000.000000 83.333333
      vertex 5000.000000 0.000000 0.000000
      vertex 5000.000000 1000.000000 0.000000
    endloop
  endfacet
  facet normal 1.000000 -0.000000 0.000000
    outer loop
      vertex 5000.000000 4000.000000 83.333333
      vertex 5000.000000 1000.000000 0.000000
      vertex 5000.000000 3000.000000 0.000000
    endloop
  endfacet
  facet normal -0.000000 0.000000 -1.000000
    outer loop
      vertex 694.114284 -5000.000000 -224.444370
      vertex 305.885716 -5000.000000 -224.444370
      vertex 694.114284 0.000000 -224.444370
    endloop
  endfacet
  facet normal -0.000000 0.000000 -1.000000
    outer loop
      vertex 305.885716 -5000.000000 -224.444370
      vertex 305.885716 0.000000 -224.444370
      vertex 694.114284 0.000000 -224.444370
    endloop
  endfacet
  facet normal -0.500000 0.000000 -0.866025
    outer loop
      vertex 305.885716 0.000000 -224.444370
      vertex -30.330086 -5000.000000 -30.330086
      vertex -30.330086 0.000000 -30.330086
    endloop
  endfacet
  facet normal -0.500000 0.000000 -0.866025
    outer loop
      vertex 305.885716 0.000000 -224.444370
      vertex 305.885716 -5000.000000 -224.444370
      vertex -30.330086 -5000.000000 -30.330086
    endloop
  endfacet
  facet normal -0.866025 0.000000 -0.500000
    outer loop
      vertex -95.953692 0.000000 83.333333
      vertex -30.330086 0.000000 -30.330086
      vertex -95.953692 -5000.000000 83.333333
    endloop
  endfacet
  facet normal -0.866025 0.000000 -0.500000
    outer loop
      vertex -30.330086 0.000000 -30.330086
      vertex -30.330086 -5000.000000 -30.330086
      vertex -95.953692 -5000.000000 83.333333
    endloop
  endfacet
  facet normal 0.866025 0.000000 -0.500000
    outer loop
      vertex 1095.953692 0.000000 83.333333
      vertex 1030.330086 -5000.000000 -30.330086
      vertex 1030.330086 0.000000 -30.330086
    endloop
  endfacet
  facet normal 0.866025 0.000000 -0.500000
    outer loop
      vertex 1095.953692 0.000000 83.333333
      vertex 1095.953692 -5000.000000 83.333333
      vertex 1030.330086 -5000.000000 -30.330086
    endloop
  endfacet
  facet normal 0.500000 0.000000 -0.866025
    outer loop
      vertex 1030.330086 0.000000 -30.330086
      vertex 694.114284 -5000.000000 -224.444370
      vertex 694.114284 0.000000 -224.444370
    endloop
  endfacet
  facet normal 0.500000 0.000000 -0.866025
    outer loop
      vertex 1030.330086 0.000000 -30.330086
      vertex 1030.330086 -5000.000000 -30.330086
      vertex 694.114284 -5000.000000 -224.444370
    endloop
  endfacet
  facet normal 0.000000 1.000000 0.000000
    outer loop
      vertex 1095.953692 0.000000 83.333333
      vertex 1000.000000 0.000000 0.000000
      vertex 1000.000000 0.000000 83.333333
    endloop
  endfacet
  facet normal 0.000000 1.000000 0.000000
    outer loop
      vertex -30.330086 0.000000 -30.330086
      vertex -95.953692 0.000000 83.333333
      vertex 0.000000 0.000000 83.333333
    endloop
  endfacet
  facet normal 0.000000 1.000000 0.000000
    outer loop
      vertex -30.330086 0.000000 -30.330086
      vertex 0.000000 0.000000 83.333333
      vertex 0.000000 0.000000 0.000000
    endloop
  endfacet
  facet normal 0.000000 1.000000 0.000000
    outer loop
      vertex 305.885716 0.000000 -224.444370
      vertex -30.330086 0.000000 -30.330086
      vertex 0.000000 0.000000 0.000000
    endloop
  endfacet
  facet normal 0.000000 1.000000 0.000000
    outer loop
      vertex 694.114284 0.000000 -224.444370
      vertex 305.885716 0.000000 -224.444370
      vertex 0.000000 0.000000 0.000000
    endloop
  endfacet
  facet normal 0.000000 1.000000 0.000000
    outer loop
      vertex 1030.330086 0.000000 -30.330086
      vertex 694.114284 0.000000 -224.444370
      vertex 0.000000 0.000000 0.000000
    endloop
  endfacet
  facet normal 0.000000 1.000000 0.000000
    outer loop
      vertex 1030.330086 0.000000 -30.330086
      vertex 0.000000 0.000000 0.000000
      vertex 1000.000000 0.000000 0.000000
    endloop
  endfacet
  facet normal 0.000000 1.000000 0.000000
    outer loop
      vertex 1095.953692 0.000000 83.333333
      vertex 1030.330086 0.000000 -30.330086
      vertex 1000.000000 0.000000 0.000000
    endloop
  endfacet
  facet normal -0.000000 0.000000 -1.000000
    outer loop
      vertex 2694.114284 -5000.000000 -224.444370
      vertex 2305.885716 -5000.000000 -224.444370
      vertex 2694.114284 0.000000 -224.444370
    endloop
  endfacet
  facet normal -0.000000 0.000000 -1.000000
    outer loop
      vertex 2305.885716 -5000.000000 -224.444370
      vertex 2305.885716 0.000000 -224.444370
      vertex 2694.114284 0.000000 -224.444370
    endloop
  endfacet
  facet normal -0.500000 0.000000 -0.866025
    outer loop
      vertex 2305.885716 0.000000 -224.444370
      vertex 1969.669914 -5000.000000 -30.330086
      vertex 1969.669914 0.000000 -30.330086
    endloop
  endfacet
  facet normal -0.500000 0.000000 -0.866025
    outer loop
      vertex 2305.885716 0.000000 -224.444370
      vertex 2305.885716 -5000.000000 -224.444370
      vertex 1969.669914 -5000.000000 -30.330086
    endloop
  endfacet
  facet normal -0.866025 0.000000 -0.500000
    outer loop
      vertex 1904.046308 0.000000 83.333333
      vertex 1969.669914 0.000000 -30.330086
      vertex 1904.046308 -5000.000000 83.333333
    endloop
  endfacet
  facet normal -0.866025 0.000000 -0.500000
    outer loop
      vertex 1969.669914 0.000000 -30.330086
      vertex 1969.669914 -5000.000000 -30.330086
      vertex 1904.046308 -5000.000000 83.333333
    endloop
  endfacet
  facet normal 0.866025 0.000000 -0.500000
    outer loop
      vertex 3095.953692 0.000000 83.333333
      vertex 3030.330086 -5000.000000 -30.330086
      vertex 3030.330086 0.000000 -30.330086
    endloop
  endfacet
  facet normal 0.866025 0.000000 -0.500000
    outer loop
      vertex 3095.953692 0.000000 83.333333
      vertex 3095.953692 -5000.000000 83.333333
      vertex 3030.330086 -5000.000000 -30.330086
    endloop
  endfacet
  facet normal 0.500000 0.000000 -0.866025
    outer loop
      vertex 3030.330086 0.000000 -30.330086
      vertex 2694.114284 -5000.000000 -224.444370
      vertex 2694.114284 0.000000 -224.444370
    endloop
  endfacet
  facet normal 0.500000 0.000000 -0.866025
    outer loop
      vertex 3030.330086 0.000000 -30.330086
      vertex 3030.330086 -5000.000000 -30.330086
      vertex 2694.114284 -5000.000000 -224.444370
    endloop
  endfacet
  facet normal 0.000000 1.000000 0.000000
    outer loop
      vertex 3095.953692 0.000000 83.333333
      vertex 3000.000000 0.000000 0.000000
      vertex 3000.000000 0.000000 83.333333
    endloop
  endfacet
  facet normal 0.000000 1.000000 0.000000
    outer loop
      vertex 1969.669914 0.000000 -30.330086
      vertex 1904.046308 0.000000 83.333333
      vertex 2000.000000 0.000000 83.333333
    endloop
  endfacet
  facet normal 0.000000 1.000000 0.000000
    outer loop
      vertex 1969.669914 0.000000 -30.330086
      vertex 2000.000000 0.000000 83.333333
      vertex 2000.000000 0.000000 0.000000
    endloop
  endfacet
  facet normal 0.000000 1.000000 0.000000
    outer loop
      vertex 2305.885716 0.000000 -224.444370
      vertex 1969.669914 0.000000 -30.330086
      vertex 2000.000000 0.000000 0.000000
    endloop
  endfacet
  facet normal 0.000000 1.000000 0.000000
    outer loop
      vertex 2694.114284 0.000000 -224.444370
      vertex 2305.885716 0.000000 -224.444370
      vertex 2000.000000 0.000000 0.000000
    endloop
  endfacet
  facet normal 0.000000 1.000000 0.000000
    outer loop
      vertex 3030.330086 0.000000 -30.330086
      vertex 2694.114284 0.000000 -224.444370
      vertex 2000.000000 0.000000 0.000000
    endloop
  endfacet
  facet normal 0.000000 1.000000 0.000000
    outer loop
      vertex 3030.330086 0.000000 -30.330086
      vertex 2000.000000 0.000000 0.000000
      vertex 3000.000000 0.000000 0.000000
    endloop
  endfacet
  facet normal 0.000000 1.000000 0.000000
    outer loop
      vertex 3095.953692 0.000000 83.333333
      vertex 3030.330086 0.000000 -30.330086
      vertex 3000.000000 0.000000 0.000000
    endloop
  endfacet
  facet normal -0.000000 0.000000 -1.000000
    outer loop
      vertex 4694.114284 -5000.000000 -224.444370
      vertex 4305.885716 -5000.000000 -224.444370
      vertex 4694.114284 0.000000 -224.444370
    endloop
  endfacet
  facet normal -0.000000 0.000000 -1.000000
    outer loop
      vertex 4305.885716 -5000.000000 -224.444370
      vertex 4305.885716 0.000000 -224.444370
      vertex 4694.114284 0.000000 -224.444370
    endloop
  endfacet
  facet normal -0.500000 0.000000 -0.866025
    outer loop
      vertex 4305.885716 0.000000 -224.444370
      vertex 3969.669914 -5000.000000 -30.330086
      vertex 3969.669914 0.000000 -30.330086
    endloop
  endfacet
  facet normal -0.500000 0.000000 -0.866025
    outer loop
      vertex 4305.885716 0.000000 -224.444370
      vertex 4305.885716 -5000.000000 -224.444370
      vertex 3969.669914 -5000.000000 -30.330086
    endloop
  endfacet
  facet normal -0.866025 0.000000 -0.500000
    outer loop
      vertex 3904.046308 0.000000 83.333333
      vertex 3969.669914 0.000000 -30.330086
      vertex 3904.046308 -5000.000000 83.333333
    endloop
  endfacet
  facet normal -0.866025 0.000000 -0.500000
    outer loop
      vertex 3969.669914 0.000000 -30.330086
      vertex 3969.669914 -5000.000000 -30.330086
      vertex 3904.046308 -5000.000000 83.333333
    endloop
  endfacet
  facet normal 0.866025 0.000000 -0.500000
    outer loop
      vertex 5095.953692 0.000000 83.333333
      vertex 5030.330086 -5000.000000 -30.330086
      vertex 5030.330086 0.000000 -30.330086
    endloop
  endfacet
  facet normal 0.866025 0.000000 -0.500000
    outer loop
      vertex 5095.953692 0.000000 83.333333
      vertex 5095.953692 -5000.000000 83.333333
      vertex 5030.330086 -5000.000000 -30.330086
    endloop
  endfacet
  facet normal 0.500000 0.000000 -0.866025
    outer loop
      vertex 5030.330086 0.000000 -30.330086
      vertex 4694.114284 -5000.000000 -224.444370
      vertex 4694.114284 0.000000 -224.444370
    endloop
  endfacet
  facet normal 0.500000 0.000000 -0.866025
    outer loop
      vertex 5030.330086 0.000000 -30.330086
      vertex 5030.330086 -5000.000000 -30.330086
      vertex 4694.114284 -5000.000000 -224.444370
    endloop
  endfacet
  facet normal 0.000000 1.000000 0.000000
    outer loop
      vertex 5095.953692 0.000000 83.333333
      vertex 5000.000000 0.000000 0.000000
      vertex 5000.000000 0.000000 83.333333
    endloop
  endfacet
  facet normal 0.000000 1.000000 0.000000
    outer loop
      vertex 3969.669914 0.000000 -30.330086
      vertex 3904.046308 0.000000 83.333333
      vertex 4000.000000 0.000000 83.333333
    endloop
  endfacet
  facet normal 0.000000 1.000000 0.000000
    outer loop
      vertex 3969.669914 0.000000 -30.330086
      vertex 4000.000000 0.000000 83.333333
      vertex 4000.000000 0.000000 0.000000
    endloop
  endfacet
  facet normal 0.000000 1.000000 0.000000
    outer loop
      vertex 4305.885716 0.000000 -224.444370
      vertex 3969.669914 0.000000 -30.330086
      vertex 4000.000000 0.000000 0.000000
    endloop
  endfacet
  facet normal 0.000000 1.000000 0.000000
    outer loop
      vertex 4694.114284 0.000000 -224.444370
      vertex 4305.885716 0.000000 -224.444370
      vertex 4000.000000 0.000000 0.000000
    endloop
  endfacet
  facet normal 0.000000 1.000000 0.000000
    outer loop
      vertex 5030.330086 0.000000 -30.330086
      vertex 4694.114284 0.000000 -224.444370
      vertex 4000.000000 0.000000 0.000000
    endloop
  endfacet
  facet normal 0.000000 1.000000 0.000000
    outer loop
      vertex 5030.330086 0.000000 -30.330086
      vertex 4000.000000 0.000000 0.000000
      vertex 5000.000000 0.000000 0.000000
    endloop
  endfacet
  facet normal 0.000000 1.000000 0.000000
    outer loop
      vertex 5095.953692 0.000000 83.333333
      vertex 5030.330086 0.000000 -30.330086
      vertex 5000.000000 0.000000 0.000000
    endloop
  endfacet
  facet normal 0.000000 -0.000000 1.000000
    outer loop
      vertex -6000.000000 2038.268343 -157.612047
      vertex -1000.000000 1961.731657 -157.612047
      vertex -1000.000000 2038.268343 -157.612047
    endloop
  endfacet
  facet normal 0.000000 -0.000000 1.000000
    outer loop
      vertex -6000.000000 2038.268343 -157.612047
      vertex -6000.000000 1961.731657 -157.612047
      vertex -1000.000000 1961.731657 -157.612047
    endloop
  endfacet
  facet normal 0.000000 -0.707107 0.707107
    outer loop
      vertex -6000.000000 1961.731657 -157.612047
      vertex -1000.000000 1907.612047 -211.731657
      vertex -1000.000000 1961.731657 -157.612047
    endloop
  endfacet
  facet normal 0.000000 -0.707107 0.707107
    outer loop
      vertex -6000.000000 1961.731657 -157.612047
      vertex -6000.000000 1907.612047 -211.731657
      vertex -1000.000000 1907.612047 -211.731657
    endloop
  endfacet
  facet normal 0.000000 -1.000000 0.000000
    outer loop
      vertex -6000.000000 1907.612047 -211.731657
      vertex -1000.000000 1907.612047 -288.268343
      vertex -1000.000000 1907.612047 -211.731657
    endloop
  endfacet
  facet normal 0.000000 -1.000000 0.000000
    outer loop
      vertex -6000.000000 1907.612047 -211.731657
      vertex -6000.000000 1907.612047 -288.268343
      vertex -1000.000000 1907.612047 -288.268343
    endloop
  endfacet
  facet normal 0.000000 -0.707107 -0.707107
    outer loop
      vertex -6000.000000 1907.612047 -288.268343
      vertex -1000.000000 1961.731657 -342.387953
      vertex -1000.000000 1907.612047 -288.268343
    endloop
  endfacet
  facet normal 0.000000 -0.707107 -0.707107
    outer loop
      vertex -6000.000000 1907.612047 -288.268343
      vertex -6000.000000 1961.731657 -342.387953
      vertex -1000.000000 1961.731657 -342.387953
    endloop
  endfacet
  facet normal 0.000000 0.000000 -1.000000
    outer loop
      vertex -1000.000000 2038.268343 -342.387953
      vertex -6000.000000 1961.731657 -342.387953
      vertex -6000.000000 2038.268343 -342.387953
    endloop
  endfacet
  facet normal 0.000000 0.000000 -1.000000
    outer loop
      vertex -1000.000000 2038.268343 -342.387953
      vertex -1000.000000 1961.731657 -342.387953
      vertex -6000.000000 1961.731657 -342.387953
    endloop
  endfacet
  facet normal 0.000000 0.707107 -0.707107
    outer loop
      vertex -6000.000000 2038.268343 -342.387953
      vertex -1000.000000 2092.387953 -288.268343
      vertex -1000.000000 2038.268343 -342.387953
    endloop
  endfacet
  facet normal 0.000000 0.707107 -0.707107
    outer loop
      vertex -6000.000000 2038.268343 -342.387953
      vertex -6000.000000 2092.387953 -288.268343
      vertex -1000.000000 2092.387953 -288.268343
    endloop
  endfacet
  facet normal 0.000000 1.000000 0.000000
    outer loop
      vertex -6000.000000 2092.387953 -288.268343
      vertex -1000.000000 2092.387953 -211.731657
      vertex -1000.000000 2092.387953 -288.268343
    endloop
  endfacet
  facet normal 0.000000 1.000000 0.000000
    outer loop
      vertex -6000.000000 2092.387953 -288.268343
      vertex -6000.000000 2092.387953 -211.731657
      vertex -1000.000000 2092.387953 -211.731657
    endloop
  endfacet
  facet normal 0.000000 0.707107 0.707107
    outer loop
      vertex -6000.000000 2092.387953 -211.731657
      vertex -1000.000000 2038.268343 -157.612047
      vertex -1000.000000 2092.387953 -211.731657
    endloop
  endfacet
  facet normal 0.000000 0.707107 0.707107
    outer loop
      vertex -6000.000000 2092.387953 -211.731657
      vertex -6000.000000 2038.268343 -157.612047
      vertex -1000.000000 2038.268343 -157.612047
    endloop
  endfacet
  facet normal 0.000000 -0.000000 -1.000000
    outer loop
      vertex 11000.000000 2038.268343 -342.387953
      vertex 6000.000000 1961.731657 -342.387953
      vertex 6000.000000 2038.268343 -342.387953
    endloop
  endfacet
  facet normal 0.000000 -0.000000 -1.000000
    outer loop
      vertex 11000.000000 2038.268343 -342.387953
      vertex 11000.000000 1961.731657 -342.387953
      vertex 6000.000000 1961.731657 -342.387953
    endloop
  endfacet
  facet normal 0.000000 -0.707107 -0.707107
    outer loop
      vertex 6000.000000 1907.612047 -288.268343
      vertex 11000.000000 1961.731657 -342.387953
      vertex 11000.000000 1907.612047 -288.268343
    endloop
  endfacet
  facet normal 0.000000 -0.707107 -0.707107
    outer loop
      vertex 6000.000000 1907.612047 -288.268343
      vertex 6000.000000 1961.731657 -342.387953
      vertex 11000.000000 1961.731657 -342.387953
    endloop
  endfacet
  facet normal 0.000000 -1.000000 0.000000
    outer loop
      vertex 6000.000000 1907.612047 -211.731657
      vertex 11000.000000 1907.612047 -288.268343
      vertex 11000.000000 1907.612047 -211.731657
    endloop
  endfacet
  facet normal 0.000000 -1.000000 0.000000
    outer loop
      vertex 6000.000000 1907.612047 -211.731657
      vertex 6000.000000 1907.612047 -288.268343
      vertex 11000.000000 1907.612047 -288.268343
    endloop
  endfacet
  facet normal 0.000000 -0.707107 0.707107
    outer loop
      vertex 6000.000000 1961.731657 -157.612047
      vertex 11000.000000 1907.612047 -211.731657
      vertex 11000.000000 1961.731657 -157.612047
    endloop
  endfacet
  facet normal 0.000000 -0.707107 0.707107
    outer loop
      vertex 6000.000000 1961.731657 -157.612047
      vertex 6000.000000 1907.612047 -211.731657
      vertex 11000.000000 1907.612047 -211.731657
    endloop
  endfacet
  facet normal 0.000000 0.000000 1.000000
    outer loop
      vertex 6000.000000 2038.268343 -157.612047
      vertex 11000.000000 1961.731657 -157.612047
      vertex 11000.000000 2038.268343 -157.612047
    endloop
  endfacet
  facet normal 0.000000 0.000000 1.000000
    outer loop
      vertex 6000.000000 2038.268343 -157.612047
      vertex 6000.000000 1961.731657 -157.612047
      vertex 11000.000000 1961.731657 -157.612047
    endloop
  endfacet
  facet normal 0.000000 0.707107 0.707107
    outer loop
      vertex 6000.000000 2092.387953 -211.731657
      vertex 11000.000000 2038.268343 -157.612047
      vertex 11000.000000 2092.387953 -211.731657
    endloop
  endfacet
  facet normal 0.000000 0.707107 0.707107
    outer loop
      vertex 6000.000000 2092.387953 -211.731657
      vertex 6000.000000 2038.268343 -157.612047
      vertex 11000.000000 2038.268343 -157.612047
    endloop
  endfacet
  facet normal 0.000000 1.000000 0.000000
    outer loop
      vertex 6000.000000 2092.387953 -288.268343
      vertex 11000.000000 2092.387953 -211.731657
      vertex 11000.000000 2092.387953 -288.268343
    endloop
  endfacet
  facet normal 0.000000 1.000000 0.000000
    outer loop
      vertex 6000.000000 2092.387953 -288.268343
      vertex 6000.000000 2092.387953 -211.731657
      vertex 11000.000000 2092.387953 -211.731657
    endloop
  endfacet
  facet normal 0.000000 0.707107 -0.707107
    outer loop
      vertex 6000.000000 2038.268343 -342.387953
      vertex 11000.000000 2092.387953 -288.268343
      vertex 11000.000000 2038.268343 -342.387953
    endloop
  endfacet
  facet normal 0.000000 0.707107 -0.707107
    outer loop
      vertex 6000.000000 2038.268343 -342.387953
      vertex 6000.000000 2092.387953 -288.268343
      vertex 11000.000000 2092.387953 -288.268343
    endloop
  endfacet
  facet normal 0.000000 0.000000 1.000000
    outer loop
      vertex 5000.000000 4000.000000 83.333333
      vertex 4000.000000 4000.000000 83.333333
      vertex 5000.000000 0.000000 83.333333
    endloop
  endfacet
  facet normal 0.000000 0.000000 1.000000
    outer loop
      vertex 1000.000000 4000.000000 83.333333
      vertex 0.000000 4000.000000 83.333333
      vertex 1000.000000 0.000000 83.333333
    endloop
  endfacet
  facet normal 0.000000 0.000000 1.000000
    outer loop
      vertex 3000.000000 4000.000000 83.333333
      vertex 2000.000000 4000.000000 83.333333
      vertex 3000.000000 0.000000 83.333333
    endloop
  endfacet
  facet normal 0.000000 0.000000 1.000000
    outer loop
      vertex 4000.000000 0.000000 83.333333
      vertex 3904.046308 0.000000 83.333333
      vertex 3904.046308 -5000.000000 83.333333
    endloop
  endfacet
  facet normal 0.000000 0.000000 1.000000
    outer loop
      vertex 4000.000000 0.000000 83.333333
      vertex 3904.046308 -5000.000000 83.333333
      vertex 5095.953692 -5000.000000 83.333333
    endloop
  endfacet
  facet normal 0.000000 0.000000 1.000000
    outer loop
      vertex 4000.000000 4000.000000 83.333333
      vertex 4000.000000 0.000000 83.333333
      vertex 5095.953692 -5000.000000 83.333333
    endloop
  endfacet
  facet normal 0.000000 0.000000 1.000000
    outer loop
      vertex 5095.953692 -5000.000000 83.333333
      vertex 5095.953692 0.000000 83.333333
      vertex 5000.000000 0.000000 83.333333
    endloop
  endfacet
  facet normal 0.000000 0.000000 1.000000
    outer loop
      vertex 4000.000000 4000.000000 83.333333
      vertex 5095.953692 -5000.000000 83.333333
      vertex 5000.000000 0.000000 83.333333
    endloop
  endfacet
  facet normal 0.000000 0.000000 1.000000
    outer loop
      vertex 0.000000 0.000000 83.333333
      vertex -95.953692 0.000000 83.333333
      vertex -95.953692 -5000.000000 83.333333
    endloop
  endfacet
  facet normal 0.000000 0.000000 1.000000
    outer loop
      vertex 0.000000 0.000000 83.333333
      vertex -95.953692 -5000.000000 83.333333
      vertex 1095.953692 -5000.000000 83.333333
    endloop
  endfacet
  facet normal 0.000000 0.000000 1.000000
    outer loop
      vertex 0.000000 4000.000000 83.333333
      vertex 0.000000 0.000000 83.333333
      vertex 1095.953692 -5000.000000 83.333333
    endloop
  endfacet
  facet normal 0.000000 0.000000 1.000000
    outer loop
      vertex 1095.953692 -5000.000000 83.333333
      vertex 1095.953692 0.000000 83.333333
      vertex 1000.000000 0.000000 83.333333
    endloop
  endfacet
  facet normal 0.000000 0.000000 1.000000
    outer loop
      vertex 0.000000 4000.000000 83.333333
      vertex 1095.953692 -5000.000000 83.333333
      vertex 1000.000000 0.000000 83.333333
    endloop
  endfacet
  facet normal 0.000000 0.000000 1.000000
    outer loop
      vertex 2000.000000 0.000000 83.333333
      vertex 1904.046308 0.000000 83.333333
      vertex 1904.046308 -5000.000000 83.333333
    endloop
  endfacet
  facet normal 0.000000 0.000000 1.000000
    outer loop
      vertex 2000.000000 0.000000 83.333333
      vertex 1904.046308 -5000.000000 83.333333
      vertex 3095.953692 -5000.000000 83.333333
    endloop
  endfacet
  facet normal 0.000000 0.000000 1.000000
    outer loop
      vertex 2000.000000 4000.000000 83.333333
      vertex 2000.000000 0.000000 83.333333
      vertex 3095.953692 -5000.000000 83.333333
    endloop
  endfacet
  facet normal 0.000000 0.000000 1.000000
    outer loop
      vertex 3095.953692 -5000.000000 83.333333
      vertex 3095.953692 0.000000 83.333333
      vertex 3000.000000 0.000000 83.333333
    endloop
  endfacet
  facet normal 0.000000 0.000000 1.000000
    outer loop
      vertex 2000.000000 4000.000000 83.333333
      vertex 3095.953692 -5000.000000 83.333333
      vertex 3000.000000 0.000000 83.333333
    endloop
  endfacet
  facet normal -0.000000 0.000000 -1.000000
    outer loop
      vertex 6000.000000 3000.000000 -500.000000
      vertex -1000.000000 1000.000000 -500.000000
      vertex -1000.000000 3000.000000 -500.000000
    endloop
  endfacet
  facet normal -0.000000 0.000000 -1.000000
    outer loop
      vertex 6000.000000 3000.000000 -500.000000
      vertex 6000.000000 1000.000000 -500.000000
      vertex -1000.000000 1000.000000 -500.000000
    endloop
  endfacet
  facet normal 0.000000 1.000000 0.000000
    outer loop
      vertex 4000.000000 4000.000000 0.000000
      vertex 5000.000000 4000.000000 83.333333
      vertex 5000.000000 4000.000000 0.000000
    endloop
  endfacet
  facet normal 0.000000 1.000000 0.000000
    outer loop
      vertex 0.000000 4000.000000 0.000000
      vertex 1000.000000 4000.000000 83.333333
      vertex 1000.000000 4000.000000 0.000000
    endloop
  endfacet
  facet normal 0.000000 1.000000 0.000000
    outer loop
      vertex 2000.000000 4000.000000 0.000000
      vertex 3000.000000 4000.000000 83.333333
      vertex 3000.000000 4000.000000 0.000000
    endloop
  endfacet
  facet normal 0.000000 1.000000 0.000000
    outer loop
      vertex 4000.000000 4000.000000 0.000000
      vertex 4000.000000 4000.000000 83.333333
      vertex 5000.000000 4000.000000 83.333333
    endloop
  endfacet
  facet normal 0.000000 1.000000 0.000000
    outer loop
      vertex 0.000000 4000.000000 0.000000
      vertex 0.000000 4000.000000 83.333333
      vertex 1000.000000 4000.000000 83.333333
    endloop
  endfacet
  facet normal 0.000000 1.000000 0.000000
    outer loop
      vertex 2000.000000 4000.000000 0.000000
      vertex 2000.000000 4000.000000 83.333333
      vertex 3000.000000 4000.000000 83.333333
    endloop
  endfacet
  facet normal 0.000000 -1.000000 -0.000000
    outer loop
      vertex 4694.114284 -5000.000000 -224.444370
      vertex 5030.330086 -5000.000000 -30.330086
      vertex 4305.885716 -5000.000000 -224.444370
    endloop
  endfacet
  facet normal 0.000000 -1.000000 -0.000000
    outer loop
      vertex 2694.114284 -5000.000000 -224.444370
      vertex 3030.330086 -5000.000000 -30.330086
      vertex 2305.885716 -5000.000000 -224.444370
    endloop
  endfacet
  facet normal 0.000000 -1.000000 -0.000000
    outer loop
      vertex 694.114284 -5000.000000 -224.444370
      vertex 1030.330086 -5000.000000 -30.330086
      vertex 305.885716 -5000.000000 -224.444370
    endloop
  endfacet
  facet normal 0.000000 -1.000000 -0.000000
    outer loop
      vertex 3904.046308 -5000.000000 83.333333
      vertex 3969.669914 -5000.000000 -30.330086
      vertex 4305.885716 -5000.000000 -224.444370
    endloop
  endfacet
  facet normal 0.000000 -1.000000 -0.000000
    outer loop
      vertex 5095.953692 -5000.000000 83.333333
      vertex 3904.046308 -5000.000000 83.333333
      vertex 4305.885716 -5000.000000 -224.444370
    endloop
  endfacet
  facet normal 0.000000 -1.000000 -0.000000
    outer loop
      vertex 5030.330086 -5000.000000 -30.330086
      vertex 5095.953692 -5000.000000 83.333333
      vertex 4305.885716 -5000.000000 -224.444370
    endloop
  endfacet
  facet normal 0.000000 -1.000000 -0.000000
    outer loop
      vertex 1904.046308 -5000.000000 83.333333
      vertex 1969.669914 -5000.000000 -30.330086
      vertex 2305.885716 -5000.000000 -224.444370
    endloop
  endfacet
  facet normal 0.000000 -1.000000 -0.000000
    outer loop
      vertex 3095.953692 -5000.000000 83.333333
      vertex 1904.046308 -5000.000000 83.333333
      vertex 2305.885716 -5000.000000 -224.444370
    endloop
  endfacet
  facet normal 0.000000 -1.000000 -0.000000
    outer loop
      vertex 3030.330086 -5000.000000 -30.330086
      vertex 3095.953692 -5000.000000 83.333333
      vertex 2305.885716 -5000.000000 -224.444370
    endloop
  endfacet
  facet normal 0.000000 -1.000000 -0.000000
    outer loop
      vertex -95.953692 -5000.000000 83.333333
      vertex -30.330086 -5000.000000 -30.330086
      vertex 305.885716 -5000.000000 -224.444370
    endloop
  endfacet
  facet normal 0.000000 -1.000000 -0.000000
    outer loop
      vertex 1095.953692 -5000.000000 83.333333
      vertex -95.953692 -5000.000000 83.333333
      vertex 305.885716 -5000.000000 -224.444370
    endloop
  endfacet
  facet normal 0.000000 -1.000000 -0.000000
    outer loop
      vertex 1030.330086 -5000.000000 -30.330086
      vertex 1095.953692 -5000.000000 83.333333
      vertex 305.885716 -5000.000000 -224.444370
    endloop
  endfacet
  facet normal -1.000000 0.000000 0.000000
    outer loop
      vertex -6000.000000 1907.612047 -211.731657
      vertex -6000.000000 1961.731657 -342.387953
      vertex -6000.000000 1907.612047 -288.268343
    endloop
  endfacet
  facet normal -1.000000 0.000000 0.000000
    outer loop
      vertex -6000.000000 2092.387953 -288.268343
      vertex -6000.000000 2038.268343 -342.387953
      vertex -6000.000000 1961.731657 -342.387953
    endloop
  endfacet
  facet normal -1.000000 0.000000 0.000000
    outer loop
      vertex -6000.000000 2092.387953 -211.731657
      vertex -6000.000000 2092.387953 -288.268343
      vertex -6000.000000 1961.731657 -342.387953
    endloop
  endfacet
  facet normal -1.000000 0.000000 0.000000
    outer loop
      vertex -6000.000000 2038.268343 -157.612047
      vertex -6000.000000 2092.387953 -211.731657
      vertex -6000.000000 1961.731657 -342.387953
    endloop
  endfacet
  facet normal -1.000000 0.000000 0.000000
    outer loop
      vertex -6000.000000 1961.731657 -157.612047
      vertex -6000.000000 2038.268343 -157.612047
      vertex -6000.000000 1961.731657 -342.387953
    endloop
  endfacet
  facet normal -1.000000 0.000000 0.000000
    outer loop
      vertex -6000.000000 1907.612047 -211.731657
      vertex -6000.000000 1961.731657 -157.612047
      vertex -6000.000000 1961.731657 -342.387953
    endloop
  endfacet
  facet normal 1.000000 -0.000000 0.000000
    outer loop
      vertex 11000.000000 1907.612047 -288.268343
      vertex 11000.000000 1961.731657 -157.612047
      vertex 11000.000000 1907.612047 -211.731657
    endloop
  endfacet
  facet normal 1.000000 -0.000000 0.000000
    outer loop
      vertex 11000.000000 2092.387953 -211.731657
      vertex 11000.000000 2038.268343 -157.612047
      vertex 11000.000000 1961.731657 -157.612047
    endloop
  endfacet
  facet normal 1.000000 -0.000000 0.000000
    outer loop
      vertex 11000.000000 2092.387953 -288.268343
      vertex 11000.000000 2092.387953 -211.731657
      vertex 11000.000000 1961.731657 -157.612047
    endloop
  endfacet
  facet normal 1.000000 -0.000000 0.000000
    outer loop
      vertex 11000.000000 2038.268343 -342.387953
      vertex 11000.000000 2092.387953 -288.268343
      vertex 11000.000000 1961.731657 -157.612047
    endloop
  endfacet
  facet normal 1.000000 -0.000000 0.000000
    outer loop
      vertex 11000.000000 1961.731657 -342.387953
      vertex 11000.000000 2038.268343 -342.387953
      vertex 11000.000000 1961.731657 -157.612047
    endloop
  endfacet
  facet normal 1.000000 -0.000000 0.000000
    outer loop
      vertex 11000.000000 1907.612047 -288.268343
      vertex 11000.000000 1961.731657 -342.387953
      vertex 11000.000000 1961.731657 -157.612047
    endloop
  endfacet
endsolid brlcad_tcl__slice0_num3.c/brlcad_tcl__slice_bb0_num3.s
