solid peristaltic_3_finger_pump__COMPLETE1.r
  facet normal 1.000000 -0.000000 0.000000
    outer loop
      vertex 5000.000000 4000.000000 1000.000000
      vertex 5000.000000 3000.000000 0.000000
      vertex 5000.000000 4000.000000 0.000000
    endloop
  endfacet
  facet normal 1.000000 -0.000000 0.000000
    outer loop
      vertex 5000.000000 4000.000000 1000.000000
      vertex 5000.000000 0.000000 1000.000000
      vertex 5000.000000 0.000000 0.000000
    endloop
  endfacet
  facet normal 1.000000 -0.000000 0.000000
    outer loop
      vertex 5000.000000 4000.000000 1000.000000
      vertex 5000.000000 0.000000 0.000000
      vertex 5000.000000 1000.000000 0.000000
    endloop
  endfacet
  facet normal 1.000000 -0.000000 0.000000
    outer loop
      vertex 5000.000000 4000.000000 1000.000000
      vertex 5000.000000 1000.000000 0.000000
      vertex 5000.000000 3000.000000 0.000000
    endloop
  endfacet
  facet normal -1.000000 0.000000 0.000000
    outer loop
      vertex 4000.000000 0.000000 1000.000000
      vertex 4000.000000 1000.000000 0.000000
      vertex 4000.000000 0.000000 0.000000
    endloop
  endfacet
  facet normal -1.000000 0.000000 0.000000
    outer loop
      vertex 4000.000000 4000.000000 0.000000
      vertex 4000.000000 3000.000000 0.000000
      vertex 4000.000000 1000.000000 0.000000
    endloop
  endfacet
  facet normal -1.000000 0.000000 0.000000
    outer loop
      vertex 4000.000000 4000.000000 1000.000000
      vertex 4000.000000 4000.000000 0.000000
      vertex 4000.000000 1000.000000 0.000000
    endloop
  endfacet
  facet normal -1.000000 0.000000 0.000000
    outer loop
      vertex 4000.000000 0.000000 1000.000000
      vertex 4000.000000 4000.000000 1000.000000
      vertex 4000.000000 1000.000000 0.000000
    endloop
  endfacet
  facet normal 0.000000 -1.000000 0.000000
    outer loop
      vertex 4000.000000 0.000000 1000.000000
      vertex 5000.000000 0.000000 0.000000
      vertex 5000.000000 0.000000 1000.000000
    endloop
  endfacet
  facet normal 0.000000 -1.000000 0.000000
    outer loop
      vertex 4000.000000 0.000000 1000.000000
      vertex 4000.000000 0.000000 0.000000
      vertex 5000.000000 0.000000 0.000000
    endloop
  endfacet
  facet normal 0.000000 1.000000 0.000000
    outer loop
      vertex 5000.000000 4000.000000 0.000000
      vertex 4000.000000 4000.000000 0.000000
      vertex 5000.000000 4000.000000 1000.000000
    endloop
  endfacet
  facet normal 0.000000 1.000000 0.000000
    outer loop
      vertex 4000.000000 4000.000000 0.000000
      vertex 4000.000000 4000.000000 1000.000000
      vertex 5000.000000 4000.000000 1000.000000
    endloop
  endfacet
  facet normal -0.000000 -0.000000 -1.000000
    outer loop
      vertex 5000.000000 4000.000000 0.000000
      vertex 4000.000000 3000.000000 0.000000
      vertex 4000.000000 4000.000000 0.000000
    endloop
  endfacet
  facet normal -0.000000 -0.000000 -1.000000
    outer loop
      vertex 5000.000000 1000.000000 0.000000
      vertex 4000.000000 0.000000 0.000000
      vertex 4000.000000 1000.000000 0.000000
    endloop
  endfacet
  facet normal -0.000000 -0.000000 -1.000000
    outer loop
      vertex 5000.000000 4000.000000 0.000000
      vertex 5000.000000 3000.000000 0.000000
      vertex 4000.000000 3000.000000 0.000000
    endloop
  endfacet
  facet normal -0.000000 -0.000000 -1.000000
    outer loop
      vertex 5000.000000 1000.000000 0.000000
      vertex 5000.000000 0.000000 0.000000
      vertex 4000.000000 0.000000 0.000000
    endloop
  endfacet
  facet normal 0.000000 0.000000 1.000000
    outer loop
      vertex 4000.000000 4000.000000 1000.000000
      vertex 5000.000000 0.000000 1000.000000
      vertex 5000.000000 4000.000000 1000.000000
    endloop
  endfacet
  facet normal 0.000000 0.000000 1.000000
    outer loop
      vertex 4000.000000 4000.000000 1000.000000
      vertex 4000.000000 0.000000 1000.000000
      vertex 5000.000000 0.000000 1000.000000
    endloop
  endfacet
  facet normal 0.000000 0.000000 1.000000
    outer loop
      vertex 5000.000000 3000.000000 0.000000
      vertex 6000.000000 1000.000000 0.000000
      vertex 6000.000000 3000.000000 0.000000
    endloop
  endfacet
  facet normal 0.000000 0.000000 1.000000
    outer loop
      vertex 0.000000 3000.000000 0.000000
      vertex -1000.000000 3000.000000 0.000000
      vertex 0.000000 1000.000000 0.000000
    endloop
  endfacet
  facet normal 0.000000 0.000000 1.000000
    outer loop
      vertex 3000.000000 3000.000000 0.000000
      vertex 4000.000000 1000.000000 0.000000
      vertex 4000.000000 3000.000000 0.000000
    endloop
  endfacet
  facet normal 0.000000 0.000000 1.000000
    outer loop
      vertex 2000.000000 3000.000000 0.000000
      vertex 1000.000000 3000.000000 0.000000
      vertex 2000.000000 1000.000000 0.000000
    endloop
  endfacet
  facet normal 0.000000 0.000000 1.000000
    outer loop
      vertex 5000.000000 3000.000000 0.000000
      vertex 5000.000000 1000.000000 0.000000
      vertex 6000.000000 1000.000000 0.000000
    endloop
  endfacet
  facet normal 0.000000 0.000000 1.000000
    outer loop
      vertex -1000.000000 3000.000000 0.000000
      vertex -1000.000000 1000.000000 0.000000
      vertex 0.000000 1000.000000 0.000000
    endloop
  endfacet
  facet normal 0.000000 0.000000 1.000000
    outer loop
      vertex 3000.000000 3000.000000 0.000000
      vertex 3000.000000 1000.000000 0.000000
      vertex 4000.000000 1000.000000 0.000000
    endloop
  endfacet
  facet normal 0.000000 0.000000 1.000000
    outer loop
      vertex 1000.000000 3000.000000 0.000000
      vertex 1000.000000 1000.000000 0.000000
      vertex 2000.000000 1000.000000 0.000000
    endloop
  endfacet
  facet normal -0.000000 0.000000 -1.000000
    outer loop
      vertex 6000.000000 3000.000000 -500.000000
      vertex -1000.000000 1000.000000 -500.000000
      vertex -1000.000000 3000.000000 -500.000000
    endloop
  endfacet
  facet normal -0.000000 0.000000 -1.000000
    outer loop
      vertex 6000.000000 3000.000000 -500.000000
      vertex 6000.000000 1000.000000 -500.000000
      vertex -1000.000000 1000.000000 -500.000000
    endloop
  endfacet
  facet normal 0.000000 1.000000 0.000000
    outer loop
      vertex 6000.000000 3000.000000 -500.000000
      vertex 5000.000000 3000.000000 0.000000
      vertex 6000.000000 3000.000000 0.000000
    endloop
  endfacet
  facet normal 0.000000 1.000000 0.000000
    outer loop
      vertex -1000.000000 3000.000000 -500.000000
      vertex -1000.000000 3000.000000 0.000000
      vertex 0.000000 3000.000000 0.000000
    endloop
  endfacet
  facet normal 0.000000 1.000000 0.000000
    outer loop
      vertex 6000.000000 3000.000000 -500.000000
      vertex -1000.000000 3000.000000 -500.000000
      vertex 0.000000 3000.000000 0.000000
    endloop
  endfacet
  facet normal 0.000000 1.000000 0.000000
    outer loop
      vertex 6000.000000 3000.000000 -500.000000
      vertex 0.000000 3000.000000 0.000000
      vertex 1000.000000 3000.000000 0.000000
    endloop
  endfacet
  facet normal 0.000000 1.000000 0.000000
    outer loop
      vertex 6000.000000 3000.000000 -500.000000
      vertex 1000.000000 3000.000000 0.000000
      vertex 2000.000000 3000.000000 0.000000
    endloop
  endfacet
  facet normal 0.000000 1.000000 0.000000
    outer loop
      vertex 6000.000000 3000.000000 -500.000000
      vertex 2000.000000 3000.000000 0.000000
      vertex 3000.000000 3000.000000 0.000000
    endloop
  endfacet
  facet normal 0.000000 1.000000 0.000000
    outer loop
      vertex 6000.000000 3000.000000 -500.000000
      vertex 3000.000000 3000.000000 0.000000
      vertex 4000.000000 3000.000000 0.000000
    endloop
  endfacet
  facet normal 0.000000 1.000000 0.000000
    outer loop
      vertex 6000.000000 3000.000000 -500.000000
      vertex 4000.000000 3000.000000 0.000000
      vertex 5000.000000 3000.000000 0.000000
    endloop
  endfacet
  facet normal 0.000000 -1.000000 0.000000
    outer loop
      vertex 5000.000000 1000.000000 0.000000
      vertex 6000.000000 1000.000000 -500.000000
      vertex 6000.000000 1000.000000 0.000000
    endloop
  endfacet
  facet normal 0.000000 -1.000000 0.000000
    outer loop
      vertex -1000.000000 1000.000000 0.000000
      vertex -1000.000000 1000.000000 -500.000000
      vertex 6000.000000 1000.000000 -500.000000
    endloop
  endfacet
  facet normal 0.000000 -1.000000 0.000000
    outer loop
      vertex 0.000000 1000.000000 0.000000
      vertex -1000.000000 1000.000000 0.000000
      vertex 6000.000000 1000.000000 -500.000000
    endloop
  endfacet
  facet normal 0.000000 -1.000000 0.000000
    outer loop
      vertex 1000.000000 1000.000000 0.000000
      vertex 0.000000 1000.000000 0.000000
      vertex 6000.000000 1000.000000 -500.000000
    endloop
  endfacet
  facet normal 0.000000 -1.000000 0.000000
    outer loop
      vertex 2000.000000 1000.000000 0.000000
      vertex 1000.000000 1000.000000 0.000000
      vertex 6000.000000 1000.000000 -500.000000
    endloop
  endfacet
  facet normal 0.000000 -1.000000 0.000000
    outer loop
      vertex 3000.000000 1000.000000 0.000000
      vertex 2000.000000 1000.000000 0.000000
      vertex 6000.000000 1000.000000 -500.000000
    endloop
  endfacet
  facet normal 0.000000 -1.000000 0.000000
    outer loop
      vertex 4000.000000 1000.000000 0.000000
      vertex 3000.000000 1000.000000 0.000000
      vertex 6000.000000 1000.000000 -500.000000
    endloop
  endfacet
  facet normal 0.000000 -1.000000 0.000000
    outer loop
      vertex 5000.000000 1000.000000 0.000000
      vertex 4000.000000 1000.000000 0.000000
      vertex 6000.000000 1000.000000 -500.000000
    endloop
  endfacet
  facet normal -1.000000 0.000000 0.000000
    outer loop
      vertex -1000.000000 3000.000000 -500.000000
      vertex -1000.000000 1000.000000 0.000000
      vertex -1000.000000 3000.000000 0.000000
    endloop
  endfacet
  facet normal -1.000000 0.000000 0.000000
    outer loop
      vertex -1000.000000 3000.000000 -500.000000
      vertex -1000.000000 1000.000000 -500.000000
      vertex -1000.000000 1000.000000 0.000000
    endloop
  endfacet
  facet normal 1.000000 -0.000000 0.000000
    outer loop
      vertex 6000.000000 3000.000000 0.000000
      vertex 6000.000000 1000.000000 -500.000000
      vertex 6000.000000 3000.000000 -500.000000
    endloop
  endfacet
  facet normal 1.000000 -0.000000 0.000000
    outer loop
      vertex 6000.000000 3000.000000 0.000000
      vertex 6000.000000 1000.000000 0.000000
      vertex 6000.000000 1000.000000 -500.000000
    endloop
  endfacet
  facet normal 0.000000 0.000000 1.000000
    outer loop
      vertex 0.000000 4000.000000 1000.000000
      vertex 1000.000000 0.000000 1000.000000
      vertex 1000.000000 4000.000000 1000.000000
    endloop
  endfacet
  facet normal 0.000000 0.000000 1.000000
    outer loop
      vertex 0.000000 4000.000000 1000.000000
      vertex 0.000000 0.000000 1000.000000
      vertex 1000.000000 0.000000 1000.000000
    endloop
  endfacet
  facet normal -0.000000 -0.000000 -1.000000
    outer loop
      vertex 1000.000000 4000.000000 0.000000
      vertex 0.000000 3000.000000 0.000000
      vertex 0.000000 4000.000000 0.000000
    endloop
  endfacet
  facet normal -0.000000 -0.000000 -1.000000
    outer loop
      vertex 1000.000000 1000.000000 0.000000
      vertex 0.000000 0.000000 0.000000
      vertex 0.000000 1000.000000 0.000000
    endloop
  endfacet
  facet normal -0.000000 -0.000000 -1.000000
    outer loop
      vertex 1000.000000 4000.000000 0.000000
      vertex 1000.000000 3000.000000 0.000000
      vertex 0.000000 3000.000000 0.000000
    endloop
  endfacet
  facet normal -0.000000 -0.000000 -1.000000
    outer loop
      vertex 1000.000000 1000.000000 0.000000
      vertex 1000.000000 0.000000 0.000000
      vertex 0.000000 0.000000 0.000000
    endloop
  endfacet
  facet normal 0.000000 1.000000 0.000000
    outer loop
      vertex 1000.000000 4000.000000 0.000000
      vertex 0.000000 4000.000000 0.000000
      vertex 1000.000000 4000.000000 1000.000000
    endloop
  endfacet
  facet normal 0.000000 1.000000 0.000000
    outer loop
      vertex 0.000000 4000.000000 0.000000
      vertex 0.000000 4000.000000 1000.000000
      vertex 1000.000000 4000.000000 1000.000000
    endloop
  endfacet
  facet normal 0.000000 -1.000000 0.000000
    outer loop
      vertex 0.000000 0.000000 1000.000000
      vertex 1000.000000 0.000000 0.000000
      vertex 1000.000000 0.000000 1000.000000
    endloop
  endfacet
  facet normal 0.000000 -1.000000 0.000000
    outer loop
      vertex 0.000000 0.000000 1000.000000
      vertex 0.000000 0.000000 0.000000
      vertex 1000.000000 0.000000 0.000000
    endloop
  endfacet
  facet normal -1.000000 0.000000 0.000000
    outer loop
      vertex 0.000000 0.000000 1000.000000
      vertex 0.000000 1000.000000 0.000000
      vertex 0.000000 0.000000 0.000000
    endloop
  endfacet
  facet normal -1.000000 0.000000 0.000000
    outer loop
      vertex 0.000000 4000.000000 0.000000
      vertex 0.000000 3000.000000 0.000000
      vertex 0.000000 1000.000000 0.000000
    endloop
  endfacet
  facet normal -1.000000 0.000000 0.000000
    outer loop
      vertex 0.000000 4000.000000 1000.000000
      vertex 0.000000 4000.000000 0.000000
      vertex 0.000000 1000.000000 0.000000
    endloop
  endfacet
  facet normal -1.000000 0.000000 0.000000
    outer loop
      vertex 0.000000 0.000000 1000.000000
      vertex 0.000000 4000.000000 1000.000000
      vertex 0.000000 1000.000000 0.000000
    endloop
  endfacet
  facet normal 1.000000 -0.000000 0.000000
    outer loop
      vertex 1000.000000 4000.000000 1000.000000
      vertex 1000.000000 3000.000000 0.000000
      vertex 1000.000000 4000.000000 0.000000
    endloop
  endfacet
  facet normal 1.000000 -0.000000 0.000000
    outer loop
      vertex 1000.000000 4000.000000 1000.000000
      vertex 1000.000000 0.000000 1000.000000
      vertex 1000.000000 0.000000 0.000000
    endloop
  endfacet
  facet normal 1.000000 -0.000000 0.000000
    outer loop
      vertex 1000.000000 4000.000000 1000.000000
      vertex 1000.000000 0.000000 0.000000
      vertex 1000.000000 1000.000000 0.000000
    endloop
  endfacet
  facet normal 1.000000 -0.000000 0.000000
    outer loop
      vertex 1000.000000 4000.000000 1000.000000
      vertex 1000.000000 1000.000000 0.000000
      vertex 1000.000000 3000.000000 0.000000
    endloop
  endfacet
  facet normal 0.000000 0.000000 1.000000
    outer loop
      vertex 2000.000000 4000.000000 1000.000000
      vertex 3000.000000 0.000000 1000.000000
      vertex 3000.000000 4000.000000 1000.000000
    endloop
  endfacet
  facet normal 0.000000 0.000000 1.000000
    outer loop
      vertex 2000.000000 4000.000000 1000.000000
      vertex 2000.000000 0.000000 1000.000000
      vertex 3000.000000 0.000000 1000.000000
    endloop
  endfacet
  facet normal -0.000000 -0.000000 -1.000000
    outer loop
      vertex 3000.000000 4000.000000 0.000000
      vertex 2000.000000 3000.000000 0.000000
      vertex 2000.000000 4000.000000 0.000000
    endloop
  endfacet
  facet normal -0.000000 -0.000000 -1.000000
    outer loop
      vertex 3000.000000 1000.000000 0.000000
      vertex 2000.000000 0.000000 0.000000
      vertex 2000.000000 1000.000000 0.000000
    endloop
  endfacet
  facet normal -0.000000 -0.000000 -1.000000
    outer loop
      vertex 3000.000000 4000.000000 0.000000
      vertex 3000.000000 3000.000000 0.000000
      vertex 2000.000000 3000.000000 0.000000
    endloop
  endfacet
  facet normal -0.000000 -0.000000 -1.000000
    outer loop
      vertex 3000.000000 1000.000000 0.000000
      vertex 3000.000000 0.000000 0.000000
      vertex 2000.000000 0.000000 0.000000
    endloop
  endfacet
  facet normal 0.000000 1.000000 0.000000
    outer loop
      vertex 3000.000000 4000.000000 0.000000
      vertex 2000.000000 4000.000000 0.000000
      vertex 3000.000000 4000.000000 1000.000000
    endloop
  endfacet
  facet normal 0.000000 1.000000 0.000000
    outer loop
      vertex 2000.000000 4000.000000 0.000000
      vertex 2000.000000 4000.000000 1000.000000
      vertex 3000.000000 4000.000000 1000.000000
    endloop
  endfacet
  facet normal 0.000000 -1.000000 0.000000
    outer loop
      vertex 2000.000000 0.000000 1000.000000
      vertex 3000.000000 0.000000 0.000000
      vertex 3000.000000 0.000000 1000.000000
    endloop
  endfacet
  facet normal 0.000000 -1.000000 0.000000
    outer loop
      vertex 2000.000000 0.000000 1000.000000
      vertex 2000.000000 0.000000 0.000000
      vertex 3000.000000 0.000000 0.000000
    endloop
  endfacet
  facet normal -1.000000 0.000000 0.000000
    outer loop
      vertex 2000.000000 0.000000 1000.000000
      vertex 2000.000000 1000.000000 0.000000
      vertex 2000.000000 0.000000 0.000000
    endloop
  endfacet
  facet normal -1.000000 0.000000 0.000000
    outer loop
      vertex 2000.000000 4000.000000 0.000000
      vertex 2000.000000 3000.000000 0.000000
      vertex 2000.000000 1000.000000 0.000000
    endloop
  endfacet
  facet normal -1.000000 0.000000 0.000000
    outer loop
      vertex 2000.000000 4000.000000 1000.000000
      vertex 2000.000000 4000.000000 0.000000
      vertex 2000.000000 1000.000000 0.000000
    endloop
  endfacet
  facet normal -1.000000 0.000000 0.000000
    outer loop
      vertex 2000.000000 0.000000 1000.000000
      vertex 2000.000000 4000.000000 1000.000000
      vertex 2000.000000 1000.000000 0.000000
    endloop
  endfacet
  facet normal 1.000000 -0.000000 0.000000
    outer loop
      vertex 3000.000000 4000.000000 1000.000000
      vertex 3000.000000 3000.000000 0.000000
      vertex 3000.000000 4000.000000 0.000000
    endloop
  endfacet
  facet normal 1.000000 -0.000000 0.000000
    outer loop
      vertex 3000.000000 4000.000000 1000.000000
      vertex 3000.000000 0.000000 1000.000000
      vertex 3000.000000 0.000000 0.000000
    endloop
  endfacet
  facet normal 1.000000 -0.000000 0.000000
    outer loop
      vertex 3000.000000 4000.000000 1000.000000
      vertex 3000.000000 0.000000 0.000000
      vertex 3000.000000 1000.000000 0.000000
    endloop
  endfacet
  facet normal 1.000000 -0.000000 0.000000
    outer loop
      vertex 3000.000000 4000.000000 1000.000000
      vertex 3000.000000 1000.000000 0.000000
      vertex 3000.000000 3000.000000 0.000000
    endloop
  endfacet
endsolid peristaltic_3_finger_pump__COMPLETE1.r
